<?xml version="1.0" encoding="UTF-8"?>
<svg xmlns="http://www.w3.org/2000/svg" xmlns:xlink="http://www.w3.org/1999/xlink" width="239.28pt" height="13.45pt" viewBox="0 0 239.28 13.45" version="1.1">
<defs>
<g>
<symbol overflow="visible" id="svg83glyph0-0">
<path style="stroke:none;" d="M 4.9375 -5.03125 L 4.640625 -4.984375 C 4.554688 -5.355469 4.460938 -5.628906 4.359375 -5.796875 C 4.273438 -5.941406 4.152344 -6.035156 4 -6.078125 C 3.851563 -6.128906 3.589844 -6.15625 3.21875 -6.15625 L 2.453125 -6.15625 C 2.304688 -6.15625 2.210938 -6.136719 2.171875 -6.109375 C 2.140625 -6.078125 2.125 -5.988281 2.125 -5.84375 L 2.125 -3.453125 L 3.15625 -3.453125 C 3.589844 -3.453125 3.867188 -3.492188 3.984375 -3.578125 C 4.097656 -3.660156 4.179688 -3.867188 4.234375 -4.203125 L 4.53125 -4.203125 L 4.53125 -2.265625 L 4.234375 -2.265625 C 4.179688 -2.628906 4.097656 -2.851563 3.984375 -2.9375 C 3.867188 -3.019531 3.589844 -3.0625 3.15625 -3.0625 L 2.125 -3.0625 L 2.125 -1.265625 C 2.125 -0.835938 2.175781 -0.570313 2.28125 -0.46875 C 2.382813 -0.375 2.664063 -0.308594 3.125 -0.28125 L 3.125 0 L 0.40625 0 L 0.40625 -0.28125 C 0.808594 -0.308594 1.054688 -0.375 1.140625 -0.46875 C 1.230469 -0.570313 1.28125 -0.835938 1.28125 -1.265625 L 1.28125 -5.25 C 1.28125 -5.675781 1.230469 -5.9375 1.140625 -6.03125 C 1.054688 -6.121094 0.820313 -6.1875 0.4375 -6.21875 L 0.4375 -6.5 L 4.828125 -6.5 C 4.835938 -6.226563 4.875 -5.738281 4.9375 -5.03125 Z M 4.9375 -5.03125 "/>
</symbol>
<symbol overflow="visible" id="svg83glyph0-1">
<path style="stroke:none;" d="M 3.796875 -1.0625 L 3.953125 -0.84375 C 3.671875 -0.488281 3.378906 -0.238281 3.078125 -0.09375 C 2.773438 0.0507813 2.519531 0.125 2.3125 0.125 C 1.726563 0.125 1.257813 -0.0820313 0.90625 -0.5 C 0.550781 -0.914063 0.375 -1.421875 0.375 -2.015625 C 0.375 -2.699219 0.59375 -3.285156 1.03125 -3.765625 C 1.476563 -4.242188 1.960938 -4.484375 2.484375 -4.484375 L 2.5 -4.484375 C 2.902344 -4.484375 3.253906 -4.324219 3.546875 -4.015625 C 3.847656 -3.710938 4 -3.363281 4 -2.96875 C 4 -2.863281 3.980469 -2.789063 3.953125 -2.75 C 3.921875 -2.707031 3.855469 -2.675781 3.765625 -2.65625 C 3.410156 -2.582031 2.539063 -2.523438 1.15625 -2.484375 C 1.15625 -1.847656 1.304688 -1.367188 1.609375 -1.046875 C 1.910156 -0.722656 2.257813 -0.5625 2.65625 -0.5625 C 3.058594 -0.5625 3.441406 -0.726563 3.796875 -1.0625 Z M 2.25 -4.125 C 2.019531 -4.125 1.804688 -4.011719 1.609375 -3.796875 C 1.410156 -3.578125 1.273438 -3.273438 1.203125 -2.890625 C 1.753906 -2.890625 2.320313 -2.898438 2.90625 -2.921875 C 2.996094 -2.921875 3.0625 -2.9375 3.09375 -2.96875 C 3.121094 -2.996094 3.140625 -3.050781 3.140625 -3.125 C 3.148438 -3.394531 3.070313 -3.628906 2.90625 -3.828125 C 2.738281 -4.023438 2.519531 -4.125 2.25 -4.125 Z M 2.25 -4.125 "/>
</symbol>
<symbol overflow="visible" id="svg83glyph0-2">
<path style="stroke:none;" d="M 5.34375 -2.296875 L 3.234375 -2.296875 L 3.234375 0.03125 L 2.65625 0.03125 L 2.65625 -2.296875 L 0.515625 -2.296875 L 0.515625 -2.796875 L 2.65625 -2.796875 L 2.65625 -4.90625 L 3.234375 -4.90625 L 3.234375 -2.796875 L 5.34375 -2.796875 Z M 5.34375 -2.296875 "/>
</symbol>
<symbol overflow="visible" id="svg83glyph0-3">
<path style="stroke:none;" d="M 4.125 -1.40625 L 4.40625 -1.3125 C 4.40625 -1.300781 4.285156 -0.863281 4.046875 0 L 0.3125 0 L 0.3125 -0.234375 C 1.058594 -0.972656 1.601563 -1.539063 1.9375 -1.9375 C 2.320313 -2.394531 2.625 -2.8125 2.84375 -3.1875 C 3.070313 -3.570313 3.1875 -3.957031 3.1875 -4.34375 C 3.1875 -4.769531 3.082031 -5.097656 2.875 -5.328125 C 2.664063 -5.566406 2.378906 -5.6875 2.015625 -5.6875 C 1.515625 -5.6875 1.054688 -5.371094 0.640625 -4.75 L 0.421875 -4.953125 L 0.984375 -5.765625 C 1.355469 -6.148438 1.8125 -6.34375 2.34375 -6.34375 C 2.800781 -6.34375 3.191406 -6.183594 3.515625 -5.875 C 3.847656 -5.570313 4.015625 -5.164063 4.015625 -4.65625 C 4.015625 -4.25 3.914063 -3.867188 3.71875 -3.515625 C 3.53125 -3.171875 3.191406 -2.738281 2.703125 -2.21875 L 1.296875 -0.734375 L 3.15625 -0.734375 C 3.425781 -0.734375 3.617188 -0.765625 3.734375 -0.828125 C 3.847656 -0.898438 3.976563 -1.09375 4.125 -1.40625 Z M 4.125 -1.40625 "/>
</symbol>
<symbol overflow="visible" id="svg83glyph0-4">
<path style="stroke:none;" d="M 2.484375 -6.34375 C 2.949219 -6.34375 3.335938 -6.195313 3.640625 -5.90625 C 3.949219 -5.625 4.109375 -5.277344 4.109375 -4.875 C 4.109375 -4.5625 4.011719 -4.289063 3.828125 -4.0625 C 3.679688 -3.894531 3.414063 -3.683594 3.03125 -3.4375 C 3.445313 -3.195313 3.769531 -2.941406 4 -2.671875 C 4.226563 -2.410156 4.34375 -2.082031 4.34375 -1.6875 C 4.34375 -1.144531 4.132813 -0.707031 3.71875 -0.375 C 3.300781 -0.0390625 2.851563 0.125 2.375 0.125 C 1.820313 0.125 1.363281 -0.0234375 1 -0.328125 C 0.632813 -0.636719 0.453125 -1.050781 0.453125 -1.5625 C 0.453125 -1.914063 0.601563 -2.234375 0.90625 -2.515625 C 1.089844 -2.699219 1.390625 -2.914063 1.796875 -3.15625 C 1.066406 -3.570313 0.703125 -4.085938 0.703125 -4.703125 C 0.703125 -5.148438 0.867188 -5.535156 1.203125 -5.859375 C 1.535156 -6.179688 1.960938 -6.34375 2.484375 -6.34375 Z M 2.375 -6.03125 C 2.09375 -6.03125 1.867188 -5.925781 1.703125 -5.71875 C 1.535156 -5.507813 1.453125 -5.269531 1.453125 -5 C 1.453125 -4.664063 1.554688 -4.398438 1.765625 -4.203125 C 1.980469 -4.003906 2.316406 -3.792969 2.765625 -3.578125 C 3.167969 -3.898438 3.375 -4.3125 3.375 -4.8125 C 3.375 -5.207031 3.273438 -5.507813 3.078125 -5.71875 C 2.878906 -5.925781 2.644531 -6.03125 2.375 -6.03125 Z M 2.484375 -0.203125 C 2.785156 -0.203125 3.035156 -0.3125 3.234375 -0.53125 C 3.441406 -0.757813 3.546875 -1.0625 3.546875 -1.4375 C 3.546875 -1.769531 3.414063 -2.050781 3.15625 -2.28125 C 2.894531 -2.519531 2.527344 -2.757813 2.0625 -3 C 1.519531 -2.632813 1.25 -2.175781 1.25 -1.625 C 1.25 -1.175781 1.363281 -0.824219 1.59375 -0.578125 C 1.832031 -0.328125 2.128906 -0.203125 2.484375 -0.203125 Z M 2.484375 -0.203125 "/>
</symbol>
<symbol overflow="visible" id="svg83glyph0-5">
<path style="stroke:none;" d="M 7.1875 -6.5 L 7.1875 -6.21875 C 6.90625 -6.207031 6.695313 -6.152344 6.5625 -6.0625 C 6.4375 -5.976563 6.363281 -5.832031 6.34375 -5.625 C 6.3125 -5.3125 6.296875 -4.746094 6.296875 -3.9375 L 6.296875 0.09375 L 5.984375 0.09375 L 1.71875 -5.15625 L 1.703125 -5.15625 L 1.703125 -2.640625 C 1.703125 -1.898438 1.722656 -1.335938 1.765625 -0.953125 C 1.785156 -0.703125 1.863281 -0.527344 2 -0.4375 C 2.132813 -0.351563 2.375 -0.300781 2.71875 -0.28125 L 2.71875 0 L 0.34375 0 L 0.34375 -0.28125 C 0.644531 -0.289063 0.859375 -0.34375 0.984375 -0.4375 C 1.117188 -0.527344 1.203125 -0.695313 1.234375 -0.9375 C 1.273438 -1.339844 1.296875 -1.910156 1.296875 -2.640625 L 1.296875 -4.84375 C 1.296875 -5.195313 1.285156 -5.421875 1.265625 -5.515625 C 1.242188 -5.617188 1.183594 -5.726563 1.09375 -5.84375 C 0.988281 -5.976563 0.871094 -6.066406 0.75 -6.109375 C 0.625 -6.160156 0.441406 -6.195313 0.203125 -6.21875 L 0.203125 -6.5 L 1.671875 -6.5 L 5.84375 -1.484375 L 5.875 -1.484375 L 5.875 -3.9375 C 5.875 -4.714844 5.851563 -5.269531 5.8125 -5.59375 C 5.78125 -5.820313 5.695313 -5.976563 5.5625 -6.0625 C 5.425781 -6.152344 5.179688 -6.207031 4.828125 -6.21875 L 4.828125 -6.5 Z M 7.1875 -6.5 "/>
</symbol>
<symbol overflow="visible" id="svg83glyph0-6">
<path style="stroke:none;" d="M 7.296875 -6.5 L 7.296875 -6.21875 C 6.878906 -6.1875 6.621094 -6.117188 6.53125 -6.015625 C 6.4375 -5.921875 6.390625 -5.667969 6.390625 -5.265625 L 6.390625 -1.234375 C 6.390625 -0.816406 6.429688 -0.558594 6.515625 -0.46875 C 6.605469 -0.375 6.863281 -0.308594 7.28125 -0.28125 L 7.28125 0 L 4.59375 0 L 4.59375 -0.28125 C 5.027344 -0.308594 5.296875 -0.375 5.390625 -0.46875 C 5.492188 -0.558594 5.546875 -0.816406 5.546875 -1.234375 L 5.546875 -3.21875 L 2.125 -3.21875 L 2.125 -1.234375 C 2.125 -0.816406 2.171875 -0.558594 2.265625 -0.46875 C 2.355469 -0.375 2.613281 -0.308594 3.03125 -0.28125 L 3.03125 0 L 0.40625 0 L 0.40625 -0.28125 C 0.808594 -0.308594 1.054688 -0.375 1.140625 -0.46875 C 1.230469 -0.558594 1.28125 -0.816406 1.28125 -1.234375 L 1.28125 -5.265625 C 1.28125 -5.679688 1.230469 -5.9375 1.140625 -6.03125 C 1.046875 -6.121094 0.789063 -6.1875 0.375 -6.21875 L 0.375 -6.5 L 2.96875 -6.5 L 2.96875 -6.21875 C 2.582031 -6.1875 2.339844 -6.121094 2.25 -6.03125 C 2.164063 -5.9375 2.125 -5.679688 2.125 -5.265625 L 2.125 -3.65625 L 5.546875 -3.65625 L 5.546875 -5.265625 C 5.546875 -5.667969 5.496094 -5.921875 5.40625 -6.015625 C 5.3125 -6.117188 5.070313 -6.1875 4.6875 -6.21875 L 4.6875 -6.5 Z M 7.296875 -6.5 "/>
</symbol>
<symbol overflow="visible" id="svg83glyph0-7">
<path style="stroke:none;" d="M 4.5625 -1.78125 L 3.59375 -1.78125 L 3.59375 -1.0625 C 3.59375 -0.71875 3.632813 -0.503906 3.71875 -0.421875 C 3.800781 -0.347656 4.046875 -0.292969 4.453125 -0.265625 L 4.453125 0 L 1.890625 0 L 1.890625 -0.265625 C 2.324219 -0.292969 2.585938 -0.351563 2.671875 -0.4375 C 2.753906 -0.519531 2.796875 -0.726563 2.796875 -1.0625 L 2.796875 -1.78125 L 0.203125 -1.78125 L 0.203125 -2.0625 C 1.410156 -3.863281 2.410156 -5.28125 3.203125 -6.3125 L 3.59375 -6.3125 L 3.59375 -2.25 L 4.5625 -2.25 Z M 2.796875 -2.25 L 2.796875 -5.203125 L 2.78125 -5.203125 C 2.0625 -4.210938 1.402344 -3.226563 0.8125 -2.25 Z M 2.796875 -2.25 "/>
</symbol>
<symbol overflow="visible" id="svg83glyph0-8">
<path style="stroke:none;" d="M 3.8125 -6.65625 C 4.683594 -6.65625 5.441406 -6.339844 6.078125 -5.71875 C 6.710938 -5.101563 7.03125 -4.304688 7.03125 -3.328125 C 7.03125 -2.273438 6.707031 -1.429688 6.0625 -0.796875 C 5.425781 -0.160156 4.632813 0.15625 3.6875 0.15625 C 2.769531 0.15625 1.996094 -0.160156 1.375 -0.796875 C 0.75 -1.429688 0.4375 -2.226563 0.4375 -3.1875 C 0.4375 -4.121094 0.742188 -4.9375 1.359375 -5.625 C 1.980469 -6.308594 2.800781 -6.65625 3.8125 -6.65625 Z M 3.59375 -6.296875 C 3 -6.296875 2.492188 -6.042969 2.078125 -5.546875 C 1.660156 -5.046875 1.453125 -4.347656 1.453125 -3.453125 C 1.453125 -2.515625 1.679688 -1.738281 2.140625 -1.125 C 2.605469 -0.507813 3.195313 -0.203125 3.90625 -0.203125 C 4.496094 -0.203125 5 -0.445313 5.40625 -0.9375 C 5.808594 -1.433594 6.015625 -2.144531 6.015625 -3.0625 C 6.015625 -4.070313 5.777344 -4.863281 5.3125 -5.4375 C 4.851563 -6.007813 4.277344 -6.296875 3.59375 -6.296875 Z M 3.59375 -6.296875 "/>
</symbol>
<symbol overflow="visible" id="svg83glyph0-9">
<path style="stroke:none;" d="M 15.375 -2.546875 C 14.894531 -2.140625 14.273438 -1.519531 13.515625 -0.6875 L 13.296875 -0.828125 L 14.3125 -2.296875 L 0.6875 -2.296875 L 0.6875 -2.796875 L 14.3125 -2.796875 L 13.296875 -4.265625 L 13.515625 -4.421875 C 14.273438 -3.585938 14.894531 -2.960938 15.375 -2.546875 Z M 15.375 -2.546875 "/>
</symbol>
<symbol overflow="visible" id="svg83svg83glyph0-10">
<path style="stroke:none;" d="M 1.125 0.125 C 0.96875 0.125 0.835938 0.0703125 0.734375 -0.03125 C 0.628906 -0.144531 0.578125 -0.285156 0.578125 -0.453125 C 0.578125 -0.617188 0.628906 -0.753906 0.734375 -0.859375 C 0.847656 -0.972656 0.984375 -1.03125 1.140625 -1.03125 C 1.292969 -1.03125 1.425781 -0.972656 1.53125 -0.859375 C 1.644531 -0.753906 1.703125 -0.617188 1.703125 -0.453125 C 1.703125 -0.285156 1.644531 -0.144531 1.53125 -0.03125 C 1.425781 0.0703125 1.289063 0.125 1.125 0.125 Z M 1.125 0.125 "/>
</symbol>
<symbol overflow="visible" id="svg83glyph1-0">
<path style="stroke:none;" d="M 2.890625 -0.984375 L 3.078125 -0.921875 C 3.078125 -0.910156 2.992188 -0.601563 2.828125 0 L 0.21875 0 L 0.21875 -0.15625 C 0.746094 -0.675781 1.125 -1.070313 1.34375 -1.34375 C 1.621094 -1.675781 1.835938 -1.972656 1.984375 -2.234375 C 2.136719 -2.503906 2.21875 -2.773438 2.21875 -3.046875 C 2.21875 -3.335938 2.144531 -3.5625 2 -3.71875 C 1.863281 -3.882813 1.664063 -3.96875 1.40625 -3.96875 C 1.050781 -3.96875 0.730469 -3.753906 0.453125 -3.328125 L 0.296875 -3.46875 L 0.6875 -4.03125 C 0.945313 -4.300781 1.265625 -4.4375 1.640625 -4.4375 C 1.960938 -4.4375 2.238281 -4.324219 2.46875 -4.109375 C 2.695313 -3.898438 2.8125 -3.617188 2.8125 -3.265625 C 2.8125 -2.972656 2.742188 -2.699219 2.609375 -2.453125 C 2.472656 -2.210938 2.230469 -1.910156 1.890625 -1.546875 L 0.90625 -0.515625 L 2.203125 -0.515625 C 2.398438 -0.515625 2.535156 -0.535156 2.609375 -0.578125 C 2.691406 -0.628906 2.785156 -0.765625 2.890625 -0.984375 Z M 2.890625 -0.984375 "/>
</symbol>
<symbol overflow="visible" id="svg83glyph1-1">
<path style="stroke:none;" d="M 3.75 -1.609375 L 2.265625 -1.609375 L 2.265625 0.015625 L 1.859375 0.015625 L 1.859375 -1.609375 L 0.359375 -1.609375 L 0.359375 -1.953125 L 1.859375 -1.953125 L 1.859375 -3.4375 L 2.265625 -3.4375 L 2.265625 -1.953125 L 3.75 -1.953125 Z M 3.75 -1.609375 "/>
</symbol>
<symbol overflow="visible" id="svg83glyph1-2">
<path style="stroke:none;" d="M 2.09375 1.03125 L 1.96875 1.1875 C 1.476563 0.851563 1.105469 0.417969 0.859375 -0.109375 C 0.609375 -0.636719 0.484375 -1.234375 0.484375 -1.890625 C 0.484375 -2.542969 0.609375 -3.132813 0.859375 -3.65625 C 1.105469 -4.183594 1.476563 -4.625 1.96875 -4.96875 L 2.09375 -4.796875 C 1.75 -4.515625 1.476563 -4.113281 1.28125 -3.59375 C 1.09375 -3.070313 1 -2.503906 1 -1.890625 C 1 -1.285156 1.09375 -0.714844 1.28125 -0.1875 C 1.476563 0.332031 1.75 0.738281 2.09375 1.03125 Z M 2.09375 1.03125 "/>
</symbol>
<symbol overflow="visible" id="svg83glyph1-3">
<path style="stroke:none;" d="M 3.03125 -0.265625 L 2.4375 0.078125 C 2.3125 0.078125 2.199219 0.0273438 2.109375 -0.0625 C 2.035156 -0.132813 1.976563 -0.234375 1.9375 -0.359375 C 1.914063 -0.347656 1.855469 -0.308594 1.765625 -0.25 C 1.679688 -0.1875 1.617188 -0.136719 1.578125 -0.109375 C 1.546875 -0.0859375 1.492188 -0.0546875 1.421875 -0.015625 C 1.347656 0.0117188 1.285156 0.0351563 1.234375 0.046875 C 1.191406 0.0664063 1.148438 0.078125 1.109375 0.078125 C 0.867188 0.078125 0.664063 -0.00390625 0.5 -0.171875 C 0.34375 -0.335938 0.265625 -0.535156 0.265625 -0.765625 C 0.265625 -1.097656 0.457031 -1.332031 0.84375 -1.46875 C 1.433594 -1.664063 1.796875 -1.816406 1.921875 -1.921875 L 1.921875 -2.03125 C 1.921875 -2.289063 1.867188 -2.488281 1.765625 -2.625 C 1.660156 -2.757813 1.511719 -2.828125 1.328125 -2.828125 C 1.203125 -2.828125 1.097656 -2.777344 1.015625 -2.6875 C 0.929688 -2.601563 0.863281 -2.449219 0.8125 -2.234375 C 0.78125 -2.128906 0.710938 -2.078125 0.609375 -2.078125 C 0.535156 -2.078125 0.464844 -2.101563 0.40625 -2.15625 C 0.34375 -2.214844 0.3125 -2.285156 0.3125 -2.359375 C 0.3125 -2.441406 0.382813 -2.539063 0.53125 -2.65625 C 0.644531 -2.738281 0.800781 -2.832031 1 -2.9375 C 1.207031 -3.039063 1.398438 -3.109375 1.578125 -3.140625 C 1.804688 -3.140625 2 -3.074219 2.15625 -2.953125 C 2.363281 -2.773438 2.46875 -2.488281 2.46875 -2.09375 L 2.46875 -0.796875 C 2.46875 -0.515625 2.546875 -0.375 2.703125 -0.375 C 2.785156 -0.375 2.875 -0.398438 2.96875 -0.453125 Z M 1.921875 -0.59375 L 1.921875 -1.6875 C 1.867188 -1.65625 1.753906 -1.597656 1.578125 -1.515625 C 1.410156 -1.441406 1.316406 -1.398438 1.296875 -1.390625 C 1.148438 -1.316406 1.039063 -1.238281 0.96875 -1.15625 C 0.90625 -1.082031 0.875 -0.988281 0.875 -0.875 C 0.875 -0.707031 0.925781 -0.574219 1.03125 -0.484375 C 1.132813 -0.390625 1.242188 -0.34375 1.359375 -0.34375 C 1.449219 -0.34375 1.550781 -0.363281 1.65625 -0.40625 C 1.757813 -0.457031 1.847656 -0.519531 1.921875 -0.59375 Z M 1.921875 -0.59375 "/>
</symbol>
<symbol overflow="visible" id="svg83glyph1-4">
<path style="stroke:none;" d="M 3.609375 1.6875 L 1.921875 1.6875 L 1.921875 1.484375 C 2.191406 1.472656 2.359375 1.433594 2.421875 1.375 C 2.480469 1.3125 2.515625 1.152344 2.515625 0.90625 L 2.515625 -0.203125 L 1.765625 0.078125 C 1.296875 0.078125 0.925781 -0.0664063 0.65625 -0.359375 C 0.394531 -0.660156 0.265625 -1 0.265625 -1.375 C 0.265625 -1.871094 0.453125 -2.296875 0.828125 -2.640625 C 1.210938 -2.980469 1.648438 -3.148438 2.140625 -3.140625 C 2.367188 -3.117188 2.53125 -3.085938 2.625 -3.046875 C 2.707031 -3.023438 2.769531 -3.015625 2.8125 -3.015625 C 2.871094 -3.015625 2.957031 -3.039063 3.0625 -3.09375 L 3.09375 -3.078125 C 3.070313 -2.773438 3.0625 -2.523438 3.0625 -2.328125 L 3.0625 0.921875 C 3.0625 1.160156 3.085938 1.304688 3.140625 1.359375 C 3.199219 1.417969 3.359375 1.460938 3.609375 1.484375 Z M 2.515625 -0.421875 L 2.515625 -2.5625 C 2.429688 -2.644531 2.324219 -2.710938 2.203125 -2.765625 C 2.078125 -2.824219 1.949219 -2.859375 1.828125 -2.859375 C 1.578125 -2.859375 1.355469 -2.746094 1.171875 -2.53125 C 0.984375 -2.3125 0.890625 -2.003906 0.890625 -1.609375 C 0.890625 -1.210938 1 -0.894531 1.21875 -0.65625 C 1.445313 -0.425781 1.707031 -0.3125 2 -0.3125 C 2.183594 -0.3125 2.359375 -0.347656 2.515625 -0.421875 Z M 2.515625 -0.421875 "/>
</symbol>
<symbol overflow="visible" id="svg83glyph1-5">
<path style="stroke:none;" d="M 0.453125 -4.96875 C 1.429688 -4.300781 1.921875 -3.273438 1.921875 -1.890625 C 1.921875 -0.503906 1.429688 0.519531 0.453125 1.1875 L 0.3125 1.03125 C 0.664063 0.738281 0.9375 0.332031 1.125 -0.1875 C 1.320313 -0.707031 1.421875 -1.273438 1.421875 -1.890625 C 1.421875 -2.503906 1.320313 -3.070313 1.125 -3.59375 C 0.925781 -4.113281 0.652344 -4.515625 0.3125 -4.796875 Z M 0.453125 -4.96875 "/>
</symbol>
<symbol overflow="visible" id="svg83glyph1-6">
<path style="stroke:none;" d="M 2 -2.640625 L 2 -2.625 C 2.300781 -2.570313 2.535156 -2.445313 2.703125 -2.25 C 2.878906 -2.050781 2.96875 -1.820313 2.96875 -1.5625 C 2.96875 -1.300781 2.894531 -1.054688 2.75 -0.828125 C 2.613281 -0.609375 2.441406 -0.433594 2.234375 -0.3125 C 2.035156 -0.1875 1.835938 -0.0859375 1.640625 -0.015625 C 1.441406 0.0429688 1.273438 0.078125 1.140625 0.078125 C 0.992188 0.078125 0.851563 0.0507813 0.71875 0 C 0.582031 -0.0390625 0.488281 -0.09375 0.4375 -0.15625 C 0.34375 -0.238281 0.304688 -0.320313 0.328125 -0.40625 C 0.328125 -0.476563 0.378906 -0.554688 0.484375 -0.640625 C 0.542969 -0.679688 0.601563 -0.679688 0.65625 -0.640625 C 0.925781 -0.398438 1.210938 -0.28125 1.515625 -0.28125 C 1.773438 -0.28125 1.976563 -0.375 2.125 -0.5625 C 2.277344 -0.746094 2.359375 -1.007813 2.359375 -1.34375 C 2.359375 -1.644531 2.261719 -1.867188 2.078125 -2.015625 C 1.898438 -2.167969 1.699219 -2.25 1.484375 -2.25 C 1.347656 -2.25 1.195313 -2.222656 1.03125 -2.171875 L 0.984375 -2.375 C 1.347656 -2.488281 1.625 -2.617188 1.8125 -2.765625 C 1.996094 -2.917969 2.09375 -3.117188 2.09375 -3.359375 C 2.09375 -3.574219 2.027344 -3.742188 1.90625 -3.859375 C 1.789063 -3.972656 1.632813 -4.03125 1.4375 -4.03125 C 1.125 -4.03125 0.839844 -3.839844 0.59375 -3.46875 L 0.453125 -3.609375 L 0.75 -4.046875 C 0.988281 -4.304688 1.285156 -4.4375 1.640625 -4.4375 L 1.65625 -4.4375 C 1.957031 -4.4375 2.203125 -4.347656 2.390625 -4.171875 C 2.585938 -4.003906 2.6875 -3.785156 2.6875 -3.515625 C 2.6875 -3.328125 2.613281 -3.164063 2.46875 -3.03125 C 2.363281 -2.914063 2.207031 -2.785156 2 -2.640625 Z M 2 -2.640625 "/>
</symbol>
<symbol overflow="visible" id="svg83glyph1-7">
<path style="stroke:none;" d="M 3.1875 -1.25 L 2.515625 -1.25 L 2.515625 -0.734375 C 2.515625 -0.503906 2.539063 -0.355469 2.59375 -0.296875 C 2.652344 -0.242188 2.828125 -0.207031 3.109375 -0.1875 L 3.109375 0 L 1.328125 0 L 1.328125 -0.1875 C 1.628906 -0.207031 1.804688 -0.242188 1.859375 -0.296875 C 1.917969 -0.355469 1.953125 -0.503906 1.953125 -0.734375 L 1.953125 -1.25 L 0.140625 -1.25 L 0.140625 -1.4375 C 0.980469 -2.707031 1.679688 -3.703125 2.234375 -4.421875 L 2.515625 -4.421875 L 2.515625 -1.578125 L 3.1875 -1.578125 Z M 1.953125 -1.578125 L 1.953125 -3.640625 C 1.453125 -2.953125 0.992188 -2.261719 0.578125 -1.578125 Z M 1.953125 -1.578125 "/>
</symbol>
<symbol overflow="visible" id="svg83glyph1-8">
<path style="stroke:none;" d="M 2.234375 -2.28125 L 2.0625 -2.21875 C 1.90625 -2.683594 1.664063 -2.921875 1.34375 -2.921875 C 1.207031 -2.921875 1.089844 -2.871094 1 -2.78125 C 0.914063 -2.6875 0.875 -2.566406 0.875 -2.421875 C 0.875 -2.285156 0.925781 -2.167969 1.03125 -2.078125 C 1.132813 -1.992188 1.28125 -1.910156 1.46875 -1.828125 C 1.757813 -1.710938 1.976563 -1.582031 2.125 -1.4375 C 2.277344 -1.289063 2.359375 -1.101563 2.359375 -0.875 C 2.359375 -0.582031 2.238281 -0.347656 2 -0.171875 C 1.769531 -0.00390625 1.503906 0.078125 1.203125 0.078125 C 1.035156 0.078125 0.871094 0.0507813 0.71875 0 C 0.570313 -0.0390625 0.464844 -0.09375 0.40625 -0.15625 C 0.382813 -0.207031 0.355469 -0.328125 0.328125 -0.515625 C 0.296875 -0.699219 0.28125 -0.859375 0.28125 -0.984375 L 0.46875 -1.015625 C 0.539063 -0.765625 0.648438 -0.554688 0.796875 -0.390625 C 0.949219 -0.222656 1.128906 -0.140625 1.328125 -0.140625 C 1.460938 -0.140625 1.578125 -0.1875 1.671875 -0.28125 C 1.773438 -0.371094 1.828125 -0.492188 1.828125 -0.640625 C 1.828125 -0.785156 1.777344 -0.90625 1.6875 -1 C 1.59375 -1.089844 1.457031 -1.1875 1.28125 -1.28125 C 1.144531 -1.332031 1.035156 -1.378906 0.953125 -1.421875 C 0.867188 -1.472656 0.773438 -1.535156 0.671875 -1.609375 C 0.578125 -1.691406 0.507813 -1.785156 0.46875 -1.890625 C 0.425781 -1.992188 0.40625 -2.109375 0.40625 -2.234375 C 0.40625 -2.480469 0.503906 -2.695313 0.703125 -2.875 C 0.898438 -3.050781 1.15625 -3.140625 1.46875 -3.140625 C 1.683594 -3.140625 1.890625 -3.097656 2.078125 -3.015625 C 2.105469 -2.941406 2.140625 -2.820313 2.171875 -2.65625 C 2.199219 -2.5 2.222656 -2.371094 2.234375 -2.28125 Z M 2.234375 -2.28125 "/>
</symbol>
</g>
</defs>
<g id="svg83_surface1">
<g style="fill:rgb(0%,0%,0%);fill-opacity:1;">
  <use xlink:href="#svg83glyph0-0" x="1.66" y="9.34"/>
  <use xlink:href="#svg83glyph0-1" x="6.930427" y="9.34"/>
</g>
<g style="fill:rgb(0%,0%,0%);fill-opacity:1;">
  <use xlink:href="#svg83glyph1-0" x="11.16" y="4.55"/>
  <use xlink:href="#svg83glyph1-1" x="14.60304" y="4.55"/>
</g>
<g style="fill:rgb(0%,0%,0%);fill-opacity:1;">
  <use xlink:href="#svg83glyph1-2" x="11.16" y="11.73"/>
  <use xlink:href="#svg83glyph1-3" x="13.641858" y="11.73"/>
  <use xlink:href="#svg83glyph1-4" x="16.790805" y="11.73"/>
  <use xlink:href="#svg83glyph1-5" x="20.456208" y="11.73"/>
</g>
<g style="fill:rgb(0%,0%,0%);fill-opacity:1;">
  <use xlink:href="#svg83glyph0-2" x="25.66" y="9.34"/>
</g>
<g style="fill:rgb(0%,0%,0%);fill-opacity:1;">
  <use xlink:href="#svg83glyph0-3" x="33.710104" y="9.34"/>
  <use xlink:href="#svg83glyph0-0" x="38.492344" y="9.34"/>
  <use xlink:href="#svg83glyph0-1" x="43.762771" y="9.34"/>
</g>
<g style="fill:rgb(0%,0%,0%);fill-opacity:1;">
  <use xlink:href="#svg83glyph1-6" x="48" y="4.55"/>
  <use xlink:href="#svg83glyph1-1" x="51.44304" y="4.55"/>
</g>
<g style="fill:rgb(0%,0%,0%);fill-opacity:1;">
  <use xlink:href="#svg83glyph1-2" x="48" y="11.73"/>
  <use xlink:href="#svg83glyph1-3" x="50.481858" y="11.73"/>
  <use xlink:href="#svg83glyph1-4" x="53.630805" y="11.73"/>
  <use xlink:href="#svg83glyph1-5" x="57.296208" y="11.73"/>
</g>
<g style="fill:rgb(0%,0%,0%);fill-opacity:1;">
  <use xlink:href="#svg83glyph0-2" x="62.49" y="9.34"/>
</g>
<g style="fill:rgb(0%,0%,0%);fill-opacity:1;">
  <use xlink:href="#svg83glyph0-4" x="70.550067" y="9.34"/>
  <use xlink:href="#svg83glyph0-5" x="75.332307" y="9.34"/>
  <use xlink:href="#svg83glyph0-6" x="82.734816" y="9.34"/>
</g>
<g style="fill:rgb(0%,0%,0%);fill-opacity:1;">
  <use xlink:href="#svg83glyph1-6" x="90.37" y="11.73"/>
  <use xlink:href="#svg83glyph1-2" x="93.81304" y="11.73"/>
  <use xlink:href="#svg83glyph1-3" x="96.294898" y="11.73"/>
  <use xlink:href="#svg83glyph1-4" x="99.443845" y="11.73"/>
  <use xlink:href="#svg83glyph1-5" x="103.109248" y="11.73"/>
</g>
<g style="fill:rgb(0%,0%,0%);fill-opacity:1;">
  <use xlink:href="#svg83glyph0-2" x="108.3" y="9.34"/>
</g>
<g style="fill:rgb(0%,0%,0%);fill-opacity:1;">
  <use xlink:href="#svg83glyph0-7" x="116.360067" y="9.34"/>
  <use xlink:href="#svg83glyph0-6" x="121.142307" y="9.34"/>
</g>
<g style="fill:rgb(0%,0%,0%);fill-opacity:1;">
  <use xlink:href="#svg83glyph1-0" x="128.78" y="11.73"/>
</g>
<g style="fill:rgb(0%,0%,0%);fill-opacity:1;">
  <use xlink:href="#svg83glyph0-8" x="132.72" y="9.34"/>
  <use xlink:href="#svg83glyph0-9" x="140.162361" y="9.34"/>
</g>
<g style="fill:rgb(0%,0%,0%);fill-opacity:1;">
  <use xlink:href="#svg83glyph0-0" x="158.763282" y="9.34"/>
  <use xlink:href="#svg83glyph0-1" x="164.033709" y="9.34"/>
</g>
<g style="fill:rgb(0%,0%,0%);fill-opacity:1;">
  <use xlink:href="#svg83glyph1-6" x="168.28" y="11.73"/>
</g>
<g style="fill:rgb(0%,0%,0%);fill-opacity:1;">
  <use xlink:href="#svg83glyph0-8" x="172.22" y="9.34"/>
</g>
<g style="fill:rgb(0%,0%,0%);fill-opacity:1;">
  <use xlink:href="#svg83glyph1-7" x="179.66" y="11.73"/>
  <use xlink:href="#svg83glyph1-2" x="183.10304" y="11.73"/>
  <use xlink:href="#svg83glyph1-8" x="185.584898" y="11.73"/>
  <use xlink:href="#svg83glyph1-5" x="188.217389" y="11.73"/>
</g>
<g style="fill:rgb(0%,0%,0%);fill-opacity:1;">
  <use xlink:href="#svg83glyph0-2" x="193.41" y="9.34"/>
</g>
<g style="fill:rgb(0%,0%,0%);fill-opacity:1;">
  <use xlink:href="#svg83glyph0-4" x="201.470067" y="9.34"/>
  <use xlink:href="#svg83glyph0-5" x="206.252307" y="9.34"/>
  <use xlink:href="#svg83glyph0-6" x="213.654816" y="9.34"/>
</g>
<g style="fill:rgb(0%,0%,0%);fill-opacity:1;">
  <use xlink:href="#svg83glyph1-1" x="221.29" y="4.55"/>
</g>
<g style="fill:rgb(0%,0%,0%);fill-opacity:1;">
  <use xlink:href="#svg83glyph1-7" x="221.29" y="11.73"/>
  <use xlink:href="#svg83glyph1-2" x="224.73304" y="11.73"/>
  <use xlink:href="#svg83glyph1-3" x="227.214898" y="11.73"/>
  <use xlink:href="#svg83glyph1-4" x="230.363845" y="11.73"/>
  <use xlink:href="#svg83glyph1-5" x="234.029248" y="11.73"/>
</g>
<g style="fill:rgb(0%,0%,0%);fill-opacity:1;">
  <use xlink:href="#svg83svg83glyph0-10" x="237.01" y="9.34"/>
</g>
</g>
</svg>