<?xml version="1.0" encoding="UTF-8"?>
<svg xmlns="http://www.w3.org/2000/svg" xmlns:xlink="http://www.w3.org/1999/xlink" width="129.05pt" height="11.96pt" viewBox="0 0 129.05 11.96" version="1.1">
<defs>
<g>
<symbol overflow="visible" id="svg44glyph0-0">
<path style="stroke:none;" d="M 6.3125 -0.1875 L 6.265625 0.078125 C 6.109375 0.078125 5.992188 0.0703125 5.921875 0.0625 C 5.535156 0.0507813 5.222656 -0.0195313 4.984375 -0.15625 C 4.753906 -0.289063 4.523438 -0.519531 4.296875 -0.84375 C 4.160156 -1.039063 3.824219 -1.570313 3.296875 -2.4375 C 3.203125 -2.582031 3.097656 -2.6875 2.984375 -2.75 C 2.867188 -2.808594 2.683594 -2.84375 2.4375 -2.84375 L 2.125 -2.84375 L 2.125 -1.25 C 2.125 -0.832031 2.171875 -0.570313 2.265625 -0.46875 C 2.355469 -0.375 2.601563 -0.308594 3 -0.28125 L 3 0 L 0.375 0 L 0.375 -0.28125 C 0.789063 -0.308594 1.046875 -0.375 1.140625 -0.46875 C 1.230469 -0.570313 1.28125 -0.832031 1.28125 -1.25 L 1.28125 -5.265625 C 1.28125 -5.679688 1.230469 -5.9375 1.140625 -6.03125 C 1.054688 -6.121094 0.816406 -6.1875 0.421875 -6.21875 L 0.421875 -6.5 L 2.90625 -6.5 C 3.621094 -6.5 4.148438 -6.382813 4.484375 -6.15625 C 4.929688 -5.875 5.15625 -5.433594 5.15625 -4.84375 C 5.15625 -4.082031 4.730469 -3.507813 3.890625 -3.125 C 4.066406 -2.78125 4.363281 -2.300781 4.78125 -1.6875 C 5.101563 -1.21875 5.375 -0.871094 5.59375 -0.65625 C 5.800781 -0.414063 6.039063 -0.257813 6.3125 -0.1875 Z M 2.125 -3.15625 L 2.59375 -3.15625 C 3.082031 -3.15625 3.445313 -3.253906 3.6875 -3.453125 C 4.050781 -3.730469 4.234375 -4.144531 4.234375 -4.6875 C 4.234375 -5.195313 4.089844 -5.570313 3.8125 -5.8125 C 3.53125 -6.050781 3.179688 -6.171875 2.765625 -6.171875 C 2.492188 -6.171875 2.316406 -6.132813 2.234375 -6.0625 C 2.160156 -6.019531 2.125 -5.871094 2.125 -5.625 Z M 2.125 -3.15625 "/>
</symbol>
<symbol overflow="visible" id="svg44glyph0-1">
<path style="stroke:none;" d="M 7.1875 -6.5 L 7.1875 -6.21875 C 6.90625 -6.207031 6.695313 -6.152344 6.5625 -6.0625 C 6.4375 -5.976563 6.363281 -5.832031 6.34375 -5.625 C 6.3125 -5.3125 6.296875 -4.746094 6.296875 -3.9375 L 6.296875 0.09375 L 5.984375 0.09375 L 1.71875 -5.15625 L 1.703125 -5.15625 L 1.703125 -2.640625 C 1.703125 -1.898438 1.722656 -1.335938 1.765625 -0.953125 C 1.785156 -0.703125 1.863281 -0.527344 2 -0.4375 C 2.132813 -0.351563 2.375 -0.300781 2.71875 -0.28125 L 2.71875 0 L 0.34375 0 L 0.34375 -0.28125 C 0.644531 -0.289063 0.859375 -0.34375 0.984375 -0.4375 C 1.117188 -0.527344 1.203125 -0.695313 1.234375 -0.9375 C 1.273438 -1.339844 1.296875 -1.910156 1.296875 -2.640625 L 1.296875 -4.84375 C 1.296875 -5.195313 1.285156 -5.421875 1.265625 -5.515625 C 1.242188 -5.617188 1.183594 -5.726563 1.09375 -5.84375 C 0.988281 -5.976563 0.871094 -6.066406 0.75 -6.109375 C 0.625 -6.160156 0.441406 -6.195313 0.203125 -6.21875 L 0.203125 -6.5 L 1.671875 -6.5 L 5.84375 -1.484375 L 5.875 -1.484375 L 5.875 -3.9375 C 5.875 -4.714844 5.851563 -5.269531 5.8125 -5.59375 C 5.78125 -5.820313 5.695313 -5.976563 5.5625 -6.0625 C 5.425781 -6.152344 5.179688 -6.207031 4.828125 -6.21875 L 4.828125 -6.5 Z M 7.1875 -6.5 "/>
</symbol>
<symbol overflow="visible" id="svg44glyph0-2">
<path style="stroke:none;" d="M 2.078125 -3.953125 C 2.179688 -3.847656 2.234375 -3.710938 2.234375 -3.546875 C 2.234375 -3.378906 2.179688 -3.238281 2.078125 -3.125 C 1.972656 -3.019531 1.835938 -2.96875 1.671875 -2.96875 C 1.515625 -2.96875 1.382813 -3.019531 1.28125 -3.125 C 1.175781 -3.238281 1.125 -3.378906 1.125 -3.546875 C 1.125 -3.710938 1.175781 -3.847656 1.28125 -3.953125 C 1.382813 -4.066406 1.515625 -4.125 1.671875 -4.125 C 1.835938 -4.125 1.972656 -4.066406 2.078125 -3.953125 Z M 2.234375 -0.453125 C 2.234375 -0.285156 2.175781 -0.144531 2.0625 -0.03125 C 1.957031 0.0703125 1.824219 0.125 1.671875 0.125 C 1.515625 0.125 1.382813 0.0703125 1.28125 -0.03125 C 1.175781 -0.144531 1.125 -0.285156 1.125 -0.453125 C 1.125 -0.617188 1.175781 -0.753906 1.28125 -0.859375 C 1.382813 -0.972656 1.515625 -1.03125 1.671875 -1.03125 C 1.824219 -1.03125 1.957031 -0.972656 2.0625 -0.859375 C 2.175781 -0.753906 2.234375 -0.617188 2.234375 -0.453125 Z M 2.234375 -0.453125 "/>
</symbol>
<symbol overflow="visible" id="svg44glyph0-3">
<path style="stroke:none;" d="M 5.34375 -2.296875 L 3.234375 -2.296875 L 3.234375 0.03125 L 2.65625 0.03125 L 2.65625 -2.296875 L 0.515625 -2.296875 L 0.515625 -2.796875 L 2.65625 -2.796875 L 2.65625 -4.90625 L 3.234375 -4.90625 L 3.234375 -2.796875 L 5.34375 -2.796875 Z M 5.34375 -2.296875 "/>
</symbol>
<symbol overflow="visible" id="svg44glyph0-4">
<path style="stroke:none;" d="M 7.296875 -6.5 L 7.296875 -6.21875 C 6.878906 -6.1875 6.621094 -6.117188 6.53125 -6.015625 C 6.4375 -5.921875 6.390625 -5.667969 6.390625 -5.265625 L 6.390625 -1.234375 C 6.390625 -0.816406 6.429688 -0.558594 6.515625 -0.46875 C 6.605469 -0.375 6.863281 -0.308594 7.28125 -0.28125 L 7.28125 0 L 4.59375 0 L 4.59375 -0.28125 C 5.027344 -0.308594 5.296875 -0.375 5.390625 -0.46875 C 5.492188 -0.558594 5.546875 -0.816406 5.546875 -1.234375 L 5.546875 -3.21875 L 2.125 -3.21875 L 2.125 -1.234375 C 2.125 -0.816406 2.171875 -0.558594 2.265625 -0.46875 C 2.355469 -0.375 2.613281 -0.308594 3.03125 -0.28125 L 3.03125 0 L 0.40625 0 L 0.40625 -0.28125 C 0.808594 -0.308594 1.054688 -0.375 1.140625 -0.46875 C 1.230469 -0.558594 1.28125 -0.816406 1.28125 -1.234375 L 1.28125 -5.265625 C 1.28125 -5.679688 1.230469 -5.9375 1.140625 -6.03125 C 1.046875 -6.121094 0.789063 -6.1875 0.375 -6.21875 L 0.375 -6.5 L 2.96875 -6.5 L 2.96875 -6.21875 C 2.582031 -6.1875 2.339844 -6.121094 2.25 -6.03125 C 2.164063 -5.9375 2.125 -5.679688 2.125 -5.265625 L 2.125 -3.65625 L 5.546875 -3.65625 L 5.546875 -5.265625 C 5.546875 -5.667969 5.496094 -5.921875 5.40625 -6.015625 C 5.3125 -6.117188 5.070313 -6.1875 4.6875 -6.21875 L 4.6875 -6.5 Z M 7.296875 -6.5 "/>
</symbol>
<symbol overflow="visible" id="svg44glyph0-5">
<path style="stroke:none;" d="M 3.8125 -6.65625 C 4.683594 -6.65625 5.441406 -6.339844 6.078125 -5.71875 C 6.710938 -5.101563 7.03125 -4.304688 7.03125 -3.328125 C 7.03125 -2.273438 6.707031 -1.429688 6.0625 -0.796875 C 5.425781 -0.160156 4.632813 0.15625 3.6875 0.15625 C 2.769531 0.15625 1.996094 -0.160156 1.375 -0.796875 C 0.75 -1.429688 0.4375 -2.226563 0.4375 -3.1875 C 0.4375 -4.121094 0.742188 -4.9375 1.359375 -5.625 C 1.980469 -6.308594 2.800781 -6.65625 3.8125 -6.65625 Z M 3.59375 -6.296875 C 3 -6.296875 2.492188 -6.042969 2.078125 -5.546875 C 1.660156 -5.046875 1.453125 -4.347656 1.453125 -3.453125 C 1.453125 -2.515625 1.679688 -1.738281 2.140625 -1.125 C 2.605469 -0.507813 3.195313 -0.203125 3.90625 -0.203125 C 4.496094 -0.203125 5 -0.445313 5.40625 -0.9375 C 5.808594 -1.433594 6.015625 -2.144531 6.015625 -3.0625 C 6.015625 -4.070313 5.777344 -4.863281 5.3125 -5.4375 C 4.851563 -6.007813 4.277344 -6.296875 3.59375 -6.296875 Z M 3.59375 -6.296875 "/>
</symbol>
<symbol overflow="visible" id="svg44glyph0-6">
<path style="stroke:none;" d="M 9.015625 -3.875 C 8.640625 -3.570313 8.113281 -3.082031 7.4375 -2.40625 L 7.21875 -2.546875 L 8.015625 -3.625 L 0.6875 -3.625 L 0.6875 -4.125 L 8.015625 -4.125 L 7.21875 -5.1875 L 7.4375 -5.34375 C 8.113281 -4.65625 8.640625 -4.164063 9.015625 -3.875 Z M 8.84375 -0.984375 L 1.515625 -0.984375 L 2.3125 0.09375 L 2.09375 0.234375 C 1.425781 -0.441406 0.902344 -0.929688 0.53125 -1.234375 C 0.902344 -1.535156 1.425781 -2.023438 2.09375 -2.703125 L 2.3125 -2.546875 L 1.515625 -1.484375 L 8.84375 -1.484375 Z M 8.84375 -0.984375 "/>
</symbol>
<symbol overflow="visible" id="svg44glyph0-7">
<path style="stroke:none;" d="M 1.125 0.125 C 0.96875 0.125 0.835938 0.0703125 0.734375 -0.03125 C 0.628906 -0.144531 0.578125 -0.285156 0.578125 -0.453125 C 0.578125 -0.617188 0.628906 -0.753906 0.734375 -0.859375 C 0.847656 -0.972656 0.984375 -1.03125 1.140625 -1.03125 C 1.292969 -1.03125 1.425781 -0.972656 1.53125 -0.859375 C 1.644531 -0.753906 1.703125 -0.617188 1.703125 -0.453125 C 1.703125 -0.285156 1.644531 -0.144531 1.53125 -0.03125 C 1.425781 0.0703125 1.289063 0.125 1.125 0.125 Z M 1.125 0.125 "/>
</symbol>
<symbol overflow="visible" id="svg44glyph1-0">
<path style="stroke:none;" d="M 2 -2.640625 L 2 -2.625 C 2.300781 -2.570313 2.535156 -2.445313 2.703125 -2.25 C 2.878906 -2.050781 2.96875 -1.820313 2.96875 -1.5625 C 2.96875 -1.300781 2.894531 -1.054688 2.75 -0.828125 C 2.613281 -0.609375 2.441406 -0.433594 2.234375 -0.3125 C 2.035156 -0.1875 1.835938 -0.0859375 1.640625 -0.015625 C 1.441406 0.0429688 1.273438 0.078125 1.140625 0.078125 C 0.992188 0.078125 0.851563 0.0507813 0.71875 0 C 0.582031 -0.0390625 0.488281 -0.09375 0.4375 -0.15625 C 0.34375 -0.238281 0.304688 -0.320313 0.328125 -0.40625 C 0.328125 -0.476563 0.378906 -0.554688 0.484375 -0.640625 C 0.542969 -0.679688 0.601563 -0.679688 0.65625 -0.640625 C 0.925781 -0.398438 1.210938 -0.28125 1.515625 -0.28125 C 1.773438 -0.28125 1.976563 -0.375 2.125 -0.5625 C 2.277344 -0.746094 2.359375 -1.007813 2.359375 -1.34375 C 2.359375 -1.644531 2.261719 -1.867188 2.078125 -2.015625 C 1.898438 -2.167969 1.699219 -2.25 1.484375 -2.25 C 1.347656 -2.25 1.195313 -2.222656 1.03125 -2.171875 L 0.984375 -2.375 C 1.347656 -2.488281 1.625 -2.617188 1.8125 -2.765625 C 1.996094 -2.917969 2.09375 -3.117188 2.09375 -3.359375 C 2.09375 -3.574219 2.027344 -3.742188 1.90625 -3.859375 C 1.789063 -3.972656 1.632813 -4.03125 1.4375 -4.03125 C 1.125 -4.03125 0.839844 -3.839844 0.59375 -3.46875 L 0.453125 -3.609375 L 0.75 -4.046875 C 0.988281 -4.304688 1.285156 -4.4375 1.640625 -4.4375 L 1.65625 -4.4375 C 1.957031 -4.4375 2.203125 -4.347656 2.390625 -4.171875 C 2.585938 -4.003906 2.6875 -3.785156 2.6875 -3.515625 C 2.6875 -3.328125 2.613281 -3.164063 2.46875 -3.03125 C 2.363281 -2.914063 2.207031 -2.785156 2 -2.640625 Z M 2 -2.640625 "/>
</symbol>
<symbol overflow="visible" id="svg44glyph1-1">
<path style="stroke:none;" d="M 2.890625 -0.984375 L 3.078125 -0.921875 C 3.078125 -0.910156 2.992188 -0.601563 2.828125 0 L 0.21875 0 L 0.21875 -0.15625 C 0.746094 -0.675781 1.125 -1.070313 1.34375 -1.34375 C 1.621094 -1.675781 1.835938 -1.972656 1.984375 -2.234375 C 2.136719 -2.503906 2.21875 -2.773438 2.21875 -3.046875 C 2.21875 -3.335938 2.144531 -3.5625 2 -3.71875 C 1.863281 -3.882813 1.664063 -3.96875 1.40625 -3.96875 C 1.050781 -3.96875 0.730469 -3.753906 0.453125 -3.328125 L 0.296875 -3.46875 L 0.6875 -4.03125 C 0.945313 -4.300781 1.265625 -4.4375 1.640625 -4.4375 C 1.960938 -4.4375 2.238281 -4.324219 2.46875 -4.109375 C 2.695313 -3.898438 2.8125 -3.617188 2.8125 -3.265625 C 2.8125 -2.972656 2.742188 -2.699219 2.609375 -2.453125 C 2.472656 -2.210938 2.230469 -1.910156 1.890625 -1.546875 L 0.90625 -0.515625 L 2.203125 -0.515625 C 2.398438 -0.515625 2.535156 -0.535156 2.609375 -0.578125 C 2.691406 -0.628906 2.785156 -0.765625 2.890625 -0.984375 Z M 2.890625 -0.984375 "/>
</symbol>
<symbol overflow="visible" id="svg44glyph1-2">
<path style="stroke:none;" d="M 3.75 -1.609375 L 2.265625 -1.609375 L 2.265625 0.015625 L 1.859375 0.015625 L 1.859375 -1.609375 L 0.359375 -1.609375 L 0.359375 -1.953125 L 1.859375 -1.953125 L 1.859375 -3.4375 L 2.265625 -3.4375 L 2.265625 -1.953125 L 3.75 -1.953125 Z M 3.75 -1.609375 "/>
</symbol>
<symbol overflow="visible" id="svg44glyph1-3">
<path style="stroke:none;" d="M 3.75 -1.609375 L 0.359375 -1.609375 L 0.359375 -1.953125 L 3.75 -1.953125 Z M 3.75 -1.609375 "/>
</symbol>
</g>
</defs>
<g id="svg44_surface1">
<g style="fill:rgb(0%,0%,0%);fill-opacity:1;">
  <use xlink:href="#svg44glyph0-0" x="1.66" y="8.37"/>
</g>
<g style="fill:rgb(0%,0%,0%);fill-opacity:1;">
  <use xlink:href="#svg44glyph1-0" x="7.85" y="10.76"/>
</g>
<g style="fill:rgb(0%,0%,0%);fill-opacity:1;">
  <use xlink:href="#svg44glyph0-1" x="11.79" y="8.37"/>
  <use xlink:href="#svg44glyph0-2" x="19.192509" y="8.37"/>
</g>
<g style="fill:rgb(0%,0%,0%);fill-opacity:1;">
  <use xlink:href="#svg44glyph0-3" x="24.731937" y="8.37"/>
</g>
<g style="fill:rgb(0%,0%,0%);fill-opacity:1;">
  <use xlink:href="#svg44glyph0-4" x="32.792004" y="8.37"/>
</g>
<g style="fill:rgb(0%,0%,0%);fill-opacity:1;">
  <use xlink:href="#svg44glyph1-1" x="40.43" y="10.76"/>
</g>
<g style="fill:rgb(0%,0%,0%);fill-opacity:1;">
  <use xlink:href="#svg44glyph0-5" x="44.37" y="8.37"/>
</g>
<g style="fill:rgb(0%,0%,0%);fill-opacity:1;">
  <use xlink:href="#svg44glyph0-6" x="54.572112" y="8.37"/>
</g>
<g style="fill:rgb(0%,0%,0%);fill-opacity:1;">
  <use xlink:href="#svg44glyph0-0" x="66.846528" y="8.37"/>
</g>
<g style="fill:rgb(0%,0%,0%);fill-opacity:1;">
  <use xlink:href="#svg44glyph1-0" x="73.03" y="10.76"/>
</g>
<g style="fill:rgb(0%,0%,0%);fill-opacity:1;">
  <use xlink:href="#svg44glyph0-1" x="76.98" y="8.37"/>
  <use xlink:href="#svg44glyph0-4" x="84.382509" y="8.37"/>
</g>
<g style="fill:rgb(0%,0%,0%);fill-opacity:1;">
  <use xlink:href="#svg44glyph1-2" x="92.01" y="3.59"/>
</g>
<g style="fill:rgb(0%,0%,0%);fill-opacity:1;">
  <use xlink:href="#svg44glyph0-3" x="98.93" y="8.37"/>
</g>
<g style="fill:rgb(0%,0%,0%);fill-opacity:1;">
  <use xlink:href="#svg44glyph0-5" x="106.990067" y="8.37"/>
  <use xlink:href="#svg44glyph0-4" x="114.432428" y="8.37"/>
</g>
<g style="fill:rgb(0%,0%,0%);fill-opacity:1;">
  <use xlink:href="#svg44glyph1-3" x="122.07" y="3.59"/>
</g>
<g style="fill:rgb(0%,0%,0%);fill-opacity:1;">
  <use xlink:href="#svg44glyph0-7" x="126.78" y="8.37"/>
</g>
</g>
</svg>