<?xml version="1.0" encoding="UTF-8"?>
<svg xmlns="http://www.w3.org/2000/svg" xmlns:xlink="http://www.w3.org/1999/xlink" width="140.79pt" height="17.53pt" viewBox="0 0 140.79 17.53" version="1.1">
<defs>
<g>
<symbol overflow="visible" id="svg85glyph0-0">
<path style="stroke:none;" d="M 6.140625 -1.75 L 6.4375 -1.65625 C 6.207031 -0.925781 6.011719 -0.410156 5.859375 -0.109375 C 5.054688 0.0664063 4.441406 0.15625 4.015625 0.15625 C 3.421875 0.15625 2.882813 0.0546875 2.40625 -0.140625 C 1.9375 -0.335938 1.558594 -0.59375 1.28125 -0.90625 C 1.007813 -1.226563 0.800781 -1.582031 0.65625 -1.96875 C 0.507813 -2.351563 0.4375 -2.75 0.4375 -3.15625 C 0.4375 -4.207031 0.796875 -5.050781 1.515625 -5.6875 C 2.230469 -6.332031 3.160156 -6.65625 4.296875 -6.65625 C 4.535156 -6.65625 4.769531 -6.632813 5 -6.59375 C 5.238281 -6.5625 5.46875 -6.511719 5.6875 -6.453125 C 5.914063 -6.398438 6.039063 -6.375 6.0625 -6.375 C 6.152344 -5.695313 6.222656 -5.195313 6.265625 -4.875 L 5.96875 -4.796875 C 5.832031 -5.324219 5.605469 -5.707031 5.296875 -5.9375 C 4.992188 -6.175781 4.566406 -6.296875 4.015625 -6.296875 C 3.222656 -6.296875 2.597656 -6.003906 2.140625 -5.421875 C 1.679688 -4.847656 1.453125 -4.160156 1.453125 -3.359375 C 1.453125 -2.421875 1.695313 -1.660156 2.1875 -1.078125 C 2.683594 -0.492188 3.316406 -0.203125 4.078125 -0.203125 C 4.566406 -0.203125 4.960938 -0.328125 5.265625 -0.578125 C 5.574219 -0.824219 5.867188 -1.21875 6.140625 -1.75 Z M 6.140625 -1.75 "/>
</symbol>
<symbol overflow="visible" id="svg85glyph0-1">
<path style="stroke:none;" d="M 3.8125 -6.65625 C 4.683594 -6.65625 5.441406 -6.339844 6.078125 -5.71875 C 6.710938 -5.101563 7.03125 -4.304688 7.03125 -3.328125 C 7.03125 -2.273438 6.707031 -1.429688 6.0625 -0.796875 C 5.425781 -0.160156 4.632813 0.15625 3.6875 0.15625 C 2.769531 0.15625 1.996094 -0.160156 1.375 -0.796875 C 0.75 -1.429688 0.4375 -2.226563 0.4375 -3.1875 C 0.4375 -4.121094 0.742188 -4.9375 1.359375 -5.625 C 1.980469 -6.308594 2.800781 -6.65625 3.8125 -6.65625 Z M 3.59375 -6.296875 C 3 -6.296875 2.492188 -6.042969 2.078125 -5.546875 C 1.660156 -5.046875 1.453125 -4.347656 1.453125 -3.453125 C 1.453125 -2.515625 1.679688 -1.738281 2.140625 -1.125 C 2.605469 -0.507813 3.195313 -0.203125 3.90625 -0.203125 C 4.496094 -0.203125 5 -0.445313 5.40625 -0.9375 C 5.808594 -1.433594 6.015625 -2.144531 6.015625 -3.0625 C 6.015625 -4.070313 5.777344 -4.863281 5.3125 -5.4375 C 4.851563 -6.007813 4.277344 -6.296875 3.59375 -6.296875 Z M 3.59375 -6.296875 "/>
</symbol>
<symbol overflow="visible" id="svg85glyph0-2">
<path style="stroke:none;" d="M 5.34375 -2.296875 L 3.234375 -2.296875 L 3.234375 0.03125 L 2.65625 0.03125 L 2.65625 -2.296875 L 0.515625 -2.296875 L 0.515625 -2.796875 L 2.65625 -2.796875 L 2.65625 -4.90625 L 3.234375 -4.90625 L 3.234375 -2.796875 L 5.34375 -2.796875 Z M 5.34375 -2.296875 "/>
</symbol>
<symbol overflow="visible" id="svg85glyph0-3">
<path style="stroke:none;" d="M 7.296875 -6.5 L 7.296875 -6.21875 C 6.878906 -6.1875 6.621094 -6.117188 6.53125 -6.015625 C 6.4375 -5.921875 6.390625 -5.667969 6.390625 -5.265625 L 6.390625 -1.234375 C 6.390625 -0.816406 6.429688 -0.558594 6.515625 -0.46875 C 6.605469 -0.375 6.863281 -0.308594 7.28125 -0.28125 L 7.28125 0 L 4.59375 0 L 4.59375 -0.28125 C 5.027344 -0.308594 5.296875 -0.375 5.390625 -0.46875 C 5.492188 -0.558594 5.546875 -0.816406 5.546875 -1.234375 L 5.546875 -3.21875 L 2.125 -3.21875 L 2.125 -1.234375 C 2.125 -0.816406 2.171875 -0.558594 2.265625 -0.46875 C 2.355469 -0.375 2.613281 -0.308594 3.03125 -0.28125 L 3.03125 0 L 0.40625 0 L 0.40625 -0.28125 C 0.808594 -0.308594 1.054688 -0.375 1.140625 -0.46875 C 1.230469 -0.558594 1.28125 -0.816406 1.28125 -1.234375 L 1.28125 -5.265625 C 1.28125 -5.679688 1.230469 -5.9375 1.140625 -6.03125 C 1.046875 -6.121094 0.789063 -6.1875 0.375 -6.21875 L 0.375 -6.5 L 2.96875 -6.5 L 2.96875 -6.21875 C 2.582031 -6.1875 2.339844 -6.121094 2.25 -6.03125 C 2.164063 -5.9375 2.125 -5.679688 2.125 -5.265625 L 2.125 -3.65625 L 5.546875 -3.65625 L 5.546875 -5.265625 C 5.546875 -5.667969 5.496094 -5.921875 5.40625 -6.015625 C 5.3125 -6.117188 5.070313 -6.1875 4.6875 -6.21875 L 4.6875 -6.5 Z M 7.296875 -6.5 "/>
</symbol>
<symbol overflow="visible" id="svg85glyph0-4">
<path style="stroke:none;" d="M 5.34375 -2.296875 L 0.515625 -2.296875 L 0.515625 -2.796875 L 5.34375 -2.796875 Z M 5.34375 -2.296875 "/>
</symbol>
<symbol overflow="visible" id="svg85glyph0-5">
<path style="stroke:none;" d="M 9.015625 -2.546875 C 8.535156 -2.140625 7.914063 -1.519531 7.15625 -0.6875 L 6.9375 -0.828125 L 7.953125 -2.296875 L 0.6875 -2.296875 L 0.6875 -2.796875 L 7.953125 -2.796875 L 6.9375 -4.265625 L 7.15625 -4.421875 C 7.914063 -3.585938 8.535156 -2.960938 9.015625 -2.546875 Z M 9.015625 -2.546875 "/>
</symbol>
<symbol overflow="visible" id="svg85glyph0-6">
<path style="stroke:none;" d="M 3 1.46875 L 2.8125 1.703125 C 2.113281 1.222656 1.585938 0.601563 1.234375 -0.15625 C 0.878906 -0.914063 0.703125 -1.765625 0.703125 -2.703125 C 0.703125 -3.628906 0.878906 -4.472656 1.234375 -5.234375 C 1.585938 -5.992188 2.113281 -6.613281 2.8125 -7.09375 L 3 -6.859375 C 2.507813 -6.441406 2.121094 -5.863281 1.84375 -5.125 C 1.570313 -4.382813 1.4375 -3.574219 1.4375 -2.703125 C 1.4375 -1.835938 1.570313 -1.027344 1.84375 -0.28125 C 2.121094 0.464844 2.507813 1.050781 3 1.46875 Z M 3 1.46875 "/>
</symbol>
<symbol overflow="visible" id="svg85glyph0-7">
<path style="stroke:none;" d="M 0.640625 -7.09375 C 2.042969 -6.132813 2.75 -4.664063 2.75 -2.6875 C 2.75 -0.71875 2.042969 0.742188 0.640625 1.703125 L 0.453125 1.46875 C 0.949219 1.050781 1.335938 0.472656 1.609375 -0.265625 C 1.886719 -1.011719 2.03125 -1.828125 2.03125 -2.703125 C 2.03125 -3.574219 1.886719 -4.382813 1.609375 -5.125 C 1.328125 -5.871094 0.941406 -6.453125 0.453125 -6.859375 Z M 0.640625 -7.09375 "/>
</symbol>
<symbol overflow="visible" id="svg85glyph0-8">
<path style="stroke:none;" d="M 1.125 0.125 C 0.96875 0.125 0.835938 0.0703125 0.734375 -0.03125 C 0.628906 -0.144531 0.578125 -0.285156 0.578125 -0.453125 C 0.578125 -0.617188 0.628906 -0.753906 0.734375 -0.859375 C 0.847656 -0.972656 0.984375 -1.03125 1.140625 -1.03125 C 1.292969 -1.03125 1.425781 -0.972656 1.53125 -0.859375 C 1.644531 -0.753906 1.703125 -0.617188 1.703125 -0.453125 C 1.703125 -0.285156 1.644531 -0.144531 1.53125 -0.03125 C 1.425781 0.0703125 1.289063 0.125 1.125 0.125 Z M 1.125 0.125 "/>
</symbol>
<symbol overflow="visible" id="svg85glyph1-0">
<path style="stroke:none;" d="M 2.890625 -0.984375 L 3.078125 -0.921875 C 3.078125 -0.910156 2.992188 -0.601563 2.828125 0 L 0.21875 0 L 0.21875 -0.15625 C 0.746094 -0.675781 1.125 -1.070313 1.34375 -1.34375 C 1.621094 -1.675781 1.835938 -1.972656 1.984375 -2.234375 C 2.136719 -2.503906 2.21875 -2.773438 2.21875 -3.046875 C 2.21875 -3.335938 2.144531 -3.5625 2 -3.71875 C 1.863281 -3.882813 1.664063 -3.96875 1.40625 -3.96875 C 1.050781 -3.96875 0.730469 -3.753906 0.453125 -3.328125 L 0.296875 -3.46875 L 0.6875 -4.03125 C 0.945313 -4.300781 1.265625 -4.4375 1.640625 -4.4375 C 1.960938 -4.4375 2.238281 -4.324219 2.46875 -4.109375 C 2.695313 -3.898438 2.8125 -3.617188 2.8125 -3.265625 C 2.8125 -2.972656 2.742188 -2.699219 2.609375 -2.453125 C 2.472656 -2.210938 2.230469 -1.910156 1.890625 -1.546875 L 0.90625 -0.515625 L 2.203125 -0.515625 C 2.398438 -0.515625 2.535156 -0.535156 2.609375 -0.578125 C 2.691406 -0.628906 2.785156 -0.765625 2.890625 -0.984375 Z M 2.890625 -0.984375 "/>
</symbol>
<symbol overflow="visible" id="svg85glyph1-1">
<path style="stroke:none;" d="M 2.234375 -2.28125 L 2.0625 -2.21875 C 1.90625 -2.683594 1.664063 -2.921875 1.34375 -2.921875 C 1.207031 -2.921875 1.089844 -2.871094 1 -2.78125 C 0.914063 -2.6875 0.875 -2.566406 0.875 -2.421875 C 0.875 -2.285156 0.925781 -2.167969 1.03125 -2.078125 C 1.132813 -1.992188 1.28125 -1.910156 1.46875 -1.828125 C 1.757813 -1.710938 1.976563 -1.582031 2.125 -1.4375 C 2.277344 -1.289063 2.359375 -1.101563 2.359375 -0.875 C 2.359375 -0.582031 2.238281 -0.347656 2 -0.171875 C 1.769531 -0.00390625 1.503906 0.078125 1.203125 0.078125 C 1.035156 0.078125 0.871094 0.0507813 0.71875 0 C 0.570313 -0.0390625 0.464844 -0.09375 0.40625 -0.15625 C 0.382813 -0.207031 0.355469 -0.328125 0.328125 -0.515625 C 0.296875 -0.699219 0.28125 -0.859375 0.28125 -0.984375 L 0.46875 -1.015625 C 0.539063 -0.765625 0.648438 -0.554688 0.796875 -0.390625 C 0.949219 -0.222656 1.128906 -0.140625 1.328125 -0.140625 C 1.460938 -0.140625 1.578125 -0.1875 1.671875 -0.28125 C 1.773438 -0.371094 1.828125 -0.492188 1.828125 -0.640625 C 1.828125 -0.785156 1.777344 -0.90625 1.6875 -1 C 1.59375 -1.089844 1.457031 -1.1875 1.28125 -1.28125 C 1.144531 -1.332031 1.035156 -1.378906 0.953125 -1.421875 C 0.867188 -1.472656 0.773438 -1.535156 0.671875 -1.609375 C 0.578125 -1.691406 0.507813 -1.785156 0.46875 -1.890625 C 0.425781 -1.992188 0.40625 -2.109375 0.40625 -2.234375 C 0.40625 -2.480469 0.503906 -2.695313 0.703125 -2.875 C 0.898438 -3.050781 1.15625 -3.140625 1.46875 -3.140625 C 1.683594 -3.140625 1.890625 -3.097656 2.078125 -3.015625 C 2.105469 -2.941406 2.140625 -2.820313 2.171875 -2.65625 C 2.199219 -2.5 2.222656 -2.371094 2.234375 -2.28125 Z M 2.234375 -2.28125 "/>
</symbol>
<symbol overflow="visible" id="svg85glyph1-2">
<path style="stroke:none;" d="M 3.625 -0.34375 L 3.625 -0.171875 C 3.476563 -0.148438 3.300781 -0.113281 3.09375 -0.0625 C 3.03125 -0.0390625 2.941406 -0.0117188 2.828125 0.015625 C 2.710938 0.0429688 2.632813 0.0664063 2.59375 0.078125 L 2.5625 0.046875 L 2.5625 -0.453125 C 2.289063 -0.253906 2.113281 -0.132813 2.03125 -0.09375 C 1.832031 0.0195313 1.652344 0.078125 1.5 0.078125 C 1.238281 0.078125 1.023438 -0.00390625 0.859375 -0.171875 C 0.703125 -0.335938 0.625 -0.597656 0.625 -0.953125 L 0.625 -2.328125 C 0.625 -2.503906 0.605469 -2.617188 0.578125 -2.671875 C 0.546875 -2.722656 0.488281 -2.757813 0.40625 -2.78125 L 0.203125 -2.828125 L 0.203125 -2.984375 C 0.292969 -2.984375 0.460938 -3 0.703125 -3.03125 C 0.980469 -3.070313 1.148438 -3.097656 1.203125 -3.109375 C 1.191406 -2.960938 1.1875 -2.621094 1.1875 -2.09375 L 1.1875 -1.140625 C 1.1875 -0.617188 1.390625 -0.359375 1.796875 -0.359375 C 2.074219 -0.359375 2.332031 -0.46875 2.5625 -0.6875 L 2.5625 -2.328125 C 2.5625 -2.503906 2.539063 -2.617188 2.5 -2.671875 C 2.457031 -2.722656 2.378906 -2.757813 2.265625 -2.78125 L 2.015625 -2.828125 L 2.015625 -2.984375 C 2.210938 -2.992188 2.421875 -3.007813 2.640625 -3.03125 C 2.804688 -3.050781 2.960938 -3.078125 3.109375 -3.109375 L 3.109375 -0.765625 C 3.109375 -0.597656 3.128906 -0.488281 3.171875 -0.4375 C 3.210938 -0.394531 3.300781 -0.367188 3.4375 -0.359375 Z M 3.625 -0.34375 "/>
</symbol>
<symbol overflow="visible" id="svg85glyph1-3">
<path style="stroke:none;" d="M 3.671875 0 L 2.203125 0 L 2.203125 -0.1875 C 2.410156 -0.207031 2.539063 -0.25 2.59375 -0.3125 C 2.644531 -0.371094 2.671875 -0.523438 2.671875 -0.765625 L 2.671875 -1.9375 C 2.671875 -2.464844 2.457031 -2.734375 2.03125 -2.734375 C 1.800781 -2.734375 1.542969 -2.613281 1.265625 -2.375 L 1.265625 -0.734375 C 1.265625 -0.492188 1.285156 -0.347656 1.328125 -0.296875 C 1.378906 -0.242188 1.507813 -0.207031 1.71875 -0.1875 L 1.71875 0 L 0.203125 0 L 0.203125 -0.1875 C 0.441406 -0.207031 0.585938 -0.242188 0.640625 -0.296875 C 0.691406 -0.355469 0.71875 -0.503906 0.71875 -0.734375 L 0.71875 -2.171875 C 0.71875 -2.386719 0.691406 -2.523438 0.640625 -2.578125 C 0.597656 -2.628906 0.480469 -2.675781 0.296875 -2.71875 L 0.296875 -2.875 C 0.679688 -2.945313 1.003906 -3.039063 1.265625 -3.15625 L 1.265625 -2.609375 C 1.355469 -2.667969 1.515625 -2.78125 1.734375 -2.9375 C 1.949219 -3.070313 2.144531 -3.140625 2.3125 -3.140625 C 2.589844 -3.140625 2.8125 -3.042969 2.96875 -2.859375 C 3.132813 -2.671875 3.21875 -2.410156 3.21875 -2.078125 L 3.21875 -0.734375 C 3.21875 -0.492188 3.238281 -0.347656 3.28125 -0.296875 C 3.332031 -0.242188 3.460938 -0.207031 3.671875 -0.1875 Z M 3.671875 0 "/>
</symbol>
<symbol overflow="visible" id="svg85glyph1-4">
<path style="stroke:none;" d="M 1.671875 0 L 0.109375 0 L 0.109375 -0.1875 C 0.324219 -0.207031 0.460938 -0.242188 0.515625 -0.296875 C 0.574219 -0.355469 0.609375 -0.503906 0.609375 -0.734375 L 0.609375 -4.03125 C 0.609375 -4.269531 0.582031 -4.410156 0.53125 -4.453125 C 0.488281 -4.503906 0.351563 -4.546875 0.125 -4.578125 L 0.125 -4.734375 C 0.464844 -4.773438 0.8125 -4.859375 1.15625 -4.984375 L 1.15625 -0.734375 C 1.15625 -0.503906 1.179688 -0.355469 1.234375 -0.296875 C 1.292969 -0.242188 1.441406 -0.207031 1.671875 -0.1875 Z M 1.671875 0 "/>
</symbol>
<symbol overflow="visible" id="svg85glyph1-5">
<path style="stroke:none;" d="M 0.9375 -3.75 C 0.851563 -3.75 0.773438 -3.785156 0.703125 -3.859375 C 0.628906 -3.929688 0.59375 -4.015625 0.59375 -4.109375 C 0.59375 -4.210938 0.628906 -4.296875 0.703125 -4.359375 C 0.773438 -4.429688 0.859375 -4.46875 0.953125 -4.46875 C 1.042969 -4.46875 1.125 -4.429688 1.1875 -4.359375 C 1.257813 -4.296875 1.296875 -4.210938 1.296875 -4.109375 C 1.296875 -4.015625 1.257813 -3.929688 1.1875 -3.859375 C 1.125 -3.785156 1.039063 -3.75 0.9375 -3.75 Z M 1.765625 0 L 0.21875 0 L 0.21875 -0.1875 C 0.445313 -0.207031 0.585938 -0.242188 0.640625 -0.296875 C 0.691406 -0.355469 0.71875 -0.503906 0.71875 -0.734375 L 0.71875 -2.1875 C 0.71875 -2.402344 0.695313 -2.539063 0.65625 -2.59375 C 0.613281 -2.644531 0.480469 -2.6875 0.265625 -2.71875 L 0.265625 -2.890625 C 0.628906 -2.941406 0.960938 -3.03125 1.265625 -3.15625 L 1.265625 -0.734375 C 1.265625 -0.503906 1.289063 -0.355469 1.34375 -0.296875 C 1.394531 -0.242188 1.535156 -0.207031 1.765625 -0.1875 Z M 1.765625 0 "/>
</symbol>
<symbol overflow="visible" id="svg85glyph1-6">
<path style="stroke:none;" d="M 3.234375 -3.0625 L 3.28125 -3 C 3.175781 -2.820313 3.070313 -2.699219 2.96875 -2.640625 L 2.5625 -2.671875 C 2.695313 -2.503906 2.765625 -2.292969 2.765625 -2.046875 C 2.765625 -1.691406 2.636719 -1.414063 2.390625 -1.21875 C 2.148438 -1.03125 1.867188 -0.9375 1.546875 -0.9375 C 1.429688 -0.9375 1.308594 -0.945313 1.1875 -0.96875 C 1.050781 -0.863281 0.984375 -0.761719 0.984375 -0.671875 C 0.984375 -0.597656 1.019531 -0.535156 1.09375 -0.484375 C 1.164063 -0.429688 1.273438 -0.40625 1.421875 -0.40625 C 1.503906 -0.40625 1.628906 -0.40625 1.796875 -0.40625 C 1.960938 -0.40625 2.082031 -0.40625 2.15625 -0.40625 C 2.332031 -0.40625 2.488281 -0.382813 2.625 -0.34375 C 2.757813 -0.3125 2.878906 -0.226563 2.984375 -0.09375 C 3.097656 0.0273438 3.15625 0.195313 3.15625 0.40625 C 3.15625 0.769531 2.976563 1.09375 2.625 1.375 C 2.28125 1.652344 1.878906 1.796875 1.421875 1.796875 C 1.054688 1.796875 0.757813 1.707031 0.53125 1.53125 C 0.3125 1.363281 0.203125 1.164063 0.203125 0.9375 C 0.203125 0.789063 0.257813 0.660156 0.375 0.546875 C 0.464844 0.453125 0.660156 0.289063 0.953125 0.0625 C 0.722656 -0.0078125 0.550781 -0.140625 0.4375 -0.328125 C 0.375 -0.417969 0.347656 -0.515625 0.359375 -0.609375 C 0.617188 -0.710938 0.820313 -0.859375 0.96875 -1.046875 C 0.800781 -1.117188 0.652344 -1.234375 0.53125 -1.390625 C 0.414063 -1.554688 0.359375 -1.753906 0.359375 -1.984375 C 0.359375 -2.347656 0.488281 -2.628906 0.75 -2.828125 C 1.007813 -3.035156 1.296875 -3.140625 1.609375 -3.140625 C 1.847656 -3.140625 2.070313 -3.074219 2.28125 -2.953125 C 2.613281 -2.972656 2.929688 -3.007813 3.234375 -3.0625 Z M 1.53125 -2.921875 C 1.375 -2.921875 1.238281 -2.847656 1.125 -2.703125 C 1.007813 -2.554688 0.953125 -2.351563 0.953125 -2.09375 C 0.953125 -1.820313 1.015625 -1.597656 1.140625 -1.421875 C 1.261719 -1.242188 1.421875 -1.15625 1.609375 -1.15625 C 1.773438 -1.15625 1.914063 -1.226563 2.03125 -1.375 C 2.144531 -1.519531 2.203125 -1.722656 2.203125 -1.984375 C 2.203125 -2.261719 2.136719 -2.488281 2.015625 -2.65625 C 1.890625 -2.832031 1.726563 -2.921875 1.53125 -2.921875 Z M 1.6875 0.078125 C 1.394531 0.078125 1.191406 0.125 1.078125 0.21875 C 0.859375 0.402344 0.75 0.585938 0.75 0.765625 C 0.75 0.960938 0.835938 1.125 1.015625 1.25 C 1.191406 1.371094 1.414063 1.4375 1.6875 1.4375 C 1.996094 1.4375 2.242188 1.363281 2.421875 1.21875 C 2.597656 1.082031 2.6875 0.898438 2.6875 0.671875 C 2.6875 0.421875 2.582031 0.253906 2.375 0.171875 C 2.21875 0.109375 1.988281 0.078125 1.6875 0.078125 Z M 1.6875 0.078125 "/>
</symbol>
<symbol overflow="visible" id="svg85glyph1-7">
<path style="stroke:none;" d="M 3.59375 0 L 2.109375 0 L 2.109375 -0.1875 C 2.316406 -0.207031 2.445313 -0.242188 2.5 -0.296875 C 2.550781 -0.355469 2.578125 -0.5 2.578125 -0.71875 L 2.578125 -1.890625 C 2.578125 -2.460938 2.347656 -2.75 1.890625 -2.75 C 1.617188 -2.75 1.371094 -2.628906 1.15625 -2.390625 L 1.15625 -0.71875 C 1.15625 -0.5 1.175781 -0.355469 1.21875 -0.296875 C 1.269531 -0.234375 1.398438 -0.195313 1.609375 -0.1875 L 1.609375 0 L 0.125 0 L 0.140625 -0.1875 C 0.347656 -0.195313 0.476563 -0.226563 0.53125 -0.28125 C 0.582031 -0.339844 0.609375 -0.488281 0.609375 -0.71875 L 0.609375 -4.0625 C 0.609375 -4.277344 0.582031 -4.414063 0.53125 -4.46875 C 0.488281 -4.519531 0.355469 -4.554688 0.140625 -4.578125 L 0.140625 -4.734375 C 0.429688 -4.773438 0.769531 -4.859375 1.15625 -4.984375 L 1.15625 -2.625 C 1.496094 -2.964844 1.832031 -3.140625 2.15625 -3.140625 C 2.457031 -3.140625 2.691406 -3.039063 2.859375 -2.84375 C 3.035156 -2.65625 3.125 -2.355469 3.125 -1.953125 L 3.125 -0.71875 C 3.125 -0.488281 3.148438 -0.339844 3.203125 -0.28125 C 3.253906 -0.226563 3.382813 -0.195313 3.59375 -0.1875 Z M 3.59375 0 "/>
</symbol>
<symbol overflow="visible" id="svg85glyph1-8">
<path style="stroke:none;" d="M 2.09375 -0.25 L 1.609375 0 C 1.492188 0.0507813 1.394531 0.078125 1.3125 0.078125 C 0.851563 0.078125 0.625 -0.195313 0.625 -0.75 L 0.625 -2.78125 L 0.140625 -2.78125 L 0.125 -2.859375 L 0.3125 -3.0625 L 0.625 -3.0625 L 0.625 -3.5625 L 1.078125 -4.03125 L 1.1875 -4.015625 L 1.1875 -3.0625 L 1.96875 -3.0625 C 2.007813 -3.019531 2.023438 -2.964844 2.015625 -2.90625 C 2.003906 -2.851563 1.976563 -2.808594 1.9375 -2.78125 L 1.1875 -2.78125 L 1.1875 -0.984375 C 1.1875 -0.535156 1.320313 -0.3125 1.59375 -0.3125 C 1.726563 -0.3125 1.867188 -0.351563 2.015625 -0.4375 Z M 2.09375 -0.25 "/>
</symbol>
</g>
</defs>
<g id="svg85_surface1">
<g style="fill:rgb(0%,0%,0%);fill-opacity:1;">
  <use xlink:href="#svg85glyph0-0" x="1.66" y="13.94"/>
  <use xlink:href="#svg85glyph0-1" x="8.285395" y="13.94"/>
</g>
<g style="fill:rgb(0%,0%,0%);fill-opacity:1;">
  <use xlink:href="#svg85glyph1-0" x="15.73" y="16.34"/>
</g>
<g style="fill:rgb(0%,0%,0%);fill-opacity:1;">
  <use xlink:href="#svg85glyph0-2" x="21.88" y="13.94"/>
</g>
<g style="fill:rgb(0%,0%,0%);fill-opacity:1;">
  <use xlink:href="#svg85glyph0-3" x="29.940067" y="13.94"/>
</g>
<g style="fill:rgb(0%,0%,0%);fill-opacity:1;">
  <use xlink:href="#svg85glyph1-0" x="37.58" y="16.34"/>
</g>
<g style="fill:rgb(0%,0%,0%);fill-opacity:1;">
  <use xlink:href="#svg85glyph0-1" x="41.52" y="13.94"/>
</g>
<g style="fill:rgb(0%,0%,0%);fill-opacity:1;">
  <use xlink:href="#svg85glyph1-1" x="54.31" y="6.6"/>
  <use xlink:href="#svg85glyph1-2" x="56.942491" y="6.6"/>
  <use xlink:href="#svg85glyph1-3" x="60.751354" y="6.6"/>
  <use xlink:href="#svg85glyph1-4" x="64.674985" y="6.6"/>
  <use xlink:href="#svg85glyph1-5" x="66.489754" y="6.6"/>
  <use xlink:href="#svg85glyph1-6" x="68.412118" y="6.6"/>
  <use xlink:href="#svg85glyph1-7" x="71.769082" y="6.6"/>
  <use xlink:href="#svg85glyph1-8" x="75.599464" y="6.6"/>
</g>
<g style="fill:rgb(0%,0%,0%);fill-opacity:1;">
  <use xlink:href="#svg85glyph0-4" x="51.73" y="13.94"/>
</g>
<g style="fill:rgb(0%,0%,0%);fill-opacity:1;">
  <use xlink:href="#svg85glyph0-4" x="57.199687" y="13.94"/>
</g>
<g style="fill:rgb(0%,0%,0%);fill-opacity:1;">
  <use xlink:href="#svg85glyph0-4" x="61.89226" y="13.94"/>
</g>
<g style="fill:rgb(0%,0%,0%);fill-opacity:1;">
  <use xlink:href="#svg85glyph0-4" x="66.594796" y="13.94"/>
</g>
<g style="fill:rgb(0%,0%,0%);fill-opacity:1;">
  <use xlink:href="#svg85glyph0-5" x="72.05452" y="13.94"/>
</g>
<g style="fill:rgb(0%,0%,0%);fill-opacity:1;">
  <use xlink:href="#svg85glyph0-6" x="84.318973" y="13.94"/>
  <use xlink:href="#svg85glyph0-0" x="87.766171" y="13.94"/>
  <use xlink:href="#svg85glyph0-3" x="94.391566" y="13.94"/>
</g>
<g style="fill:rgb(0%,0%,0%);fill-opacity:1;">
  <use xlink:href="#svg85glyph1-0" x="102.03" y="16.34"/>
</g>
<g style="fill:rgb(0%,0%,0%);fill-opacity:1;">
  <use xlink:href="#svg85glyph0-1" x="105.97" y="13.94"/>
  <use xlink:href="#svg85glyph0-7" x="113.412361" y="13.94"/>
</g>
<g style="fill:rgb(0%,0%,0%);fill-opacity:1;">
  <use xlink:href="#svg85glyph0-2" x="119.071345" y="13.94"/>
</g>
<g style="fill:rgb(0%,0%,0%);fill-opacity:1;">
  <use xlink:href="#svg85glyph0-1" x="127.131412" y="13.94"/>
</g>
<g style="fill:rgb(0%,0%,0%);fill-opacity:1;">
  <use xlink:href="#svg85glyph1-0" x="134.58" y="16.34"/>
</g>
<g style="fill:rgb(0%,0%,0%);fill-opacity:1;">
  <use xlink:href="#svg85glyph0-8" x="138.52" y="13.94"/>
</g>
</g>
</svg>