<?xml version="1.0" encoding="UTF-8"?>
<svg xmlns="http://www.w3.org/2000/svg" xmlns:xlink="http://www.w3.org/1999/xlink" width="87.12pt" height="11.96pt" viewBox="0 0 87.12 11.96" version="1.1">
<defs>
<g>
<symbol overflow="visible" id="svg94glyph0-0">
<path style="stroke:none;" d="M 4.125 -1.40625 L 4.40625 -1.3125 C 4.40625 -1.300781 4.285156 -0.863281 4.046875 0 L 0.3125 0 L 0.3125 -0.234375 C 1.058594 -0.972656 1.601563 -1.539063 1.9375 -1.9375 C 2.320313 -2.394531 2.625 -2.8125 2.84375 -3.1875 C 3.070313 -3.570313 3.1875 -3.957031 3.1875 -4.34375 C 3.1875 -4.769531 3.082031 -5.097656 2.875 -5.328125 C 2.664063 -5.566406 2.378906 -5.6875 2.015625 -5.6875 C 1.515625 -5.6875 1.054688 -5.371094 0.640625 -4.75 L 0.421875 -4.953125 L 0.984375 -5.765625 C 1.355469 -6.148438 1.8125 -6.34375 2.34375 -6.34375 C 2.800781 -6.34375 3.191406 -6.183594 3.515625 -5.875 C 3.847656 -5.570313 4.015625 -5.164063 4.015625 -4.65625 C 4.015625 -4.25 3.914063 -3.867188 3.71875 -3.515625 C 3.53125 -3.171875 3.191406 -2.738281 2.703125 -2.21875 L 1.296875 -0.734375 L 3.15625 -0.734375 C 3.425781 -0.734375 3.617188 -0.765625 3.734375 -0.828125 C 3.847656 -0.898438 3.976563 -1.09375 4.125 -1.40625 Z M 4.125 -1.40625 "/>
</symbol>
<symbol overflow="visible" id="svg94glyph0-1">
<path style="stroke:none;" d="M 7.296875 -6.5 L 7.296875 -6.21875 C 6.878906 -6.1875 6.621094 -6.117188 6.53125 -6.015625 C 6.4375 -5.921875 6.390625 -5.667969 6.390625 -5.265625 L 6.390625 -1.234375 C 6.390625 -0.816406 6.429688 -0.558594 6.515625 -0.46875 C 6.605469 -0.375 6.863281 -0.308594 7.28125 -0.28125 L 7.28125 0 L 4.59375 0 L 4.59375 -0.28125 C 5.027344 -0.308594 5.296875 -0.375 5.390625 -0.46875 C 5.492188 -0.558594 5.546875 -0.816406 5.546875 -1.234375 L 5.546875 -3.21875 L 2.125 -3.21875 L 2.125 -1.234375 C 2.125 -0.816406 2.171875 -0.558594 2.265625 -0.46875 C 2.355469 -0.375 2.613281 -0.308594 3.03125 -0.28125 L 3.03125 0 L 0.40625 0 L 0.40625 -0.28125 C 0.808594 -0.308594 1.054688 -0.375 1.140625 -0.46875 C 1.230469 -0.558594 1.28125 -0.816406 1.28125 -1.234375 L 1.28125 -5.265625 C 1.28125 -5.679688 1.230469 -5.9375 1.140625 -6.03125 C 1.046875 -6.121094 0.789063 -6.1875 0.375 -6.21875 L 0.375 -6.5 L 2.96875 -6.5 L 2.96875 -6.21875 C 2.582031 -6.1875 2.339844 -6.121094 2.25 -6.03125 C 2.164063 -5.9375 2.125 -5.679688 2.125 -5.265625 L 2.125 -3.65625 L 5.546875 -3.65625 L 5.546875 -5.265625 C 5.546875 -5.667969 5.496094 -5.921875 5.40625 -6.015625 C 5.3125 -6.117188 5.070313 -6.1875 4.6875 -6.21875 L 4.6875 -6.5 Z M 7.296875 -6.5 "/>
</symbol>
<symbol overflow="visible" id="svg94glyph0-2">
<path style="stroke:none;" d="M 3.8125 -6.65625 C 4.683594 -6.65625 5.441406 -6.339844 6.078125 -5.71875 C 6.710938 -5.101563 7.03125 -4.304688 7.03125 -3.328125 C 7.03125 -2.273438 6.707031 -1.429688 6.0625 -0.796875 C 5.425781 -0.160156 4.632813 0.15625 3.6875 0.15625 C 2.769531 0.15625 1.996094 -0.160156 1.375 -0.796875 C 0.75 -1.429688 0.4375 -2.226563 0.4375 -3.1875 C 0.4375 -4.121094 0.742188 -4.9375 1.359375 -5.625 C 1.980469 -6.308594 2.800781 -6.65625 3.8125 -6.65625 Z M 3.59375 -6.296875 C 3 -6.296875 2.492188 -6.042969 2.078125 -5.546875 C 1.660156 -5.046875 1.453125 -4.347656 1.453125 -3.453125 C 1.453125 -2.515625 1.679688 -1.738281 2.140625 -1.125 C 2.605469 -0.507813 3.195313 -0.203125 3.90625 -0.203125 C 4.496094 -0.203125 5 -0.445313 5.40625 -0.9375 C 5.808594 -1.433594 6.015625 -2.144531 6.015625 -3.0625 C 6.015625 -4.070313 5.777344 -4.863281 5.3125 -5.4375 C 4.851563 -6.007813 4.277344 -6.296875 3.59375 -6.296875 Z M 3.59375 -6.296875 "/>
</symbol>
<symbol overflow="visible" id="svg94glyph0-3">
<path style="stroke:none;" d="M 15.375 -2.546875 C 14.894531 -2.140625 14.273438 -1.519531 13.515625 -0.6875 L 13.296875 -0.828125 L 14.3125 -2.296875 L 0.6875 -2.296875 L 0.6875 -2.796875 L 14.3125 -2.796875 L 13.296875 -4.265625 L 13.515625 -4.421875 C 14.273438 -3.585938 14.894531 -2.960938 15.375 -2.546875 Z M 15.375 -2.546875 "/>
</symbol>
<symbol overflow="visible" id="svg94glyph0-4">
<path style="stroke:none;" d="M 5.34375 -2.296875 L 3.234375 -2.296875 L 3.234375 0.03125 L 2.65625 0.03125 L 2.65625 -2.296875 L 0.515625 -2.296875 L 0.515625 -2.796875 L 2.65625 -2.796875 L 2.65625 -4.90625 L 3.234375 -4.90625 L 3.234375 -2.796875 L 5.34375 -2.796875 Z M 5.34375 -2.296875 "/>
</symbol>
<symbol overflow="visible" id="svg94glyph0-5">
<path style="stroke:none;" d="M 1.125 0.125 C 0.96875 0.125 0.835938 0.0703125 0.734375 -0.03125 C 0.628906 -0.144531 0.578125 -0.285156 0.578125 -0.453125 C 0.578125 -0.617188 0.628906 -0.753906 0.734375 -0.859375 C 0.847656 -0.972656 0.984375 -1.03125 1.140625 -1.03125 C 1.292969 -1.03125 1.425781 -0.972656 1.53125 -0.859375 C 1.644531 -0.753906 1.703125 -0.617188 1.703125 -0.453125 C 1.703125 -0.285156 1.644531 -0.144531 1.53125 -0.03125 C 1.425781 0.0703125 1.289063 0.125 1.125 0.125 Z M 1.125 0.125 "/>
</symbol>
<symbol overflow="visible" id="svg94glyph1-0">
<path style="stroke:none;" d="M 2.890625 -0.984375 L 3.078125 -0.921875 C 3.078125 -0.910156 2.992188 -0.601563 2.828125 0 L 0.21875 0 L 0.21875 -0.15625 C 0.746094 -0.675781 1.125 -1.070313 1.34375 -1.34375 C 1.621094 -1.675781 1.835938 -1.972656 1.984375 -2.234375 C 2.136719 -2.503906 2.21875 -2.773438 2.21875 -3.046875 C 2.21875 -3.335938 2.144531 -3.5625 2 -3.71875 C 1.863281 -3.882813 1.664063 -3.96875 1.40625 -3.96875 C 1.050781 -3.96875 0.730469 -3.753906 0.453125 -3.328125 L 0.296875 -3.46875 L 0.6875 -4.03125 C 0.945313 -4.300781 1.265625 -4.4375 1.640625 -4.4375 C 1.960938 -4.4375 2.238281 -4.324219 2.46875 -4.109375 C 2.695313 -3.898438 2.8125 -3.617188 2.8125 -3.265625 C 2.8125 -2.972656 2.742188 -2.699219 2.609375 -2.453125 C 2.472656 -2.210938 2.230469 -1.910156 1.890625 -1.546875 L 0.90625 -0.515625 L 2.203125 -0.515625 C 2.398438 -0.515625 2.535156 -0.535156 2.609375 -0.578125 C 2.691406 -0.628906 2.785156 -0.765625 2.890625 -0.984375 Z M 2.890625 -0.984375 "/>
</symbol>
</g>
</defs>
<g id="svg94_surface1">
<g style="fill:rgb(0%,0%,0%);fill-opacity:1;">
  <use xlink:href="#svg94glyph0-0" x="1.66" y="8.37"/>
  <use xlink:href="#svg94glyph0-1" x="6.44224" y="8.37"/>
</g>
<g style="fill:rgb(0%,0%,0%);fill-opacity:1;">
  <use xlink:href="#svg94glyph1-0" x="14.07" y="10.76"/>
</g>
<g style="fill:rgb(0%,0%,0%);fill-opacity:1;">
  <use xlink:href="#svg94glyph0-2" x="18.02" y="8.37"/>
</g>
<g style="fill:rgb(0%,0%,0%);fill-opacity:1;">
  <use xlink:href="#svg94glyph0-3" x="28.222112" y="8.37"/>
</g>
<g style="fill:rgb(0%,0%,0%);fill-opacity:1;">
  <use xlink:href="#svg94glyph0-2" x="46.832996" y="8.37"/>
</g>
<g style="fill:rgb(0%,0%,0%);fill-opacity:1;">
  <use xlink:href="#svg94glyph1-0" x="54.27" y="10.76"/>
</g>
<g style="fill:rgb(0%,0%,0%);fill-opacity:1;">
  <use xlink:href="#svg94glyph0-4" x="60.43" y="8.37"/>
</g>
<g style="fill:rgb(0%,0%,0%);fill-opacity:1;">
  <use xlink:href="#svg94glyph0-0" x="68.490067" y="8.37"/>
  <use xlink:href="#svg94glyph0-1" x="73.272307" y="8.37"/>
</g>
<g style="fill:rgb(0%,0%,0%);fill-opacity:1;">
  <use xlink:href="#svg94glyph1-0" x="80.91" y="10.76"/>
</g>
<g style="fill:rgb(0%,0%,0%);fill-opacity:1;">
  <use xlink:href="#svg94glyph0-5" x="84.85" y="8.37"/>
</g>
</g>
</svg>