<?xml version="1.0" encoding="UTF-8"?>
<svg xmlns="http://www.w3.org/2000/svg" xmlns:xlink="http://www.w3.org/1999/xlink" width="74.23pt" height="11.96pt" viewBox="0 0 74.23 11.96" version="1.1">
<defs>
<g>
<symbol overflow="visible" id="svg17glyph0-0">
<path style="stroke:none;" d="M 10.046875 -6.5 L 9.984375 -6.203125 C 9.617188 -6.171875 9.378906 -6.105469 9.265625 -6.015625 C 9.148438 -5.921875 8.980469 -5.667969 8.765625 -5.265625 L 6.046875 0.125 L 5.71875 0.125 L 4.734375 -4.9375 L 4.703125 -4.9375 L 2.125 0.125 L 1.828125 0.125 L 1.046875 -5.203125 C 0.984375 -5.648438 0.910156 -5.914063 0.828125 -6 C 0.753906 -6.082031 0.535156 -6.148438 0.171875 -6.203125 L 0.234375 -6.5 L 2.640625 -6.5 L 2.5625 -6.203125 L 2.296875 -6.15625 C 2.066406 -6.113281 1.925781 -6.058594 1.875 -6 C 1.832031 -5.9375 1.828125 -5.777344 1.859375 -5.53125 L 2.453125 -1.28125 L 2.484375 -1.28125 L 5 -6.375 L 5.3125 -6.375 L 6.328125 -1.28125 L 6.34375 -1.28125 C 7.339844 -3.269531 8.003906 -4.679688 8.328125 -5.515625 C 8.417969 -5.773438 8.445313 -5.929688 8.40625 -5.984375 C 8.375 -6.042969 8.214844 -6.101563 7.9375 -6.15625 L 7.65625 -6.203125 L 7.734375 -6.5 Z M 10.046875 -6.5 "/>
</symbol>
<symbol overflow="visible" id="svg17glyph0-1">
<path style="stroke:none;" d="M 5.34375 -3.234375 L 0.515625 -3.234375 L 0.515625 -3.734375 L 5.34375 -3.734375 Z M 5.34375 -1.375 L 0.515625 -1.375 L 0.515625 -1.875 L 5.34375 -1.875 Z M 5.34375 -1.375 "/>
</symbol>
<symbol overflow="visible" id="svg17glyph0-2">
<path style="stroke:none;" d="M 5.34375 -2.296875 L 0.515625 -2.296875 L 0.515625 -2.796875 L 5.34375 -2.796875 Z M 5.34375 -2.296875 "/>
</symbol>
<symbol overflow="visible" id="svg17glyph0-3">
<path style="stroke:none;" d="M 4.796875 -4.15625 C 4.796875 -4.019531 4.738281 -3.882813 4.625 -3.75 C 4.5625 -3.675781 4.503906 -3.65625 4.453125 -3.6875 C 4.316406 -3.738281 4.175781 -3.765625 4.03125 -3.765625 C 3.613281 -3.765625 3.144531 -3.503906 2.625 -2.984375 C 2.777344 -2.523438 3.078125 -1.882813 3.515625 -1.0625 C 3.628906 -0.863281 3.71875 -0.726563 3.78125 -0.65625 C 3.839844 -0.582031 3.910156 -0.546875 3.984375 -0.546875 C 4.085938 -0.546875 4.289063 -0.695313 4.59375 -1 L 4.765625 -0.796875 C 4.335938 -0.179688 3.941406 0.125 3.578125 0.125 C 3.347656 0.125 3.113281 -0.0976563 2.875 -0.546875 C 2.601563 -1.023438 2.324219 -1.644531 2.046875 -2.40625 C 1.804688 -2.207031 1.597656 -2.003906 1.421875 -1.796875 C 1.242188 -1.035156 1.121094 -0.460938 1.0625 -0.078125 C 0.789063 -0.0234375 0.535156 0.0390625 0.296875 0.125 L 0.234375 0.0625 L 1.625 -6.0625 C 1.675781 -6.246094 1.675781 -6.359375 1.625 -6.390625 C 1.582031 -6.429688 1.460938 -6.457031 1.265625 -6.46875 L 0.921875 -6.484375 L 0.96875 -6.734375 C 1.214844 -6.761719 1.460938 -6.8125 1.703125 -6.875 C 1.941406 -6.933594 2.128906 -6.992188 2.265625 -7.046875 C 2.410156 -7.097656 2.5 -7.125 2.53125 -7.125 C 2.613281 -7.125 2.621094 -7.011719 2.5625 -6.796875 L 1.53125 -2.375 L 1.546875 -2.375 C 1.785156 -2.621094 2.109375 -2.929688 2.515625 -3.296875 C 2.773438 -3.535156 2.992188 -3.722656 3.171875 -3.859375 C 3.347656 -3.992188 3.554688 -4.128906 3.796875 -4.265625 C 4.035156 -4.410156 4.226563 -4.484375 4.375 -4.484375 C 4.496094 -4.484375 4.597656 -4.445313 4.671875 -4.375 C 4.753906 -4.3125 4.796875 -4.238281 4.796875 -4.15625 Z M 4.796875 -4.15625 "/>
</symbol>
<symbol overflow="visible" id="svg17glyph0-4">
<path style="stroke:none;" d="M 6.484375 -6.765625 L 6.265625 -4.890625 L 5.9375 -4.875 C 5.957031 -5.246094 5.914063 -5.5625 5.8125 -5.8125 C 5.757813 -5.945313 5.652344 -6.035156 5.5 -6.078125 C 5.34375 -6.117188 5.054688 -6.140625 4.640625 -6.140625 L 3.90625 -6.140625 L 3 -1.234375 C 2.96875 -1.078125 2.945313 -0.949219 2.9375 -0.859375 C 2.925781 -0.773438 2.929688 -0.691406 2.953125 -0.609375 C 2.972656 -0.535156 2.992188 -0.480469 3.015625 -0.453125 C 3.042969 -0.421875 3.109375 -0.386719 3.203125 -0.359375 C 3.292969 -0.328125 3.382813 -0.304688 3.46875 -0.296875 C 3.550781 -0.296875 3.6875 -0.289063 3.875 -0.28125 L 3.8125 0 L 0.953125 0 L 1 -0.28125 C 1.457031 -0.308594 1.738281 -0.367188 1.84375 -0.453125 C 1.945313 -0.542969 2.039063 -0.804688 2.125 -1.234375 L 3.0625 -6.140625 L 2.515625 -6.140625 C 2.015625 -6.140625 1.675781 -6.117188 1.5 -6.078125 C 1.320313 -6.035156 1.183594 -5.957031 1.09375 -5.84375 C 0.925781 -5.65625 0.742188 -5.332031 0.546875 -4.875 L 0.234375 -4.875 C 0.441406 -5.527344 0.617188 -6.160156 0.765625 -6.765625 L 0.984375 -6.765625 C 1.023438 -6.640625 1.070313 -6.558594 1.125 -6.53125 C 1.175781 -6.507813 1.300781 -6.5 1.5 -6.5 L 5.671875 -6.5 C 5.824219 -6.5 5.9375 -6.515625 6 -6.546875 C 6.070313 -6.574219 6.160156 -6.648438 6.265625 -6.765625 Z M 6.484375 -6.765625 "/>
</symbol>
<symbol overflow="visible" id="svg17glyph0-5">
<path style="stroke:none;" d="M 2.375 0 L 0.15625 0 L 0.15625 -0.265625 C 0.464844 -0.292969 0.664063 -0.347656 0.75 -0.421875 C 0.832031 -0.503906 0.875 -0.710938 0.875 -1.046875 L 0.875 -5.765625 C 0.875 -6.097656 0.835938 -6.300781 0.765625 -6.375 C 0.691406 -6.445313 0.496094 -6.5 0.1875 -6.53125 L 0.1875 -6.765625 C 0.664063 -6.816406 1.15625 -6.9375 1.65625 -7.125 L 1.65625 -1.046875 C 1.65625 -0.710938 1.691406 -0.503906 1.765625 -0.421875 C 1.847656 -0.347656 2.050781 -0.292969 2.375 -0.265625 Z M 2.375 0 "/>
</symbol>
<symbol overflow="visible" id="svg17glyph0-6">
<path style="stroke:none;" d="M 5.234375 0 L 3.15625 0 L 3.15625 -0.265625 C 3.445313 -0.292969 3.628906 -0.351563 3.703125 -0.4375 C 3.773438 -0.519531 3.8125 -0.738281 3.8125 -1.09375 L 3.8125 -2.765625 C 3.8125 -3.523438 3.507813 -3.90625 2.90625 -3.90625 C 2.570313 -3.90625 2.207031 -3.730469 1.8125 -3.390625 L 1.8125 -1.046875 C 1.8125 -0.710938 1.84375 -0.503906 1.90625 -0.421875 C 1.976563 -0.347656 2.160156 -0.292969 2.453125 -0.265625 L 2.453125 0 L 0.296875 0 L 0.296875 -0.265625 C 0.628906 -0.292969 0.832031 -0.347656 0.90625 -0.421875 C 0.976563 -0.503906 1.015625 -0.710938 1.015625 -1.046875 L 1.015625 -3.09375 C 1.015625 -3.402344 0.980469 -3.597656 0.921875 -3.671875 C 0.859375 -3.753906 0.691406 -3.820313 0.421875 -3.875 L 0.421875 -4.109375 C 0.960938 -4.210938 1.425781 -4.347656 1.8125 -4.515625 L 1.8125 -3.71875 C 1.945313 -3.820313 2.171875 -3.976563 2.484375 -4.1875 C 2.792969 -4.382813 3.070313 -4.484375 3.3125 -4.484375 C 3.707031 -4.484375 4.019531 -4.347656 4.25 -4.078125 C 4.476563 -3.816406 4.59375 -3.445313 4.59375 -2.96875 L 4.59375 -1.046875 C 4.59375 -0.710938 4.625 -0.503906 4.6875 -0.421875 C 4.757813 -0.347656 4.941406 -0.292969 5.234375 -0.265625 Z M 5.234375 0 "/>
</symbol>
<symbol overflow="visible" id="svg17glyph0-7">
<path style="stroke:none;" d="M 5.15625 -2.765625 C 5.15625 -1.929688 4.691406 -1.160156 3.765625 -0.453125 C 3.523438 -0.273438 3.269531 -0.132813 3 -0.03125 C 2.738281 0.0703125 2.527344 0.125 2.375 0.125 C 2.113281 0.125 1.867188 -0.0195313 1.640625 -0.3125 C 1.578125 -0.0195313 1.511719 0.332031 1.453125 0.75 C 1.335938 1.644531 1.230469 2.148438 1.140625 2.265625 C 1.054688 2.367188 0.917969 2.445313 0.734375 2.5 C 0.546875 2.558594 0.394531 2.597656 0.28125 2.609375 L 0.234375 2.46875 C 0.378906 2.21875 0.65625 0.863281 1.0625 -1.59375 C 1.175781 -2.207031 1.328125 -2.691406 1.515625 -3.046875 C 1.699219 -3.410156 2 -3.734375 2.40625 -4.015625 C 2.851563 -4.324219 3.304688 -4.484375 3.765625 -4.484375 C 4.179688 -4.484375 4.515625 -4.320313 4.765625 -4 C 5.023438 -3.6875 5.15625 -3.273438 5.15625 -2.765625 Z M 4.3125 -2.59375 C 4.3125 -2.996094 4.222656 -3.332031 4.046875 -3.59375 C 3.867188 -3.863281 3.601563 -4 3.25 -4 C 2.90625 -4 2.632813 -3.832031 2.4375 -3.5 C 2.238281 -3.175781 2.074219 -2.683594 1.953125 -2.03125 L 1.703125 -0.765625 C 1.980469 -0.523438 2.28125 -0.40625 2.59375 -0.40625 C 3.113281 -0.40625 3.53125 -0.609375 3.84375 -1.015625 C 4.152344 -1.417969 4.3125 -1.945313 4.3125 -2.59375 Z M 4.3125 -2.59375 "/>
</symbol>
<symbol overflow="visible" id="svg17glyph0-8">
<path style="stroke:none;" d="M 3 1.46875 L 2.8125 1.703125 C 2.113281 1.222656 1.585938 0.601563 1.234375 -0.15625 C 0.878906 -0.914063 0.703125 -1.765625 0.703125 -2.703125 C 0.703125 -3.628906 0.878906 -4.472656 1.234375 -5.234375 C 1.585938 -5.992188 2.113281 -6.613281 2.8125 -7.09375 L 3 -6.859375 C 2.507813 -6.441406 2.121094 -5.863281 1.84375 -5.125 C 1.570313 -4.382813 1.4375 -3.574219 1.4375 -2.703125 C 1.4375 -1.835938 1.570313 -1.027344 1.84375 -0.28125 C 2.121094 0.464844 2.507813 1.050781 3 1.46875 Z M 3 1.46875 "/>
</symbol>
<symbol overflow="visible" id="svg17glyph0-9">
<path style="stroke:none;" d="M 4.9375 -5.140625 L 4.84375 -4.984375 C 4.46875 -5.492188 4.105469 -5.882813 3.765625 -6.15625 C 3.429688 -6.425781 3.066406 -6.5625 2.671875 -6.5625 C 2.367188 -6.5625 2.21875 -6.460938 2.21875 -6.265625 C 2.21875 -6.078125 2.582031 -5.570313 3.3125 -4.75 C 3.707031 -4.289063 3.992188 -3.894531 4.171875 -3.5625 C 4.347656 -3.226563 4.4375 -2.867188 4.4375 -2.484375 C 4.4375 -2.078125 4.335938 -1.679688 4.140625 -1.296875 C 3.941406 -0.910156 3.652344 -0.585938 3.28125 -0.328125 C 2.851563 -0.0234375 2.394531 0.125 1.90625 0.125 C 1.394531 0.125 0.988281 -0.0507813 0.6875 -0.40625 C 0.382813 -0.757813 0.234375 -1.210938 0.234375 -1.765625 C 0.234375 -2.261719 0.367188 -2.71875 0.640625 -3.125 C 0.910156 -3.527344 1.238281 -3.84375 1.625 -4.0625 C 1.902344 -4.238281 2.191406 -4.378906 2.484375 -4.484375 C 2.222656 -4.878906 2.027344 -5.1875 1.90625 -5.40625 C 1.789063 -5.621094 1.734375 -5.832031 1.734375 -6.03125 C 1.734375 -6.332031 1.863281 -6.585938 2.125 -6.796875 C 2.382813 -7.011719 2.6875 -7.125 3.03125 -7.125 C 3.382813 -7.125 3.707031 -7.003906 4 -6.765625 C 4.289063 -6.523438 4.507813 -6.257813 4.65625 -5.96875 C 4.800781 -5.6875 4.894531 -5.410156 4.9375 -5.140625 Z M 3.59375 -2.34375 C 3.59375 -2.902344 3.289063 -3.539063 2.6875 -4.25 C 2.375 -4.132813 2.128906 -3.976563 1.953125 -3.78125 C 1.410156 -3.1875 1.140625 -2.519531 1.140625 -1.78125 C 1.140625 -1.300781 1.25 -0.929688 1.46875 -0.671875 C 1.683594 -0.421875 1.925781 -0.296875 2.1875 -0.296875 C 2.496094 -0.296875 2.765625 -0.40625 2.984375 -0.625 C 3.199219 -0.839844 3.359375 -1.097656 3.453125 -1.390625 C 3.542969 -1.691406 3.59375 -2.007813 3.59375 -2.34375 Z M 3.59375 -2.34375 "/>
</symbol>
<symbol overflow="visible" id="svg17svg17glyph0-10">
<path style="stroke:none;" d="M 0.640625 -7.09375 C 2.042969 -6.132813 2.75 -4.664063 2.75 -2.6875 C 2.75 -0.71875 2.042969 0.742188 0.640625 1.703125 L 0.453125 1.46875 C 0.949219 1.050781 1.335938 0.472656 1.609375 -0.265625 C 1.886719 -1.011719 2.03125 -1.828125 2.03125 -2.703125 C 2.03125 -3.574219 1.886719 -4.382813 1.609375 -5.125 C 1.328125 -5.871094 0.941406 -6.453125 0.453125 -6.859375 Z M 0.640625 -7.09375 "/>
</symbol>
<symbol overflow="visible" id="svg17svg17glyph0-11">
<path style="stroke:none;" d="M 1.125 0.125 C 0.96875 0.125 0.835938 0.0703125 0.734375 -0.03125 C 0.628906 -0.144531 0.578125 -0.285156 0.578125 -0.453125 C 0.578125 -0.617188 0.628906 -0.753906 0.734375 -0.859375 C 0.847656 -0.972656 0.984375 -1.03125 1.140625 -1.03125 C 1.292969 -1.03125 1.425781 -0.972656 1.53125 -0.859375 C 1.644531 -0.753906 1.703125 -0.617188 1.703125 -0.453125 C 1.703125 -0.285156 1.644531 -0.144531 1.53125 -0.03125 C 1.425781 0.0703125 1.289063 0.125 1.125 0.125 Z M 1.125 0.125 "/>
</symbol>
<symbol overflow="visible" id="svg17glyph1-0">
<path style="stroke:none;" d="M 2.609375 -2.46875 L 2.609375 -2.453125 C 3.429688 -2.328125 3.84375 -1.957031 3.84375 -1.34375 C 3.84375 -0.875 3.617188 -0.519531 3.171875 -0.28125 C 2.828125 -0.09375 2.367188 0 1.796875 0 L 0.25 0 L 0.25 -0.203125 C 0.550781 -0.222656 0.734375 -0.265625 0.796875 -0.328125 C 0.855469 -0.386719 0.890625 -0.566406 0.890625 -0.859375 L 0.890625 -3.6875 C 0.890625 -3.976563 0.863281 -4.15625 0.8125 -4.21875 C 0.757813 -4.289063 0.589844 -4.335938 0.3125 -4.359375 L 0.3125 -4.546875 L 2.109375 -4.546875 C 2.585938 -4.546875 2.9375 -4.464844 3.15625 -4.3125 C 3.277344 -4.226563 3.375 -4.113281 3.4375 -3.96875 C 3.507813 -3.832031 3.546875 -3.679688 3.546875 -3.515625 C 3.546875 -2.992188 3.230469 -2.644531 2.609375 -2.46875 Z M 1.484375 -2.53125 L 1.8125 -2.53125 C 2.183594 -2.53125 2.460938 -2.601563 2.640625 -2.75 C 2.816406 -2.902344 2.90625 -3.132813 2.90625 -3.4375 C 2.90625 -3.695313 2.824219 -3.910156 2.671875 -4.078125 C 2.515625 -4.242188 2.277344 -4.328125 1.96875 -4.328125 C 1.78125 -4.328125 1.648438 -4.300781 1.578125 -4.25 C 1.515625 -4.21875 1.484375 -4.101563 1.484375 -3.90625 Z M 1.484375 -2.296875 L 1.484375 -0.875 C 1.484375 -0.625 1.523438 -0.449219 1.609375 -0.359375 C 1.691406 -0.273438 1.847656 -0.234375 2.078125 -0.234375 C 2.386719 -0.242188 2.644531 -0.332031 2.84375 -0.5 C 3.050781 -0.664063 3.15625 -0.921875 3.15625 -1.265625 C 3.15625 -1.949219 2.707031 -2.296875 1.8125 -2.296875 Z M 1.484375 -2.296875 "/>
</symbol>
</g>
</defs>
<g id="svg17_surface1">
<g style="fill:rgb(0%,0%,0%);fill-opacity:1;">
  <use xlink:href="#svg17glyph0-0" x="1.66" y="8.37"/>
</g>
<g style="fill:rgb(0%,0%,0%);fill-opacity:1;">
  <use xlink:href="#svg17glyph0-1" x="14.542159" y="8.37"/>
</g>
<g style="fill:rgb(0%,0%,0%);fill-opacity:1;">
  <use xlink:href="#svg17glyph0-2" x="23.160154" y="8.37"/>
  <use xlink:href="#svg17glyph0-3" x="29.008435" y="8.37"/>
</g>
<g style="fill:rgb(0%,0%,0%);fill-opacity:1;">
  <use xlink:href="#svg17glyph1-0" x="34.02" y="10.76"/>
</g>
<g style="fill:rgb(0%,0%,0%);fill-opacity:1;">
  <use xlink:href="#svg17glyph0-4" x="38.74" y="8.37"/>
</g>
<g style="fill:rgb(0%,0%,0%);fill-opacity:1;">
  <use xlink:href="#svg17glyph0-5" x="46.570918" y="8.37"/>
  <use xlink:href="#svg17glyph0-6" x="49.091557" y="8.37"/>
  <use xlink:href="#svg17glyph0-7" x="54.541318" y="8.37"/>
  <use xlink:href="#svg17glyph0-8" x="59.911375" y="8.37"/>
  <use xlink:href="#svg17glyph0-9" x="63.358573" y="8.37"/>
  <use xlink:href="#svg17svg17glyph0-10" x="68.509444" y="8.37"/>
  <use xlink:href="#svg17svg17glyph0-11" x="71.956642" y="8.37"/>
</g>
</g>
</svg>