<?xml version="1.0" encoding="UTF-8"?>
<svg xmlns="http://www.w3.org/2000/svg" xmlns:xlink="http://www.w3.org/1999/xlink" width="201.04pt" height="11.96pt" viewBox="0 0 201.04 11.96" version="1.1">
<defs>
<g>
<symbol overflow="visible" id="svg91glyph0-0">
<path style="stroke:none;" d="M 6.140625 -1.75 L 6.4375 -1.65625 C 6.207031 -0.925781 6.011719 -0.410156 5.859375 -0.109375 C 5.054688 0.0664063 4.441406 0.15625 4.015625 0.15625 C 3.421875 0.15625 2.882813 0.0546875 2.40625 -0.140625 C 1.9375 -0.335938 1.558594 -0.59375 1.28125 -0.90625 C 1.007813 -1.226563 0.800781 -1.582031 0.65625 -1.96875 C 0.507813 -2.351563 0.4375 -2.75 0.4375 -3.15625 C 0.4375 -4.207031 0.796875 -5.050781 1.515625 -5.6875 C 2.230469 -6.332031 3.160156 -6.65625 4.296875 -6.65625 C 4.535156 -6.65625 4.769531 -6.632813 5 -6.59375 C 5.238281 -6.5625 5.46875 -6.511719 5.6875 -6.453125 C 5.914063 -6.398438 6.039063 -6.375 6.0625 -6.375 C 6.152344 -5.695313 6.222656 -5.195313 6.265625 -4.875 L 5.96875 -4.796875 C 5.832031 -5.324219 5.605469 -5.707031 5.296875 -5.9375 C 4.992188 -6.175781 4.566406 -6.296875 4.015625 -6.296875 C 3.222656 -6.296875 2.597656 -6.003906 2.140625 -5.421875 C 1.679688 -4.847656 1.453125 -4.160156 1.453125 -3.359375 C 1.453125 -2.421875 1.695313 -1.660156 2.1875 -1.078125 C 2.683594 -0.492188 3.316406 -0.203125 4.078125 -0.203125 C 4.566406 -0.203125 4.960938 -0.328125 5.265625 -0.578125 C 5.574219 -0.824219 5.867188 -1.21875 6.140625 -1.75 Z M 6.140625 -1.75 "/>
</symbol>
<symbol overflow="visible" id="svg91glyph0-1">
<path style="stroke:none;" d="M 7.296875 -6.5 L 7.296875 -6.21875 C 6.878906 -6.1875 6.621094 -6.117188 6.53125 -6.015625 C 6.4375 -5.921875 6.390625 -5.667969 6.390625 -5.265625 L 6.390625 -1.234375 C 6.390625 -0.816406 6.429688 -0.558594 6.515625 -0.46875 C 6.605469 -0.375 6.863281 -0.308594 7.28125 -0.28125 L 7.28125 0 L 4.59375 0 L 4.59375 -0.28125 C 5.027344 -0.308594 5.296875 -0.375 5.390625 -0.46875 C 5.492188 -0.558594 5.546875 -0.816406 5.546875 -1.234375 L 5.546875 -3.21875 L 2.125 -3.21875 L 2.125 -1.234375 C 2.125 -0.816406 2.171875 -0.558594 2.265625 -0.46875 C 2.355469 -0.375 2.613281 -0.308594 3.03125 -0.28125 L 3.03125 0 L 0.40625 0 L 0.40625 -0.28125 C 0.808594 -0.308594 1.054688 -0.375 1.140625 -0.46875 C 1.230469 -0.558594 1.28125 -0.816406 1.28125 -1.234375 L 1.28125 -5.265625 C 1.28125 -5.679688 1.230469 -5.9375 1.140625 -6.03125 C 1.046875 -6.121094 0.789063 -6.1875 0.375 -6.21875 L 0.375 -6.5 L 2.96875 -6.5 L 2.96875 -6.21875 C 2.582031 -6.1875 2.339844 -6.121094 2.25 -6.03125 C 2.164063 -5.9375 2.125 -5.679688 2.125 -5.265625 L 2.125 -3.65625 L 5.546875 -3.65625 L 5.546875 -5.265625 C 5.546875 -5.667969 5.496094 -5.921875 5.40625 -6.015625 C 5.3125 -6.117188 5.070313 -6.1875 4.6875 -6.21875 L 4.6875 -6.5 Z M 7.296875 -6.5 "/>
</symbol>
<symbol overflow="visible" id="svg91glyph0-2">
<path style="stroke:none;" d="M 3.8125 -6.65625 C 4.683594 -6.65625 5.441406 -6.339844 6.078125 -5.71875 C 6.710938 -5.101563 7.03125 -4.304688 7.03125 -3.328125 C 7.03125 -2.273438 6.707031 -1.429688 6.0625 -0.796875 C 5.425781 -0.160156 4.632813 0.15625 3.6875 0.15625 C 2.769531 0.15625 1.996094 -0.160156 1.375 -0.796875 C 0.75 -1.429688 0.4375 -2.226563 0.4375 -3.1875 C 0.4375 -4.121094 0.742188 -4.9375 1.359375 -5.625 C 1.980469 -6.308594 2.800781 -6.65625 3.8125 -6.65625 Z M 3.59375 -6.296875 C 3 -6.296875 2.492188 -6.042969 2.078125 -5.546875 C 1.660156 -5.046875 1.453125 -4.347656 1.453125 -3.453125 C 1.453125 -2.515625 1.679688 -1.738281 2.140625 -1.125 C 2.605469 -0.507813 3.195313 -0.203125 3.90625 -0.203125 C 4.496094 -0.203125 5 -0.445313 5.40625 -0.9375 C 5.808594 -1.433594 6.015625 -2.144531 6.015625 -3.0625 C 6.015625 -4.070313 5.777344 -4.863281 5.3125 -5.4375 C 4.851563 -6.007813 4.277344 -6.296875 3.59375 -6.296875 Z M 3.59375 -6.296875 "/>
</symbol>
<symbol overflow="visible" id="svg91glyph0-3">
<path style="stroke:none;" d="M 5.34375 -2.296875 L 3.234375 -2.296875 L 3.234375 0.03125 L 2.65625 0.03125 L 2.65625 -2.296875 L 0.515625 -2.296875 L 0.515625 -2.796875 L 2.65625 -2.796875 L 2.65625 -4.90625 L 3.234375 -4.90625 L 3.234375 -2.796875 L 5.34375 -2.796875 Z M 5.34375 -2.296875 "/>
</symbol>
<symbol overflow="visible" id="svg91glyph0-4">
<path style="stroke:none;" d="M 2.84375 -3.78125 L 2.84375 -3.765625 C 3.277344 -3.671875 3.617188 -3.480469 3.859375 -3.203125 C 4.105469 -2.929688 4.234375 -2.605469 4.234375 -2.234375 C 4.234375 -1.859375 4.128906 -1.507813 3.921875 -1.1875 C 3.722656 -0.875 3.476563 -0.621094 3.1875 -0.4375 C 2.90625 -0.257813 2.621094 -0.117188 2.34375 -0.015625 C 2.0625 0.0742188 1.820313 0.125 1.625 0.125 C 1.414063 0.125 1.210938 0.0859375 1.015625 0.015625 C 0.828125 -0.0546875 0.695313 -0.132813 0.625 -0.21875 C 0.5 -0.339844 0.441406 -0.460938 0.453125 -0.578125 C 0.460938 -0.679688 0.539063 -0.789063 0.6875 -0.90625 C 0.769531 -0.976563 0.851563 -0.976563 0.9375 -0.90625 C 1.320313 -0.570313 1.734375 -0.40625 2.171875 -0.40625 C 2.535156 -0.40625 2.828125 -0.535156 3.046875 -0.796875 C 3.261719 -1.066406 3.375 -1.441406 3.375 -1.921875 C 3.375 -2.347656 3.242188 -2.664063 2.984375 -2.875 C 2.722656 -3.089844 2.429688 -3.203125 2.109375 -3.203125 C 1.910156 -3.203125 1.695313 -3.164063 1.46875 -3.09375 L 1.40625 -3.390625 C 1.925781 -3.554688 2.320313 -3.75 2.59375 -3.96875 C 2.863281 -4.183594 3 -4.46875 3 -4.8125 C 3 -5.113281 2.910156 -5.34375 2.734375 -5.5 C 2.554688 -5.664063 2.324219 -5.75 2.046875 -5.75 C 1.597656 -5.75 1.195313 -5.480469 0.84375 -4.953125 L 0.65625 -5.15625 L 1.078125 -5.796875 C 1.417969 -6.160156 1.84375 -6.34375 2.34375 -6.34375 L 2.359375 -6.34375 C 2.792969 -6.34375 3.148438 -6.214844 3.421875 -5.96875 C 3.699219 -5.726563 3.84375 -5.414063 3.84375 -5.03125 C 3.84375 -4.75 3.738281 -4.507813 3.53125 -4.3125 C 3.382813 -4.164063 3.152344 -3.988281 2.84375 -3.78125 Z M 2.84375 -3.78125 "/>
</symbol>
<symbol overflow="visible" id="svg91glyph0-5">
<path style="stroke:none;" d="M 15.375 -2.546875 C 14.894531 -2.140625 14.273438 -1.519531 13.515625 -0.6875 L 13.296875 -0.828125 L 14.3125 -2.296875 L 0.6875 -2.296875 L 0.6875 -2.796875 L 14.3125 -2.796875 L 13.296875 -4.265625 L 13.515625 -4.421875 C 14.273438 -3.585938 14.894531 -2.960938 15.375 -2.546875 Z M 15.375 -2.546875 "/>
</symbol>
<symbol overflow="visible" id="svg91glyph0-6">
<path style="stroke:none;" d="M 4.125 -1.40625 L 4.40625 -1.3125 C 4.40625 -1.300781 4.285156 -0.863281 4.046875 0 L 0.3125 0 L 0.3125 -0.234375 C 1.058594 -0.972656 1.601563 -1.539063 1.9375 -1.9375 C 2.320313 -2.394531 2.625 -2.8125 2.84375 -3.1875 C 3.070313 -3.570313 3.1875 -3.957031 3.1875 -4.34375 C 3.1875 -4.769531 3.082031 -5.097656 2.875 -5.328125 C 2.664063 -5.566406 2.378906 -5.6875 2.015625 -5.6875 C 1.515625 -5.6875 1.054688 -5.371094 0.640625 -4.75 L 0.421875 -4.953125 L 0.984375 -5.765625 C 1.355469 -6.148438 1.8125 -6.34375 2.34375 -6.34375 C 2.800781 -6.34375 3.191406 -6.183594 3.515625 -5.875 C 3.847656 -5.570313 4.015625 -5.164063 4.015625 -4.65625 C 4.015625 -4.25 3.914063 -3.867188 3.71875 -3.515625 C 3.53125 -3.171875 3.191406 -2.738281 2.703125 -2.21875 L 1.296875 -0.734375 L 3.15625 -0.734375 C 3.425781 -0.734375 3.617188 -0.765625 3.734375 -0.828125 C 3.847656 -0.898438 3.976563 -1.09375 4.125 -1.40625 Z M 4.125 -1.40625 "/>
</symbol>
<symbol overflow="visible" id="svg91glyph0-7">
<path style="stroke:none;" d="M 3.84375 0 L 1.09375 0 L 1.09375 -0.265625 C 1.539063 -0.292969 1.8125 -0.359375 1.90625 -0.453125 C 1.996094 -0.542969 2.046875 -0.773438 2.046875 -1.140625 L 2.046875 -4.984375 C 2.046875 -5.242188 2.019531 -5.40625 1.96875 -5.46875 C 1.925781 -5.527344 1.789063 -5.5625 1.5625 -5.5625 L 1.09375 -5.59375 L 1.09375 -5.828125 C 1.652344 -5.929688 2.25 -6.101563 2.875 -6.34375 L 2.875 -1.140625 C 2.875 -0.773438 2.921875 -0.542969 3.015625 -0.453125 C 3.105469 -0.359375 3.382813 -0.292969 3.84375 -0.265625 Z M 3.84375 0 "/>
</symbol>
<symbol overflow="visible" id="svg91glyph0-8">
<path style="stroke:none;" d="M 2.484375 -6.34375 C 2.949219 -6.34375 3.335938 -6.195313 3.640625 -5.90625 C 3.949219 -5.625 4.109375 -5.277344 4.109375 -4.875 C 4.109375 -4.5625 4.011719 -4.289063 3.828125 -4.0625 C 3.679688 -3.894531 3.414063 -3.683594 3.03125 -3.4375 C 3.445313 -3.195313 3.769531 -2.941406 4 -2.671875 C 4.226563 -2.410156 4.34375 -2.082031 4.34375 -1.6875 C 4.34375 -1.144531 4.132813 -0.707031 3.71875 -0.375 C 3.300781 -0.0390625 2.851563 0.125 2.375 0.125 C 1.820313 0.125 1.363281 -0.0234375 1 -0.328125 C 0.632813 -0.636719 0.453125 -1.050781 0.453125 -1.5625 C 0.453125 -1.914063 0.601563 -2.234375 0.90625 -2.515625 C 1.089844 -2.699219 1.390625 -2.914063 1.796875 -3.15625 C 1.066406 -3.570313 0.703125 -4.085938 0.703125 -4.703125 C 0.703125 -5.148438 0.867188 -5.535156 1.203125 -5.859375 C 1.535156 -6.179688 1.960938 -6.34375 2.484375 -6.34375 Z M 2.375 -6.03125 C 2.09375 -6.03125 1.867188 -5.925781 1.703125 -5.71875 C 1.535156 -5.507813 1.453125 -5.269531 1.453125 -5 C 1.453125 -4.664063 1.554688 -4.398438 1.765625 -4.203125 C 1.980469 -4.003906 2.316406 -3.792969 2.765625 -3.578125 C 3.167969 -3.898438 3.375 -4.3125 3.375 -4.8125 C 3.375 -5.207031 3.273438 -5.507813 3.078125 -5.71875 C 2.878906 -5.925781 2.644531 -6.03125 2.375 -6.03125 Z M 2.484375 -0.203125 C 2.785156 -0.203125 3.035156 -0.3125 3.234375 -0.53125 C 3.441406 -0.757813 3.546875 -1.0625 3.546875 -1.4375 C 3.546875 -1.769531 3.414063 -2.050781 3.15625 -2.28125 C 2.894531 -2.519531 2.527344 -2.757813 2.0625 -3 C 1.519531 -2.632813 1.25 -2.175781 1.25 -1.625 C 1.25 -1.175781 1.363281 -0.824219 1.59375 -0.578125 C 1.832031 -0.328125 2.128906 -0.203125 2.484375 -0.203125 Z M 2.484375 -0.203125 "/>
</symbol>
<symbol overflow="visible" id="svg91glyph0-9">
<path style="stroke:none;" d="M 2.40625 -6.34375 C 2.757813 -6.34375 3.070313 -6.246094 3.34375 -6.0625 C 3.621094 -5.875 3.835938 -5.617188 3.984375 -5.296875 C 4.128906 -4.984375 4.238281 -4.644531 4.3125 -4.28125 C 4.394531 -3.914063 4.4375 -3.527344 4.4375 -3.125 C 4.4375 -2.738281 4.394531 -2.363281 4.3125 -2 C 4.238281 -1.632813 4.121094 -1.285156 3.96875 -0.953125 C 3.820313 -0.628906 3.613281 -0.367188 3.34375 -0.171875 C 3.070313 0.0234375 2.753906 0.125 2.390625 0.125 C 2.035156 0.125 1.722656 0.0273438 1.453125 -0.15625 C 1.179688 -0.339844 0.960938 -0.59375 0.796875 -0.90625 C 0.640625 -1.214844 0.523438 -1.554688 0.453125 -1.921875 C 0.378906 -2.292969 0.34375 -2.695313 0.34375 -3.125 C 0.34375 -3.507813 0.378906 -3.882813 0.453125 -4.25 C 0.535156 -4.613281 0.65625 -4.957031 0.8125 -5.28125 C 0.964844 -5.601563 1.179688 -5.859375 1.453125 -6.046875 C 1.730469 -6.242188 2.050781 -6.34375 2.40625 -6.34375 Z M 2.375 -6.015625 C 2.164063 -6.015625 1.980469 -5.929688 1.828125 -5.765625 C 1.671875 -5.597656 1.550781 -5.367188 1.46875 -5.078125 C 1.382813 -4.796875 1.320313 -4.492188 1.28125 -4.171875 C 1.25 -3.859375 1.234375 -3.507813 1.234375 -3.125 C 1.234375 -2.625 1.265625 -2.164063 1.328125 -1.75 C 1.398438 -1.332031 1.523438 -0.972656 1.703125 -0.671875 C 1.886719 -0.367188 2.125 -0.21875 2.40625 -0.21875 C 2.613281 -0.21875 2.796875 -0.300781 2.953125 -0.46875 C 3.105469 -0.632813 3.226563 -0.863281 3.3125 -1.15625 C 3.394531 -1.445313 3.453125 -1.75 3.484375 -2.0625 C 3.523438 -2.382813 3.546875 -2.734375 3.546875 -3.109375 C 3.546875 -3.492188 3.523438 -3.847656 3.484375 -4.171875 C 3.453125 -4.492188 3.394531 -4.800781 3.3125 -5.09375 C 3.226563 -5.382813 3.101563 -5.609375 2.9375 -5.765625 C 2.78125 -5.929688 2.589844 -6.015625 2.375 -6.015625 Z M 2.375 -6.015625 "/>
</symbol>
<symbol overflow="visible" id="svg91svg91glyph0-10">
<path style="stroke:none;" d="M 5.125 0 L 3.765625 0.015625 C 3.648438 -0.0976563 3.101563 -0.753906 2.125 -1.953125 C 2 -2.105469 1.894531 -2.1875 1.8125 -2.1875 C 1.757813 -2.1875 1.707031 -2.175781 1.65625 -2.15625 L 1.65625 -1.046875 C 1.65625 -0.710938 1.691406 -0.503906 1.765625 -0.421875 C 1.835938 -0.347656 2.039063 -0.292969 2.375 -0.265625 L 2.375 0 L 0.140625 0 L 0.140625 -0.265625 C 0.472656 -0.285156 0.675781 -0.335938 0.75 -0.421875 C 0.832031 -0.511719 0.875 -0.722656 0.875 -1.046875 L 0.875 -5.765625 C 0.875 -6.097656 0.835938 -6.300781 0.765625 -6.375 C 0.703125 -6.445313 0.511719 -6.5 0.203125 -6.53125 L 0.203125 -6.765625 C 0.585938 -6.804688 1.070313 -6.925781 1.65625 -7.125 L 1.65625 -2.40625 C 1.894531 -2.457031 2.101563 -2.578125 2.28125 -2.765625 C 2.488281 -2.960938 2.722656 -3.253906 2.984375 -3.640625 C 3.097656 -3.792969 3.132813 -3.898438 3.09375 -3.953125 C 3.0625 -4.011719 2.925781 -4.054688 2.6875 -4.078125 L 2.6875 -4.34375 L 4.734375 -4.4375 L 4.734375 -4.1875 C 4.390625 -4.125 4.132813 -4.054688 3.96875 -3.984375 C 3.8125 -3.910156 3.632813 -3.777344 3.4375 -3.59375 C 3.226563 -3.382813 2.941406 -3.066406 2.578125 -2.640625 C 2.660156 -2.503906 2.890625 -2.210938 3.265625 -1.765625 C 3.648438 -1.316406 3.9375 -0.996094 4.125 -0.8125 C 4.445313 -0.46875 4.78125 -0.285156 5.125 -0.265625 Z M 5.125 0 "/>
</symbol>
<symbol overflow="visible" id="svg91svg91glyph0-11">
<path style="stroke:none;" d="M 3.03125 -6.5 L 3.03125 -6.21875 C 2.644531 -6.1875 2.402344 -6.117188 2.3125 -6.015625 C 2.226563 -5.921875 2.1875 -5.664063 2.1875 -5.25 L 2.1875 -1.515625 C 2.1875 -0.859375 2.121094 -0.335938 2 0.046875 C 1.875 0.429688 1.644531 0.769531 1.3125 1.0625 C 0.988281 1.363281 0.679688 1.5625 0.390625 1.65625 L 0.265625 1.359375 C 0.785156 1.109375 1.109375 0.675781 1.234375 0.0625 C 1.292969 -0.339844 1.328125 -0.976563 1.328125 -1.84375 L 1.328125 -5.25 C 1.328125 -5.664063 1.277344 -5.921875 1.1875 -6.015625 C 1.09375 -6.117188 0.839844 -6.1875 0.4375 -6.21875 L 0.4375 -6.5 Z M 3.03125 -6.5 "/>
</symbol>
<symbol overflow="visible" id="svg91svg91glyph0-12">
<path style="stroke:none;" d="M 3.6875 -7.03125 L 1.046875 1.625 L 0.4375 1.625 L 3.09375 -7.03125 Z M 3.6875 -7.03125 "/>
</symbol>
<symbol overflow="visible" id="svg91svg91glyph0-13">
<path style="stroke:none;" d="M 7.96875 0 L 5.828125 0 L 5.828125 -0.265625 C 6.136719 -0.292969 6.332031 -0.351563 6.40625 -0.4375 C 6.488281 -0.519531 6.53125 -0.726563 6.53125 -1.0625 L 6.53125 -2.734375 C 6.53125 -3.511719 6.238281 -3.90625 5.65625 -3.90625 C 5.332031 -3.90625 4.957031 -3.726563 4.53125 -3.375 C 4.550781 -3.257813 4.5625 -3.117188 4.5625 -2.953125 L 4.5625 -1.015625 C 4.5625 -0.703125 4.597656 -0.503906 4.671875 -0.421875 C 4.742188 -0.347656 4.921875 -0.292969 5.203125 -0.265625 L 5.203125 0 L 3.0625 0 L 3.0625 -0.265625 C 3.382813 -0.292969 3.582031 -0.347656 3.65625 -0.421875 C 3.726563 -0.503906 3.765625 -0.707031 3.765625 -1.03125 L 3.765625 -2.75 C 3.765625 -3.519531 3.472656 -3.90625 2.890625 -3.90625 C 2.578125 -3.90625 2.210938 -3.726563 1.796875 -3.375 L 1.796875 -1.03125 C 1.796875 -0.71875 1.828125 -0.519531 1.890625 -0.4375 C 1.960938 -0.351563 2.125 -0.292969 2.375 -0.265625 L 2.375 0 L 0.265625 0 L 0.265625 -0.265625 C 0.597656 -0.292969 0.804688 -0.347656 0.890625 -0.421875 C 0.972656 -0.503906 1.015625 -0.707031 1.015625 -1.03125 L 1.015625 -3.09375 C 1.015625 -3.414063 0.980469 -3.613281 0.921875 -3.6875 C 0.867188 -3.769531 0.695313 -3.832031 0.40625 -3.875 L 0.40625 -4.109375 C 0.933594 -4.199219 1.398438 -4.335938 1.796875 -4.515625 L 1.796875 -3.703125 C 1.816406 -3.722656 1.910156 -3.789063 2.078125 -3.90625 C 2.253906 -4.027344 2.40625 -4.128906 2.53125 -4.203125 C 2.832031 -4.386719 3.101563 -4.484375 3.34375 -4.484375 C 3.582031 -4.484375 3.800781 -4.410156 4 -4.265625 C 4.195313 -4.117188 4.347656 -3.914063 4.453125 -3.65625 C 4.617188 -3.789063 4.898438 -3.984375 5.296875 -4.234375 C 5.554688 -4.398438 5.804688 -4.484375 6.046875 -4.484375 C 6.441406 -4.484375 6.75 -4.347656 6.96875 -4.078125 C 7.195313 -3.816406 7.3125 -3.441406 7.3125 -2.953125 L 7.3125 -1.03125 C 7.3125 -0.707031 7.347656 -0.503906 7.421875 -0.421875 C 7.492188 -0.347656 7.675781 -0.292969 7.96875 -0.265625 Z M 7.96875 0 "/>
</symbol>
<symbol overflow="visible" id="svg91svg91glyph0-14">
<path style="stroke:none;" d="M 2.5625 -4.484375 C 3.175781 -4.484375 3.691406 -4.261719 4.109375 -3.828125 C 4.523438 -3.398438 4.734375 -2.878906 4.734375 -2.265625 C 4.734375 -1.515625 4.507813 -0.925781 4.0625 -0.5 C 3.613281 -0.0820313 3.113281 0.125 2.5625 0.125 C 1.90625 0.125 1.371094 -0.09375 0.96875 -0.53125 C 0.570313 -0.976563 0.375 -1.5 0.375 -2.09375 C 0.375 -2.488281 0.441406 -2.84375 0.578125 -3.15625 C 0.722656 -3.464844 0.90625 -3.71875 1.125 -3.90625 C 1.339844 -4.089844 1.578125 -4.234375 1.828125 -4.328125 C 2.074219 -4.429688 2.320313 -4.484375 2.5625 -4.484375 Z M 2.4375 -4.15625 C 2.113281 -4.15625 1.839844 -3.996094 1.625 -3.6875 C 1.40625 -3.375 1.296875 -2.945313 1.296875 -2.40625 C 1.296875 -1.769531 1.421875 -1.242188 1.671875 -0.828125 C 1.929688 -0.410156 2.265625 -0.203125 2.671875 -0.203125 C 3.011719 -0.203125 3.285156 -0.347656 3.484375 -0.640625 C 3.691406 -0.929688 3.796875 -1.398438 3.796875 -2.046875 C 3.796875 -2.648438 3.675781 -3.148438 3.4375 -3.546875 C 3.195313 -3.949219 2.863281 -4.15625 2.4375 -4.15625 Z M 2.4375 -4.15625 "/>
</symbol>
<symbol overflow="visible" id="svg91svg91glyph0-15">
<path style="stroke:none;" d="M 2.375 0 L 0.15625 0 L 0.15625 -0.265625 C 0.464844 -0.292969 0.664063 -0.347656 0.75 -0.421875 C 0.832031 -0.503906 0.875 -0.710938 0.875 -1.046875 L 0.875 -5.765625 C 0.875 -6.097656 0.835938 -6.300781 0.765625 -6.375 C 0.691406 -6.445313 0.496094 -6.5 0.1875 -6.53125 L 0.1875 -6.765625 C 0.664063 -6.816406 1.15625 -6.9375 1.65625 -7.125 L 1.65625 -1.046875 C 1.65625 -0.710938 1.691406 -0.503906 1.765625 -0.421875 C 1.847656 -0.347656 2.050781 -0.292969 2.375 -0.265625 Z M 2.375 0 "/>
</symbol>
<symbol overflow="visible" id="svg91glyph1-0">
<path style="stroke:none;" d="M 2.890625 -0.984375 L 3.078125 -0.921875 C 3.078125 -0.910156 2.992188 -0.601563 2.828125 0 L 0.21875 0 L 0.21875 -0.15625 C 0.746094 -0.675781 1.125 -1.070313 1.34375 -1.34375 C 1.621094 -1.675781 1.835938 -1.972656 1.984375 -2.234375 C 2.136719 -2.503906 2.21875 -2.773438 2.21875 -3.046875 C 2.21875 -3.335938 2.144531 -3.5625 2 -3.71875 C 1.863281 -3.882813 1.664063 -3.96875 1.40625 -3.96875 C 1.050781 -3.96875 0.730469 -3.753906 0.453125 -3.328125 L 0.296875 -3.46875 L 0.6875 -4.03125 C 0.945313 -4.300781 1.265625 -4.4375 1.640625 -4.4375 C 1.960938 -4.4375 2.238281 -4.324219 2.46875 -4.109375 C 2.695313 -3.898438 2.8125 -3.617188 2.8125 -3.265625 C 2.8125 -2.972656 2.742188 -2.699219 2.609375 -2.453125 C 2.472656 -2.210938 2.230469 -1.910156 1.890625 -1.546875 L 0.90625 -0.515625 L 2.203125 -0.515625 C 2.398438 -0.515625 2.535156 -0.535156 2.609375 -0.578125 C 2.691406 -0.628906 2.785156 -0.765625 2.890625 -0.984375 Z M 2.890625 -0.984375 "/>
</symbol>
<symbol overflow="visible" id="svg91glyph1-1">
<path style="stroke:none;" d="M 1.078125 -3.84375 L 0.890625 -2.546875 C 1.253906 -2.691406 1.515625 -2.765625 1.671875 -2.765625 C 2.085938 -2.765625 2.414063 -2.644531 2.65625 -2.40625 C 2.894531 -2.164063 3.015625 -1.886719 3.015625 -1.578125 C 3.015625 -1.140625 2.804688 -0.746094 2.390625 -0.40625 C 1.992188 -0.09375 1.589844 0.0664063 1.1875 0.078125 C 1.03125 0.078125 0.882813 0.0507813 0.75 0 C 0.613281 -0.0507813 0.519531 -0.101563 0.46875 -0.15625 C 0.382813 -0.238281 0.34375 -0.320313 0.34375 -0.40625 C 0.351563 -0.476563 0.40625 -0.550781 0.5 -0.625 C 0.558594 -0.664063 0.617188 -0.664063 0.671875 -0.625 C 0.960938 -0.382813 1.253906 -0.265625 1.546875 -0.265625 C 1.824219 -0.265625 2.039063 -0.363281 2.1875 -0.5625 C 2.339844 -0.769531 2.421875 -1.019531 2.421875 -1.3125 C 2.421875 -1.632813 2.320313 -1.890625 2.125 -2.078125 C 1.9375 -2.261719 1.652344 -2.359375 1.28125 -2.359375 C 1.039063 -2.359375 0.804688 -2.308594 0.578125 -2.21875 L 0.84375 -4.359375 L 2.84375 -4.359375 L 2.890625 -4.3125 L 2.703125 -3.84375 Z M 1.078125 -3.84375 "/>
</symbol>
</g>
</defs>
<g id="svg91_surface1">
<g style="fill:rgb(0%,0%,0%);fill-opacity:1;">
  <use xlink:href="#svg91glyph0-0" x="1.66" y="8.37"/>
</g>
<g style="fill:rgb(0%,0%,0%);fill-opacity:1;">
  <use xlink:href="#svg91glyph1-0" x="8.29" y="10.76"/>
</g>
<g style="fill:rgb(0%,0%,0%);fill-opacity:1;">
  <use xlink:href="#svg91glyph0-1" x="12.23" y="8.37"/>
</g>
<g style="fill:rgb(0%,0%,0%);fill-opacity:1;">
  <use xlink:href="#svg91glyph1-1" x="19.86" y="10.76"/>
</g>
<g style="fill:rgb(0%,0%,0%);fill-opacity:1;">
  <use xlink:href="#svg91glyph0-2" x="23.8" y="8.37"/>
  <use xlink:href="#svg91glyph0-1" x="31.242361" y="8.37"/>
</g>
<g style="fill:rgb(0%,0%,0%);fill-opacity:1;">
  <use xlink:href="#svg91glyph0-3" x="41.085805" y="8.37"/>
</g>
<g style="fill:rgb(0%,0%,0%);fill-opacity:1;">
  <use xlink:href="#svg91glyph0-4" x="49.145872" y="8.37"/>
  <use xlink:href="#svg91glyph0-2" x="53.928112" y="8.37"/>
</g>
<g style="fill:rgb(0%,0%,0%);fill-opacity:1;">
  <use xlink:href="#svg91glyph1-0" x="61.37" y="10.76"/>
</g>
<g style="fill:rgb(0%,0%,0%);fill-opacity:1;">
  <use xlink:href="#svg91glyph0-5" x="68.08" y="8.37"/>
</g>
<g style="fill:rgb(0%,0%,0%);fill-opacity:1;">
  <use xlink:href="#svg91glyph0-6" x="86.680921" y="8.37"/>
  <use xlink:href="#svg91glyph0-0" x="91.463161" y="8.37"/>
  <use xlink:href="#svg91glyph0-2" x="98.088556" y="8.37"/>
</g>
<g style="fill:rgb(0%,0%,0%);fill-opacity:1;">
  <use xlink:href="#svg91glyph1-0" x="105.54" y="10.76"/>
</g>
<g style="fill:rgb(0%,0%,0%);fill-opacity:1;">
  <use xlink:href="#svg91glyph0-3" x="111.69" y="8.37"/>
</g>
<g style="fill:rgb(0%,0%,0%);fill-opacity:1;">
  <use xlink:href="#svg91glyph0-4" x="119.750067" y="8.37"/>
  <use xlink:href="#svg91glyph0-1" x="124.532307" y="8.37"/>
</g>
<g style="fill:rgb(0%,0%,0%);fill-opacity:1;">
  <use xlink:href="#svg91glyph1-0" x="132.17" y="10.76"/>
</g>
<g style="fill:rgb(0%,0%,0%);fill-opacity:1;">
  <use xlink:href="#svg91glyph0-2" x="136.11" y="8.37"/>
</g>
<g style="fill:rgb(0%,0%,0%);fill-opacity:1;">
  <use xlink:href="#svg91glyph0-3" x="145.764147" y="8.37"/>
</g>
<g style="fill:rgb(0%,0%,0%);fill-opacity:1;">
  <use xlink:href="#svg91glyph0-7" x="153.824214" y="8.37"/>
  <use xlink:href="#svg91glyph0-4" x="158.606454" y="8.37"/>
  <use xlink:href="#svg91glyph0-8" x="163.388694" y="8.37"/>
  <use xlink:href="#svg91glyph0-9" x="168.170934" y="8.37"/>
  <use xlink:href="#svg91svg91glyph0-10" x="172.953174" y="8.37"/>
  <use xlink:href="#svg91svg91glyph0-11" x="177.894822" y="8.37"/>
  <use xlink:href="#svg91svg91glyph0-12" x="181.172649" y="8.37"/>
  <use xlink:href="#svg91svg91glyph0-13" x="185.277405" y="8.37"/>
  <use xlink:href="#svg91svg91glyph0-14" x="193.437102" y="8.37"/>
  <use xlink:href="#svg91svg91glyph0-15" x="198.518232" y="8.37"/>
</g>
</g>
</svg>