<?xml version="1.0" encoding="UTF-8"?>
<svg xmlns="http://www.w3.org/2000/svg" xmlns:xlink="http://www.w3.org/1999/xlink" width="150.95pt" height="22.72pt" viewBox="0 0 150.95 22.72" version="1.1">
<defs>
<g>
<symbol overflow="visible" id="svg22glyph0-0">
<path style="stroke:none;" d="M 4.796875 -4.15625 C 4.796875 -4.019531 4.738281 -3.882813 4.625 -3.75 C 4.5625 -3.675781 4.503906 -3.65625 4.453125 -3.6875 C 4.316406 -3.738281 4.175781 -3.765625 4.03125 -3.765625 C 3.613281 -3.765625 3.144531 -3.503906 2.625 -2.984375 C 2.777344 -2.523438 3.078125 -1.882813 3.515625 -1.0625 C 3.628906 -0.863281 3.71875 -0.726563 3.78125 -0.65625 C 3.839844 -0.582031 3.910156 -0.546875 3.984375 -0.546875 C 4.085938 -0.546875 4.289063 -0.695313 4.59375 -1 L 4.765625 -0.796875 C 4.335938 -0.179688 3.941406 0.125 3.578125 0.125 C 3.347656 0.125 3.113281 -0.0976563 2.875 -0.546875 C 2.601563 -1.023438 2.324219 -1.644531 2.046875 -2.40625 C 1.804688 -2.207031 1.597656 -2.003906 1.421875 -1.796875 C 1.242188 -1.035156 1.121094 -0.460938 1.0625 -0.078125 C 0.789063 -0.0234375 0.535156 0.0390625 0.296875 0.125 L 0.234375 0.0625 L 1.625 -6.0625 C 1.675781 -6.246094 1.675781 -6.359375 1.625 -6.390625 C 1.582031 -6.429688 1.460938 -6.457031 1.265625 -6.46875 L 0.921875 -6.484375 L 0.96875 -6.734375 C 1.214844 -6.761719 1.460938 -6.8125 1.703125 -6.875 C 1.941406 -6.933594 2.128906 -6.992188 2.265625 -7.046875 C 2.410156 -7.097656 2.5 -7.125 2.53125 -7.125 C 2.613281 -7.125 2.621094 -7.011719 2.5625 -6.796875 L 1.53125 -2.375 L 1.546875 -2.375 C 1.785156 -2.621094 2.109375 -2.929688 2.515625 -3.296875 C 2.773438 -3.535156 2.992188 -3.722656 3.171875 -3.859375 C 3.347656 -3.992188 3.554688 -4.128906 3.796875 -4.265625 C 4.035156 -4.410156 4.226563 -4.484375 4.375 -4.484375 C 4.496094 -4.484375 4.597656 -4.445313 4.671875 -4.375 C 4.753906 -4.3125 4.796875 -4.238281 4.796875 -4.15625 Z M 4.796875 -4.15625 "/>
</symbol>
<symbol overflow="visible" id="svg22glyph0-1">
<path style="stroke:none;" d="M 5.34375 -3.234375 L 0.515625 -3.234375 L 0.515625 -3.734375 L 5.34375 -3.734375 Z M 5.34375 -1.375 L 0.515625 -1.375 L 0.515625 -1.875 L 5.34375 -1.875 Z M 5.34375 -1.375 "/>
</symbol>
<symbol overflow="visible" id="svg22glyph0-2">
<path style="stroke:none;" d="M 3.84375 0 L 1.09375 0 L 1.09375 -0.265625 C 1.539063 -0.292969 1.8125 -0.359375 1.90625 -0.453125 C 1.996094 -0.542969 2.046875 -0.773438 2.046875 -1.140625 L 2.046875 -4.984375 C 2.046875 -5.242188 2.019531 -5.40625 1.96875 -5.46875 C 1.925781 -5.527344 1.789063 -5.5625 1.5625 -5.5625 L 1.09375 -5.59375 L 1.09375 -5.828125 C 1.652344 -5.929688 2.25 -6.101563 2.875 -6.34375 L 2.875 -1.140625 C 2.875 -0.773438 2.921875 -0.542969 3.015625 -0.453125 C 3.105469 -0.359375 3.382813 -0.292969 3.84375 -0.265625 Z M 3.84375 0 "/>
</symbol>
<symbol overflow="visible" id="svg22glyph0-3">
<path style="stroke:none;" d="M 4.125 -1.40625 L 4.40625 -1.3125 C 4.40625 -1.300781 4.285156 -0.863281 4.046875 0 L 0.3125 0 L 0.3125 -0.234375 C 1.058594 -0.972656 1.601563 -1.539063 1.9375 -1.9375 C 2.320313 -2.394531 2.625 -2.8125 2.84375 -3.1875 C 3.070313 -3.570313 3.1875 -3.957031 3.1875 -4.34375 C 3.1875 -4.769531 3.082031 -5.097656 2.875 -5.328125 C 2.664063 -5.566406 2.378906 -5.6875 2.015625 -5.6875 C 1.515625 -5.6875 1.054688 -5.371094 0.640625 -4.75 L 0.421875 -4.953125 L 0.984375 -5.765625 C 1.355469 -6.148438 1.8125 -6.34375 2.34375 -6.34375 C 2.800781 -6.34375 3.191406 -6.183594 3.515625 -5.875 C 3.847656 -5.570313 4.015625 -5.164063 4.015625 -4.65625 C 4.015625 -4.25 3.914063 -3.867188 3.71875 -3.515625 C 3.53125 -3.171875 3.191406 -2.738281 2.703125 -2.21875 L 1.296875 -0.734375 L 3.15625 -0.734375 C 3.425781 -0.734375 3.617188 -0.765625 3.734375 -0.828125 C 3.847656 -0.898438 3.976563 -1.09375 4.125 -1.40625 Z M 4.125 -1.40625 "/>
</symbol>
<symbol overflow="visible" id="svg22glyph0-4">
<path style="stroke:none;" d="M 6.90625 8.390625 L 6.1875 8.390625 L 1.234375 -2.671875 L 1.234375 -2.734375 L 6.1875 -13.796875 L 6.90625 -13.796875 L 1.96875 -2.703125 Z M 6.90625 8.390625 "/>
</symbol>
<symbol overflow="visible" id="svg22glyph0-5">
<path style="stroke:none;" d="M 1.625 8.390625 L 1.015625 8.390625 L 1.015625 -13.796875 L 1.625 -13.796875 Z M 1.625 8.390625 "/>
</symbol>
<symbol overflow="visible" id="svg22glyph0-6">
<path style="stroke:none;" d="M 5.296875 -6.859375 C 4.773438 -4.660156 4.355469 -2.675781 4.046875 -0.90625 C 4.003906 -0.75 4.015625 -0.671875 4.078125 -0.671875 C 4.222656 -0.671875 4.476563 -0.847656 4.84375 -1.203125 L 5.015625 -0.953125 C 4.734375 -0.628906 4.433594 -0.367188 4.125 -0.171875 C 3.820313 0.0234375 3.582031 0.125 3.40625 0.125 C 3.164063 0.125 3.101563 -0.148438 3.21875 -0.703125 L 3.4375 -1.703125 L 3.40625 -1.703125 C 3 -1.148438 2.488281 -0.679688 1.875 -0.296875 C 1.445313 -0.015625 1.121094 0.125 0.90625 0.125 C 0.71875 0.125 0.554688 0.0195313 0.421875 -0.1875 C 0.296875 -0.402344 0.234375 -0.710938 0.234375 -1.109375 C 0.234375 -1.574219 0.335938 -2.054688 0.546875 -2.546875 C 0.761719 -3.035156 1.0625 -3.429688 1.4375 -3.734375 C 1.675781 -3.929688 1.988281 -4.101563 2.375 -4.25 C 2.757813 -4.402344 3.070313 -4.484375 3.3125 -4.484375 C 3.570313 -4.484375 3.800781 -4.433594 4 -4.34375 L 4.296875 -5.9375 C 4.335938 -6.195313 4.339844 -6.351563 4.3125 -6.40625 C 4.28125 -6.457031 4.152344 -6.484375 3.9375 -6.484375 L 3.578125 -6.484375 L 3.59375 -6.734375 C 3.851563 -6.761719 4.101563 -6.8125 4.34375 -6.875 C 4.589844 -6.933594 4.789063 -6.992188 4.9375 -7.046875 C 5.082031 -7.097656 5.171875 -7.125 5.203125 -7.125 C 5.316406 -7.125 5.347656 -7.035156 5.296875 -6.859375 Z M 3.875 -3.75 C 3.800781 -3.820313 3.667969 -3.890625 3.484375 -3.953125 C 3.296875 -4.011719 3.121094 -4.046875 2.96875 -4.046875 C 2.664063 -4.046875 2.402344 -3.964844 2.1875 -3.8125 C 1.875 -3.59375 1.613281 -3.230469 1.40625 -2.734375 C 1.195313 -2.234375 1.09375 -1.753906 1.09375 -1.296875 C 1.09375 -1.035156 1.125 -0.839844 1.1875 -0.71875 C 1.246094 -0.59375 1.328125 -0.53125 1.421875 -0.53125 C 1.679688 -0.53125 2.054688 -0.765625 2.546875 -1.234375 C 3.042969 -1.699219 3.378906 -2.09375 3.546875 -2.40625 Z M 3.875 -3.75 "/>
</symbol>
<symbol overflow="visible" id="svg22glyph0-7">
<path style="stroke:none;" d="M 4.9375 -5.140625 L 4.84375 -4.984375 C 4.46875 -5.492188 4.105469 -5.882813 3.765625 -6.15625 C 3.429688 -6.425781 3.066406 -6.5625 2.671875 -6.5625 C 2.367188 -6.5625 2.21875 -6.460938 2.21875 -6.265625 C 2.21875 -6.078125 2.582031 -5.570313 3.3125 -4.75 C 3.707031 -4.289063 3.992188 -3.894531 4.171875 -3.5625 C 4.347656 -3.226563 4.4375 -2.867188 4.4375 -2.484375 C 4.4375 -2.078125 4.335938 -1.679688 4.140625 -1.296875 C 3.941406 -0.910156 3.652344 -0.585938 3.28125 -0.328125 C 2.851563 -0.0234375 2.394531 0.125 1.90625 0.125 C 1.394531 0.125 0.988281 -0.0507813 0.6875 -0.40625 C 0.382813 -0.757813 0.234375 -1.210938 0.234375 -1.765625 C 0.234375 -2.261719 0.367188 -2.71875 0.640625 -3.125 C 0.910156 -3.527344 1.238281 -3.84375 1.625 -4.0625 C 1.902344 -4.238281 2.191406 -4.378906 2.484375 -4.484375 C 2.222656 -4.878906 2.027344 -5.1875 1.90625 -5.40625 C 1.789063 -5.621094 1.734375 -5.832031 1.734375 -6.03125 C 1.734375 -6.332031 1.863281 -6.585938 2.125 -6.796875 C 2.382813 -7.011719 2.6875 -7.125 3.03125 -7.125 C 3.382813 -7.125 3.707031 -7.003906 4 -6.765625 C 4.289063 -6.523438 4.507813 -6.257813 4.65625 -5.96875 C 4.800781 -5.6875 4.894531 -5.410156 4.9375 -5.140625 Z M 3.59375 -2.34375 C 3.59375 -2.902344 3.289063 -3.539063 2.6875 -4.25 C 2.375 -4.132813 2.128906 -3.976563 1.953125 -3.78125 C 1.410156 -3.1875 1.140625 -2.519531 1.140625 -1.78125 C 1.140625 -1.300781 1.25 -0.929688 1.46875 -0.671875 C 1.683594 -0.421875 1.925781 -0.296875 2.1875 -0.296875 C 2.496094 -0.296875 2.765625 -0.40625 2.984375 -0.625 C 3.199219 -0.839844 3.359375 -1.097656 3.453125 -1.390625 C 3.542969 -1.691406 3.59375 -2.007813 3.59375 -2.34375 Z M 3.59375 -2.34375 "/>
</symbol>
<symbol overflow="visible" id="svg22glyph0-8">
<path style="stroke:none;" d="M 3.234375 -4.296875 L 2.984375 -3.9375 L 1.859375 -3.90625 L 1.3125 -1.25 C 1.226563 -0.8125 1.25 -0.59375 1.375 -0.59375 C 1.464844 -0.59375 1.617188 -0.65625 1.828125 -0.78125 C 2.035156 -0.914063 2.203125 -1.050781 2.328125 -1.1875 L 2.5 -0.953125 C 2.25 -0.679688 1.960938 -0.429688 1.640625 -0.203125 C 1.328125 0.0117188 1.035156 0.125 0.765625 0.125 C 0.429688 0.125 0.363281 -0.335938 0.5625 -1.265625 L 1.109375 -3.875 L 0.3125 -3.875 L 0.296875 -3.953125 L 0.546875 -4.296875 L 1.203125 -4.296875 L 1.453125 -5.296875 L 2.234375 -5.921875 L 2.328125 -5.828125 L 1.953125 -4.296875 Z M 3.234375 -4.296875 "/>
</symbol>
<symbol overflow="visible" id="svg22glyph0-9">
<path style="stroke:none;" d="M 6.796875 -2.671875 L 1.859375 8.390625 L 1.125 8.390625 L 6.0625 -2.703125 L 1.125 -13.796875 L 1.859375 -13.796875 L 6.796875 -2.734375 Z M 6.796875 -2.671875 "/>
</symbol>
<symbol overflow="visible" id="svg22svg22glyph0-10">
<path style="stroke:none;" d="M 5.15625 -2.765625 C 5.15625 -1.929688 4.691406 -1.160156 3.765625 -0.453125 C 3.523438 -0.273438 3.269531 -0.132813 3 -0.03125 C 2.738281 0.0703125 2.527344 0.125 2.375 0.125 C 2.113281 0.125 1.867188 -0.0195313 1.640625 -0.3125 C 1.578125 -0.0195313 1.511719 0.332031 1.453125 0.75 C 1.335938 1.644531 1.230469 2.148438 1.140625 2.265625 C 1.054688 2.367188 0.917969 2.445313 0.734375 2.5 C 0.546875 2.558594 0.394531 2.597656 0.28125 2.609375 L 0.234375 2.46875 C 0.378906 2.21875 0.65625 0.863281 1.0625 -1.59375 C 1.175781 -2.207031 1.328125 -2.691406 1.515625 -3.046875 C 1.699219 -3.410156 2 -3.734375 2.40625 -4.015625 C 2.851563 -4.324219 3.304688 -4.484375 3.765625 -4.484375 C 4.179688 -4.484375 4.515625 -4.320313 4.765625 -4 C 5.023438 -3.6875 5.15625 -3.273438 5.15625 -2.765625 Z M 4.3125 -2.59375 C 4.3125 -2.996094 4.222656 -3.332031 4.046875 -3.59375 C 3.867188 -3.863281 3.601563 -4 3.25 -4 C 2.90625 -4 2.632813 -3.832031 2.4375 -3.5 C 2.238281 -3.175781 2.074219 -2.683594 1.953125 -2.03125 L 1.703125 -0.765625 C 1.980469 -0.523438 2.28125 -0.40625 2.59375 -0.40625 C 3.113281 -0.40625 3.53125 -0.609375 3.84375 -1.015625 C 4.152344 -1.417969 4.3125 -1.945313 4.3125 -2.59375 Z M 4.3125 -2.59375 "/>
</symbol>
<symbol overflow="visible" id="svg22svg22glyph0-11">
<path style="stroke:none;" d="M 3 1.46875 L 2.8125 1.703125 C 2.113281 1.222656 1.585938 0.601563 1.234375 -0.15625 C 0.878906 -0.914063 0.703125 -1.765625 0.703125 -2.703125 C 0.703125 -3.628906 0.878906 -4.472656 1.234375 -5.234375 C 1.585938 -5.992188 2.113281 -6.613281 2.8125 -7.09375 L 3 -6.859375 C 2.507813 -6.441406 2.121094 -5.863281 1.84375 -5.125 C 1.570313 -4.382813 1.4375 -3.574219 1.4375 -2.703125 C 1.4375 -1.835938 1.570313 -1.027344 1.84375 -0.28125 C 2.121094 0.464844 2.507813 1.050781 3 1.46875 Z M 3 1.46875 "/>
</symbol>
<symbol overflow="visible" id="svg22svg22glyph0-12">
<path style="stroke:none;" d="M 0.640625 -7.09375 C 2.042969 -6.132813 2.75 -4.664063 2.75 -2.6875 C 2.75 -0.71875 2.042969 0.742188 0.640625 1.703125 L 0.453125 1.46875 C 0.949219 1.050781 1.335938 0.472656 1.609375 -0.265625 C 1.886719 -1.011719 2.03125 -1.828125 2.03125 -2.703125 C 2.03125 -3.574219 1.886719 -4.382813 1.609375 -5.125 C 1.328125 -5.871094 0.941406 -6.453125 0.453125 -6.859375 Z M 0.640625 -7.09375 "/>
</symbol>
<symbol overflow="visible" id="svg22svg22glyph0-13">
<path style="stroke:none;" d="M 3.6875 -7.03125 L 1.046875 1.625 L 0.4375 1.625 L 3.09375 -7.03125 Z M 3.6875 -7.03125 "/>
</symbol>
<symbol overflow="visible" id="svg22svg22glyph0-14">
<path style="stroke:none;" d="M 5.5 -12.703125 C 5.632813 -12.597656 5.703125 -12.460938 5.703125 -12.296875 C 5.703125 -12.140625 5.644531 -12.007813 5.53125 -11.90625 C 5.425781 -11.8125 5.289063 -11.765625 5.125 -11.765625 C 4.96875 -11.765625 4.824219 -11.832031 4.703125 -11.96875 C 4.578125 -12.113281 4.464844 -12.1875 4.375 -12.1875 C 4.269531 -12.1875 4.183594 -12.136719 4.125 -12.046875 C 4.0625 -11.953125 4.007813 -11.746094 3.96875 -11.4375 C 3.9375 -11.132813 3.921875 -10.699219 3.921875 -10.140625 L 3.984375 1.875 C 3.992188 3.914063 3.816406 5.40625 3.453125 6.34375 C 3.085938 7.277344 2.535156 7.75 1.796875 7.75 C 1.554688 7.75 1.363281 7.679688 1.21875 7.546875 C 1.082031 7.421875 1.015625 7.269531 1.015625 7.09375 C 1.015625 6.9375 1.066406 6.804688 1.171875 6.703125 C 1.285156 6.597656 1.414063 6.546875 1.5625 6.546875 C 1.714844 6.546875 1.878906 6.625 2.046875 6.78125 C 2.222656 6.933594 2.351563 7.015625 2.4375 7.015625 C 2.601563 7.015625 2.71875 6.878906 2.78125 6.609375 C 2.851563 6.335938 2.882813 5.808594 2.875 5.03125 L 2.796875 -7.9375 C 2.796875 -9.550781 2.984375 -10.773438 3.359375 -11.609375 C 3.742188 -12.449219 4.296875 -12.875 5.015625 -12.875 C 5.210938 -12.875 5.375 -12.816406 5.5 -12.703125 Z M 5.5 -12.703125 "/>
</symbol>
<symbol overflow="visible" id="svg22svg22glyph0-15">
<path style="stroke:none;" d="M 1.125 0.125 C 0.96875 0.125 0.835938 0.0703125 0.734375 -0.03125 C 0.628906 -0.144531 0.578125 -0.285156 0.578125 -0.453125 C 0.578125 -0.617188 0.628906 -0.753906 0.734375 -0.859375 C 0.847656 -0.972656 0.984375 -1.03125 1.140625 -1.03125 C 1.292969 -1.03125 1.425781 -0.972656 1.53125 -0.859375 C 1.644531 -0.753906 1.703125 -0.617188 1.703125 -0.453125 C 1.703125 -0.285156 1.644531 -0.144531 1.53125 -0.03125 C 1.425781 0.0703125 1.289063 0.125 1.125 0.125 Z M 1.125 0.125 "/>
</symbol>
<symbol overflow="visible" id="svg22glyph1-0">
<path style="stroke:none;" d="M 4.140625 -3.484375 L 3.9375 -3.46875 C 3.875 -3.757813 3.800781 -3.96875 3.71875 -4.09375 C 3.65625 -4.175781 3.574219 -4.234375 3.484375 -4.265625 C 3.390625 -4.292969 3.210938 -4.3125 2.953125 -4.3125 L 2.46875 -4.3125 L 2.46875 -0.859375 C 2.46875 -0.578125 2.503906 -0.398438 2.578125 -0.328125 C 2.648438 -0.253906 2.847656 -0.210938 3.171875 -0.203125 L 3.171875 0 L 1.171875 0 L 1.171875 -0.203125 C 1.492188 -0.210938 1.691406 -0.253906 1.765625 -0.328125 C 1.835938 -0.398438 1.875 -0.578125 1.875 -0.859375 L 1.875 -4.3125 L 1.4375 -4.3125 C 1.15625 -4.3125 0.957031 -4.292969 0.84375 -4.265625 C 0.738281 -4.234375 0.664063 -4.175781 0.625 -4.09375 C 0.5625 -4.007813 0.488281 -3.800781 0.40625 -3.46875 L 0.203125 -3.46875 C 0.242188 -4.007813 0.269531 -4.425781 0.28125 -4.71875 L 0.421875 -4.71875 C 0.460938 -4.644531 0.507813 -4.597656 0.5625 -4.578125 C 0.613281 -4.554688 0.695313 -4.546875 0.8125 -4.546875 L 3.5625 -4.546875 C 3.652344 -4.546875 3.722656 -4.554688 3.765625 -4.578125 C 3.816406 -4.605469 3.867188 -4.65625 3.921875 -4.71875 L 4.0625 -4.71875 C 4.070313 -4.3125 4.097656 -3.898438 4.140625 -3.484375 Z M 4.140625 -3.484375 "/>
</symbol>
<symbol overflow="visible" id="svg22glyph1-1">
<path style="stroke:none;" d="M 2.859375 -3.53125 L 2.65625 -3.5 C 2.582031 -3.769531 2.476563 -3.988281 2.34375 -4.15625 C 2.21875 -4.332031 2.019531 -4.421875 1.75 -4.421875 C 1.488281 -4.421875 1.289063 -4.339844 1.15625 -4.1875 C 1.03125 -4.039063 0.96875 -3.863281 0.96875 -3.65625 C 0.96875 -3.414063 1.035156 -3.222656 1.171875 -3.078125 C 1.316406 -2.929688 1.546875 -2.777344 1.859375 -2.625 C 1.972656 -2.5625 2.050781 -2.511719 2.09375 -2.484375 C 2.144531 -2.460938 2.222656 -2.414063 2.328125 -2.34375 C 2.441406 -2.28125 2.519531 -2.226563 2.5625 -2.1875 C 2.613281 -2.144531 2.675781 -2.082031 2.75 -2 C 2.832031 -1.925781 2.890625 -1.851563 2.921875 -1.78125 C 2.960938 -1.71875 2.992188 -1.632813 3.015625 -1.53125 C 3.042969 -1.4375 3.0625 -1.332031 3.0625 -1.21875 C 3.0625 -0.84375 2.914063 -0.523438 2.625 -0.265625 C 2.34375 -0.015625 1.972656 0.109375 1.515625 0.109375 C 1.296875 0.109375 1.066406 0.0703125 0.828125 0 C 0.722656 -0.0273438 0.601563 -0.078125 0.46875 -0.140625 C 0.4375 -0.253906 0.371094 -0.617188 0.28125 -1.234375 L 0.5 -1.28125 C 0.527344 -1.15625 0.570313 -1.027344 0.625 -0.90625 C 0.675781 -0.789063 0.742188 -0.667969 0.828125 -0.546875 C 0.917969 -0.429688 1.035156 -0.332031 1.171875 -0.25 C 1.316406 -0.175781 1.472656 -0.140625 1.640625 -0.140625 C 1.898438 -0.140625 2.101563 -0.21875 2.25 -0.375 C 2.402344 -0.527344 2.484375 -0.734375 2.484375 -0.984375 C 2.484375 -1.222656 2.410156 -1.414063 2.265625 -1.5625 C 2.117188 -1.707031 1.886719 -1.863281 1.578125 -2.03125 C 1.203125 -2.238281 0.945313 -2.410156 0.8125 -2.546875 C 0.550781 -2.785156 0.421875 -3.070313 0.421875 -3.40625 C 0.421875 -3.757813 0.550781 -4.054688 0.8125 -4.296875 C 1.070313 -4.535156 1.421875 -4.65625 1.859375 -4.65625 C 2.105469 -4.65625 2.40625 -4.601563 2.75 -4.5 C 2.769531 -4.300781 2.804688 -3.976563 2.859375 -3.53125 Z M 2.859375 -3.53125 "/>
</symbol>
<symbol overflow="visible" id="svg22glyph1-2">
<path style="stroke:none;" d="M 4.546875 -4.734375 L 4.390625 -3.421875 L 4.15625 -3.40625 C 4.164063 -3.664063 4.136719 -3.882813 4.078125 -4.0625 C 4.035156 -4.152344 3.957031 -4.21875 3.84375 -4.25 C 3.738281 -4.277344 3.539063 -4.296875 3.25 -4.296875 L 2.734375 -4.296875 L 2.09375 -0.859375 C 2.082031 -0.753906 2.070313 -0.667969 2.0625 -0.609375 C 2.050781 -0.546875 2.050781 -0.480469 2.0625 -0.421875 C 2.082031 -0.367188 2.097656 -0.332031 2.109375 -0.3125 C 2.128906 -0.289063 2.171875 -0.269531 2.234375 -0.25 C 2.304688 -0.226563 2.367188 -0.210938 2.421875 -0.203125 C 2.480469 -0.203125 2.582031 -0.203125 2.71875 -0.203125 L 2.671875 0 L 0.671875 0 L 0.703125 -0.203125 C 1.011719 -0.222656 1.207031 -0.265625 1.28125 -0.328125 C 1.363281 -0.386719 1.429688 -0.566406 1.484375 -0.859375 L 2.140625 -4.296875 L 1.75 -4.296875 C 1.40625 -4.296875 1.167969 -4.277344 1.046875 -4.25 C 0.929688 -4.226563 0.835938 -4.175781 0.765625 -4.09375 C 0.648438 -3.957031 0.523438 -3.726563 0.390625 -3.40625 L 0.15625 -3.421875 C 0.308594 -3.878906 0.4375 -4.316406 0.53125 -4.734375 L 0.6875 -4.734375 C 0.714844 -4.648438 0.75 -4.597656 0.78125 -4.578125 C 0.820313 -4.554688 0.910156 -4.546875 1.046875 -4.546875 L 3.96875 -4.546875 C 4.070313 -4.546875 4.148438 -4.554688 4.203125 -4.578125 C 4.253906 -4.605469 4.3125 -4.660156 4.375 -4.734375 Z M 4.546875 -4.734375 "/>
</symbol>
<symbol overflow="visible" id="svg22glyph1-3">
<path style="stroke:none;" d="M 3.203125 -3.421875 L 2.984375 -3.390625 C 2.910156 -4.085938 2.605469 -4.4375 2.078125 -4.4375 C 1.828125 -4.4375 1.628906 -4.351563 1.484375 -4.1875 C 1.335938 -4.03125 1.265625 -3.835938 1.265625 -3.609375 C 1.265625 -3.410156 1.320313 -3.238281 1.4375 -3.09375 C 1.550781 -2.957031 1.722656 -2.816406 1.953125 -2.671875 L 2.1875 -2.515625 C 2.476563 -2.316406 2.695313 -2.117188 2.84375 -1.921875 C 2.996094 -1.722656 3.078125 -1.488281 3.078125 -1.21875 C 3.078125 -0.820313 2.917969 -0.496094 2.609375 -0.25 C 2.296875 0 1.914063 0.125 1.46875 0.125 C 1.195313 0.125 0.929688 0.0703125 0.671875 -0.03125 C 0.421875 -0.132813 0.257813 -0.238281 0.1875 -0.34375 L 0.15625 -1.40625 L 0.34375 -1.421875 C 0.363281 -1.273438 0.398438 -1.128906 0.453125 -0.984375 C 0.503906 -0.847656 0.578125 -0.710938 0.671875 -0.578125 C 0.761719 -0.441406 0.890625 -0.332031 1.046875 -0.25 C 1.199219 -0.164063 1.378906 -0.125 1.578125 -0.125 C 1.835938 -0.125 2.050781 -0.203125 2.21875 -0.359375 C 2.394531 -0.523438 2.484375 -0.75 2.484375 -1.03125 C 2.484375 -1.214844 2.417969 -1.382813 2.296875 -1.53125 C 2.179688 -1.675781 1.996094 -1.832031 1.75 -2 L 1.546875 -2.15625 C 1.390625 -2.257813 1.257813 -2.351563 1.15625 -2.4375 C 1.0625 -2.527344 0.957031 -2.664063 0.84375 -2.84375 C 0.738281 -3.019531 0.6875 -3.203125 0.6875 -3.390625 C 0.6875 -3.773438 0.820313 -4.082031 1.09375 -4.3125 C 1.363281 -4.550781 1.726563 -4.671875 2.1875 -4.671875 C 2.394531 -4.671875 2.628906 -4.628906 2.890625 -4.546875 C 2.929688 -4.535156 2.972656 -4.519531 3.015625 -4.5 C 3.066406 -4.488281 3.109375 -4.472656 3.140625 -4.453125 C 3.167969 -4.441406 3.191406 -4.4375 3.203125 -4.4375 C 3.179688 -4.1875 3.179688 -3.847656 3.203125 -3.421875 Z M 3.203125 -3.421875 "/>
</symbol>
<symbol overflow="visible" id="svg22glyph1-4">
<path style="stroke:none;" d="M 3.296875 -1.078125 C 3.191406 -1.003906 3.050781 -0.972656 2.875 -0.984375 C 2.75 -1.128906 2.636719 -1.242188 2.546875 -1.328125 C 2.453125 -1.410156 2.320313 -1.503906 2.15625 -1.609375 C 2.175781 -1.285156 2.242188 -0.972656 2.359375 -0.671875 C 2.273438 -0.523438 2.175781 -0.417969 2.0625 -0.359375 C 1.945313 -0.410156 1.847656 -0.515625 1.765625 -0.671875 C 1.878906 -0.972656 1.941406 -1.285156 1.953125 -1.609375 C 1.785156 -1.503906 1.652344 -1.410156 1.5625 -1.328125 C 1.46875 -1.242188 1.363281 -1.128906 1.25 -0.984375 C 1.082031 -0.972656 0.933594 -1.003906 0.8125 -1.078125 C 0.8125 -1.199219 0.859375 -1.335938 0.953125 -1.484375 C 1.253906 -1.523438 1.554688 -1.625 1.859375 -1.78125 C 1.554688 -1.933594 1.253906 -2.039063 0.953125 -2.09375 C 0.859375 -2.226563 0.8125 -2.363281 0.8125 -2.5 C 0.914063 -2.570313 1.0625 -2.601563 1.25 -2.59375 C 1.363281 -2.445313 1.46875 -2.324219 1.5625 -2.234375 C 1.652344 -2.148438 1.785156 -2.054688 1.953125 -1.953125 C 1.941406 -2.285156 1.878906 -2.597656 1.765625 -2.890625 C 1.847656 -3.042969 1.945313 -3.15625 2.0625 -3.21875 C 2.164063 -3.15625 2.265625 -3.042969 2.359375 -2.890625 C 2.242188 -2.597656 2.175781 -2.285156 2.15625 -1.953125 C 2.320313 -2.054688 2.453125 -2.148438 2.546875 -2.234375 C 2.636719 -2.324219 2.75 -2.445313 2.875 -2.59375 C 3.039063 -2.601563 3.179688 -2.570313 3.296875 -2.5 C 3.296875 -2.363281 3.246094 -2.226563 3.15625 -2.09375 C 2.851563 -2.039063 2.550781 -1.933594 2.25 -1.78125 C 2.550781 -1.625 2.851563 -1.523438 3.15625 -1.484375 C 3.246094 -1.335938 3.296875 -1.199219 3.296875 -1.078125 Z M 3.296875 -1.078125 "/>
</symbol>
</g>
</defs>
<g id="svg22_surface1">
<g style="fill:rgb(0%,0%,0%);fill-opacity:1;">
  <use xlink:href="#svg22glyph0-0" x="1.66" y="13.59"/>
</g>
<g style="fill:rgb(0%,0%,0%);fill-opacity:1;">
  <use xlink:href="#svg22glyph1-0" x="6.67" y="15.98"/>
  <use xlink:href="#svg22glyph1-1" x="11.095741" y="15.98"/>
  <use xlink:href="#svg22glyph1-0" x="14.495743" y="15.98"/>
</g>
<g style="fill:rgb(0%,0%,0%);fill-opacity:1;">
  <use xlink:href="#svg22glyph0-1" x="22.19" y="13.59"/>
</g>
<g style="fill:rgb(0%,0%,0%);fill-opacity:1;">
  <use xlink:href="#svg22glyph0-2" x="32" y="7.09"/>
</g>
<path style="fill:none;stroke-width:1;stroke-linecap:butt;stroke-linejoin:miter;stroke:rgb(0%,0%,0%);stroke-opacity:1;stroke-miterlimit:10;" d="M -39.5 60.5 L -35.5 60.5 " transform="matrix(1,0,0,-1,72,72)"/>
<g style="fill:rgb(0%,0%,0%);fill-opacity:1;">
  <use xlink:href="#svg22glyph0-3" x="32" y="20.63"/>
</g>
<g style="fill:rgb(0%,0%,0%);fill-opacity:1;">
  <use xlink:href="#svg22glyph0-4" x="37.98" y="13.74"/>
</g>
<g style="fill:rgb(0%,0%,0%);fill-opacity:1;">
  <use xlink:href="#svg22glyph0-5" x="47.64411" y="13.74"/>
</g>
<g style="fill:rgb(0%,0%,0%);fill-opacity:1;">
  <use xlink:href="#svg22glyph0-6" x="51.46" y="7.09"/>
  <use xlink:href="#svg22glyph0-7" x="56.989465" y="7.09"/>
</g>
<path style="fill:none;stroke-width:1;stroke-linecap:butt;stroke-linejoin:miter;stroke:rgb(0%,0%,0%);stroke-opacity:1;stroke-miterlimit:10;" d="M -20.5 60.5 L -9.5 60.5 " transform="matrix(1,0,0,-1,72,72)"/>
<g style="fill:rgb(0%,0%,0%);fill-opacity:1;">
  <use xlink:href="#svg22glyph0-6" x="52.34" y="20.63"/>
  <use xlink:href="#svg22glyph0-8" x="57.869465" y="20.63"/>
</g>
<g style="fill:rgb(0%,0%,0%);fill-opacity:1;">
  <use xlink:href="#svg22glyph0-5" x="63.34" y="13.74"/>
  <use xlink:href="#svg22glyph0-9" x="65.960269" y="13.74"/>
</g>
<g style="fill:rgb(0%,0%,0%);fill-opacity:1;">
  <use xlink:href="#svg22glyph1-2" x="75.63" y="22.6"/>
  <use xlink:href="#svg22glyph1-3" x="80.407218" y="22.6"/>
</g>
<g style="fill:rgb(0%,0%,0%);fill-opacity:1;">
  <use xlink:href="#svg22svg22glyph0-10" x="84.35" y="13.59"/>
  <use xlink:href="#svg22svg22glyph0-11" x="89.720057" y="13.59"/>
  <use xlink:href="#svg22glyph0-7" x="93.167255" y="13.59"/>
</g>
<g style="fill:rgb(0%,0%,0%);fill-opacity:1;">
  <use xlink:href="#svg22glyph1-4" x="98.32" y="8.81"/>
</g>
<g style="fill:rgb(0%,0%,0%);fill-opacity:1;">
  <use xlink:href="#svg22svg22glyph0-12" x="103.02" y="13.59"/>
  <use xlink:href="#svg22svg22glyph0-13" x="106.467198" y="13.59"/>
</g>
<g style="fill:rgb(0%,0%,0%);fill-opacity:1;">
  <use xlink:href="#svg22svg22glyph0-14" x="112.235775" y="13.59"/>
</g>
<g style="fill:rgb(0%,0%,0%);fill-opacity:1;">
  <use xlink:href="#svg22svg22glyph0-10" x="120.574806" y="13.59"/>
  <use xlink:href="#svg22svg22glyph0-11" x="125.944863" y="13.59"/>
  <use xlink:href="#svg22glyph0-7" x="129.392061" y="13.59"/>
  <use xlink:href="#svg22svg22glyph0-12" x="134.542932" y="13.59"/>
  <use xlink:href="#svg22glyph0-6" x="137.99013" y="13.59"/>
  <use xlink:href="#svg22glyph0-7" x="143.519595" y="13.59"/>
  <use xlink:href="#svg22svg22glyph0-15" x="148.670466" y="13.59"/>
</g>
</g>
</svg>