<?xml version="1.0" encoding="UTF-8"?>
<svg xmlns="http://www.w3.org/2000/svg" xmlns:xlink="http://www.w3.org/1999/xlink" width="231.57pt" height="97.61pt" viewBox="0 0 231.57 97.61" version="1.1">
<defs>
<g>
<symbol overflow="visible" id="svg05glyph0-0">
<path style="stroke:none;" d="M 7.515625 -6.5 L 7.453125 -6.21875 C 7.097656 -6.207031 6.863281 -6.164063 6.75 -6.09375 C 6.644531 -6.019531 6.566406 -5.886719 6.515625 -5.703125 C 6.367188 -5.140625 6.226563 -4.503906 6.09375 -3.796875 L 5.953125 -3.09375 C 5.734375 -1.894531 5.300781 -1.023438 4.65625 -0.484375 C 4.132813 -0.046875 3.519531 0.171875 2.8125 0.171875 C 2.101563 0.171875 1.527344 -0.0195313 1.09375 -0.40625 C 0.519531 -0.914063 0.34375 -1.773438 0.5625 -2.984375 L 0.984375 -5.296875 C 1.054688 -5.679688 1.054688 -5.925781 0.984375 -6.03125 C 0.910156 -6.132813 0.660156 -6.195313 0.234375 -6.21875 L 0.3125 -6.5 L 2.9375 -6.5 L 2.875 -6.21875 C 2.457031 -6.1875 2.195313 -6.121094 2.09375 -6.03125 C 2 -5.945313 1.914063 -5.699219 1.84375 -5.296875 L 1.4375 -3.046875 C 1.269531 -2.140625 1.34375 -1.464844 1.65625 -1.03125 C 1.964844 -0.59375 2.429688 -0.375 3.046875 -0.375 C 3.699219 -0.375 4.238281 -0.597656 4.65625 -1.046875 C 5.070313 -1.503906 5.375 -2.226563 5.5625 -3.21875 L 5.6875 -3.796875 C 5.863281 -4.785156 5.953125 -5.425781 5.953125 -5.71875 C 5.953125 -5.902344 5.886719 -6.03125 5.765625 -6.09375 C 5.640625 -6.164063 5.378906 -6.207031 4.984375 -6.21875 L 5.046875 -6.5 Z M 7.515625 -6.5 "/>
</symbol>
<symbol overflow="visible" id="svg05glyph0-1">
<path style="stroke:none;" d="M 5.34375 -3.234375 L 0.515625 -3.234375 L 0.515625 -3.734375 L 5.34375 -3.734375 Z M 5.34375 -1.375 L 0.515625 -1.375 L 0.515625 -1.875 L 5.34375 -1.875 Z M 5.34375 -1.375 "/>
</symbol>
<symbol overflow="visible" id="svg05glyph0-2">
<path style="stroke:none;" d="M 9.5625 1.875 L 9.015625 4.203125 L 0.53125 4.203125 L 0.53125 3.953125 L 5.140625 -2.53125 L 0.765625 -9.0625 L 0.765625 -9.3125 L 9.015625 -9.3125 L 9.1875 -7.265625 L 8.84375 -7.203125 C 8.695313 -7.773438 8.523438 -8.164063 8.328125 -8.375 C 8.222656 -8.507813 8.058594 -8.601563 7.84375 -8.65625 C 7.625 -8.707031 7.269531 -8.734375 6.78125 -8.734375 L 2.59375 -8.734375 L 6.40625 -3.109375 L 1.953125 3.171875 L 7.59375 3.171875 C 8.039063 3.171875 8.375 3.082031 8.59375 2.90625 C 8.808594 2.726563 9.019531 2.355469 9.21875 1.796875 Z M 9.5625 1.875 "/>
</symbol>
<symbol overflow="visible" id="svg05glyph0-3">
<path style="stroke:none;" d="M 4.796875 -4.15625 C 4.796875 -4.019531 4.738281 -3.882813 4.625 -3.75 C 4.5625 -3.675781 4.503906 -3.65625 4.453125 -3.6875 C 4.316406 -3.738281 4.175781 -3.765625 4.03125 -3.765625 C 3.613281 -3.765625 3.144531 -3.503906 2.625 -2.984375 C 2.777344 -2.523438 3.078125 -1.882813 3.515625 -1.0625 C 3.628906 -0.863281 3.71875 -0.726563 3.78125 -0.65625 C 3.839844 -0.582031 3.910156 -0.546875 3.984375 -0.546875 C 4.085938 -0.546875 4.289063 -0.695313 4.59375 -1 L 4.765625 -0.796875 C 4.335938 -0.179688 3.941406 0.125 3.578125 0.125 C 3.347656 0.125 3.113281 -0.0976563 2.875 -0.546875 C 2.601563 -1.023438 2.324219 -1.644531 2.046875 -2.40625 C 1.804688 -2.207031 1.597656 -2.003906 1.421875 -1.796875 C 1.242188 -1.035156 1.121094 -0.460938 1.0625 -0.078125 C 0.789063 -0.0234375 0.535156 0.0390625 0.296875 0.125 L 0.234375 0.0625 L 1.625 -6.0625 C 1.675781 -6.246094 1.675781 -6.359375 1.625 -6.390625 C 1.582031 -6.429688 1.460938 -6.457031 1.265625 -6.46875 L 0.921875 -6.484375 L 0.96875 -6.734375 C 1.214844 -6.761719 1.460938 -6.8125 1.703125 -6.875 C 1.941406 -6.933594 2.128906 -6.992188 2.265625 -7.046875 C 2.410156 -7.097656 2.5 -7.125 2.53125 -7.125 C 2.613281 -7.125 2.621094 -7.011719 2.5625 -6.796875 L 1.53125 -2.375 L 1.546875 -2.375 C 1.785156 -2.621094 2.109375 -2.929688 2.515625 -3.296875 C 2.773438 -3.535156 2.992188 -3.722656 3.171875 -3.859375 C 3.347656 -3.992188 3.554688 -4.128906 3.796875 -4.265625 C 4.035156 -4.410156 4.226563 -4.484375 4.375 -4.484375 C 4.496094 -4.484375 4.597656 -4.445313 4.671875 -4.375 C 4.753906 -4.3125 4.796875 -4.238281 4.796875 -4.15625 Z M 4.796875 -4.15625 "/>
</symbol>
<symbol overflow="visible" id="svg05glyph0-4">
<path style="stroke:none;" d="M 3.78125 3.84375 L 3.5625 4.109375 C 2.632813 3.367188 1.941406 2.410156 1.484375 1.234375 C 1.023438 0.0546875 0.796875 -1.253906 0.796875 -2.703125 L 0.796875 -2.71875 C 0.796875 -4.152344 1.023438 -5.460938 1.484375 -6.640625 C 1.941406 -7.816406 2.632813 -8.78125 3.5625 -9.53125 L 3.78125 -9.265625 C 3.082031 -8.617188 2.539063 -7.707031 2.15625 -6.53125 C 1.769531 -5.351563 1.578125 -4.074219 1.578125 -2.703125 C 1.578125 -1.335938 1.769531 -0.0664063 2.15625 1.109375 C 2.550781 2.285156 3.09375 3.195313 3.78125 3.84375 Z M 3.78125 3.84375 "/>
</symbol>
<symbol overflow="visible" id="svg05glyph0-5">
<path style="stroke:none;" d="M 4.515625 -3.328125 C 4.515625 -2.785156 4.355469 -2.238281 4.046875 -1.6875 C 3.742188 -1.144531 3.363281 -0.714844 2.90625 -0.40625 C 2.363281 -0.0507813 1.832031 0.125 1.3125 0.125 C 1.144531 0.125 0.976563 0.0820313 0.8125 0 C 0.644531 -0.0898438 0.519531 -0.203125 0.4375 -0.328125 C 0.269531 -0.597656 0.25 -1.046875 0.375 -1.671875 L 1.296875 -5.984375 C 1.335938 -6.242188 1.339844 -6.394531 1.3125 -6.4375 C 1.28125 -6.488281 1.164063 -6.515625 0.96875 -6.515625 L 0.640625 -6.515625 L 0.65625 -6.765625 C 0.894531 -6.792969 1.132813 -6.835938 1.375 -6.890625 C 1.621094 -6.949219 1.820313 -7.003906 1.96875 -7.046875 C 2.113281 -7.097656 2.207031 -7.125 2.25 -7.125 C 2.308594 -7.125 2.324219 -7.023438 2.296875 -6.828125 L 1.375 -2.921875 L 1.40625 -2.921875 C 1.832031 -3.429688 2.257813 -3.816406 2.6875 -4.078125 C 3.121094 -4.347656 3.476563 -4.484375 3.75 -4.484375 C 3.988281 -4.484375 4.175781 -4.371094 4.3125 -4.15625 C 4.445313 -3.945313 4.515625 -3.667969 4.515625 -3.328125 Z M 3.65625 -3.15625 C 3.65625 -3.664063 3.535156 -3.921875 3.296875 -3.921875 C 3.085938 -3.921875 2.773438 -3.753906 2.359375 -3.421875 C 1.941406 -3.097656 1.585938 -2.730469 1.296875 -2.328125 C 1.210938 -2.078125 1.152344 -1.839844 1.125 -1.625 C 1.0625 -1.195313 1.097656 -0.871094 1.234375 -0.65625 C 1.378906 -0.445313 1.578125 -0.34375 1.828125 -0.34375 C 2.035156 -0.34375 2.222656 -0.390625 2.390625 -0.484375 C 2.742188 -0.679688 3.039063 -1.03125 3.28125 -1.53125 C 3.527344 -2.039063 3.65625 -2.582031 3.65625 -3.15625 Z M 3.65625 -3.15625 "/>
</symbol>
<symbol overflow="visible" id="svg05glyph0-6">
<path style="stroke:none;" d="M 5.34375 -2.296875 L 0.515625 -2.296875 L 0.515625 -2.796875 L 5.34375 -2.796875 Z M 5.34375 -2.296875 "/>
</symbol>
<symbol overflow="visible" id="svg05glyph0-7">
<path style="stroke:none;" d="M 3.640625 -2.703125 C 3.640625 -1.253906 3.410156 0.0546875 2.953125 1.234375 C 2.492188 2.410156 1.800781 3.367188 0.875 4.109375 L 0.65625 3.84375 C 1.339844 3.195313 1.878906 2.285156 2.265625 1.109375 C 2.648438 -0.0664063 2.84375 -1.335938 2.84375 -2.703125 C 2.84375 -4.074219 2.648438 -5.351563 2.265625 -6.53125 C 1.878906 -7.707031 1.339844 -8.617188 0.65625 -9.265625 L 0.875 -9.53125 C 1.800781 -8.78125 2.492188 -7.816406 2.953125 -6.640625 C 3.410156 -5.460938 3.640625 -4.152344 3.640625 -2.71875 Z M 3.640625 -2.703125 "/>
</symbol>
<symbol overflow="visible" id="svg05glyph0-8">
<path style="stroke:none;" d="M 5.34375 -2.296875 L 3.234375 -2.296875 L 3.234375 0.03125 L 2.65625 0.03125 L 2.65625 -2.296875 L 0.515625 -2.296875 L 0.515625 -2.796875 L 2.65625 -2.796875 L 2.65625 -4.90625 L 3.234375 -4.90625 L 3.234375 -2.796875 L 5.34375 -2.796875 Z M 5.34375 -2.296875 "/>
</symbol>
<symbol overflow="visible" id="svg05glyph0-9">
<path style="stroke:none;" d="M 7.640625 -6.5 L 7.5625 -6.234375 C 7.15625 -6.171875 6.847656 -6.097656 6.640625 -6.015625 C 6.441406 -5.929688 6.191406 -5.769531 5.890625 -5.53125 L 3.546875 -3.6875 C 4.230469 -2.675781 4.925781 -1.757813 5.625 -0.9375 C 5.832031 -0.6875 6.015625 -0.519531 6.171875 -0.4375 C 6.324219 -0.363281 6.550781 -0.308594 6.84375 -0.28125 L 6.78125 0 L 5.21875 0 C 4.300781 -1.132813 3.589844 -2.082031 3.09375 -2.84375 C 2.96875 -3.027344 2.851563 -3.144531 2.75 -3.1875 C 2.65625 -3.226563 2.542969 -3.207031 2.421875 -3.125 L 2.125 -1.390625 C 2.03125 -0.890625 2.015625 -0.585938 2.078125 -0.484375 C 2.136719 -0.378906 2.382813 -0.308594 2.8125 -0.28125 L 2.765625 0 L 0.171875 0 L 0.234375 -0.28125 C 0.617188 -0.308594 0.863281 -0.378906 0.96875 -0.484375 C 1.082031 -0.597656 1.1875 -0.898438 1.28125 -1.390625 L 1.984375 -5.171875 C 2.054688 -5.617188 2.058594 -5.894531 2 -6 C 1.9375 -6.101563 1.695313 -6.175781 1.28125 -6.21875 L 1.34375 -6.5 L 3.90625 -6.5 L 3.84375 -6.21875 C 3.425781 -6.175781 3.167969 -6.101563 3.078125 -6 C 2.984375 -5.90625 2.894531 -5.628906 2.8125 -5.171875 L 2.484375 -3.453125 C 2.679688 -3.523438 2.941406 -3.675781 3.265625 -3.90625 C 4.011719 -4.464844 4.738281 -5.066406 5.4375 -5.703125 C 5.558594 -5.804688 5.640625 -5.890625 5.671875 -5.953125 C 5.710938 -6.011719 5.707031 -6.0625 5.65625 -6.09375 C 5.613281 -6.132813 5.527344 -6.164063 5.40625 -6.1875 L 5.09375 -6.21875 L 5.15625 -6.5 Z M 7.640625 -6.5 "/>
</symbol>
<symbol overflow="visible" id="svg05svg05glyph0-10">
<path style="stroke:none;" d="M 4.75 -5.0625 C 4.75 -4.507813 4.679688 -3.933594 4.546875 -3.34375 C 4.410156 -2.75 4.222656 -2.191406 3.984375 -1.671875 C 3.742188 -1.148438 3.429688 -0.714844 3.046875 -0.375 C 2.671875 -0.0390625 2.253906 0.125 1.796875 0.125 C 0.753906 0.125 0.234375 -0.632813 0.234375 -2.15625 C 0.234375 -2.675781 0.300781 -3.222656 0.4375 -3.796875 C 0.582031 -4.367188 0.78125 -4.90625 1.03125 -5.40625 C 1.277344 -5.902344 1.601563 -6.316406 2 -6.640625 C 2.394531 -6.960938 2.816406 -7.125 3.265625 -7.125 C 3.785156 -7.125 4.160156 -6.925781 4.390625 -6.53125 C 4.628906 -6.144531 4.75 -5.652344 4.75 -5.0625 Z M 3.90625 -5.21875 C 3.90625 -6.246094 3.632813 -6.765625 3.09375 -6.765625 C 2.6875 -6.765625 2.316406 -6.488281 1.984375 -5.9375 C 1.660156 -5.394531 1.417969 -4.726563 1.265625 -3.9375 L 3.796875 -3.9375 C 3.867188 -4.476563 3.90625 -4.90625 3.90625 -5.21875 Z M 3.734375 -3.453125 L 1.1875 -3.453125 C 1.101563 -2.847656 1.0625 -2.347656 1.0625 -1.953125 C 1.0625 -1.472656 1.125 -1.058594 1.25 -0.71875 C 1.382813 -0.382813 1.597656 -0.21875 1.890625 -0.21875 C 2.117188 -0.21875 2.332031 -0.3125 2.53125 -0.5 C 2.726563 -0.695313 2.898438 -0.957031 3.046875 -1.28125 C 3.199219 -1.601563 3.332031 -1.941406 3.4375 -2.296875 C 3.550781 -2.660156 3.648438 -3.046875 3.734375 -3.453125 Z M 3.734375 -3.453125 "/>
</symbol>
<symbol overflow="visible" id="svg05svg05glyph0-11">
<path style="stroke:none;" d="M 6.890625 -3.3125 C 6.890625 -2.78125 6.753906 -2.242188 6.484375 -1.703125 C 6.222656 -1.171875 5.878906 -0.730469 5.453125 -0.390625 C 5.023438 -0.046875 4.601563 0.125 4.1875 0.125 C 3.96875 0.125 3.769531 0.0703125 3.59375 -0.03125 C 3.414063 -0.144531 3.277344 -0.300781 3.1875 -0.5 C 2.71875 -0.0820313 2.253906 0.125 1.796875 0.125 C 1.492188 0.125 1.230469 0.0234375 1.015625 -0.171875 C 0.804688 -0.378906 0.703125 -0.671875 0.703125 -1.046875 C 0.703125 -1.097656 0.722656 -1.269531 0.765625 -1.5625 C 0.835938 -2.070313 0.988281 -2.695313 1.21875 -3.4375 C 1.257813 -3.558594 1.28125 -3.671875 1.28125 -3.765625 C 1.28125 -3.804688 1.253906 -3.828125 1.203125 -3.828125 C 1.046875 -3.828125 0.789063 -3.613281 0.4375 -3.1875 L 0.234375 -3.421875 C 0.441406 -3.742188 0.679688 -4 0.953125 -4.1875 C 1.230469 -4.382813 1.492188 -4.484375 1.734375 -4.484375 C 1.949219 -4.484375 2.0625 -4.335938 2.0625 -4.046875 C 2.0625 -3.847656 2.019531 -3.601563 1.9375 -3.3125 C 1.757813 -2.6875 1.632813 -2.179688 1.5625 -1.796875 C 1.507813 -1.503906 1.484375 -1.308594 1.484375 -1.21875 C 1.484375 -0.707031 1.707031 -0.453125 2.15625 -0.453125 C 2.363281 -0.453125 2.5625 -0.5625 2.75 -0.78125 C 2.945313 -1.007813 3.082031 -1.269531 3.15625 -1.5625 L 3.765625 -4.15625 L 4.515625 -4.3125 L 4.5625 -4.265625 L 3.9375 -1.796875 C 3.882813 -1.609375 3.859375 -1.414063 3.859375 -1.21875 C 3.859375 -0.707031 4.085938 -0.453125 4.546875 -0.453125 C 4.980469 -0.453125 5.367188 -0.703125 5.703125 -1.203125 C 6.035156 -1.699219 6.203125 -2.351563 6.203125 -3.15625 C 6.203125 -3.433594 6.160156 -3.625 6.078125 -3.71875 C 6.003906 -3.800781 5.96875 -3.878906 5.96875 -3.953125 C 5.96875 -4.085938 6.015625 -4.207031 6.109375 -4.3125 C 6.210938 -4.425781 6.328125 -4.484375 6.453125 -4.484375 C 6.574219 -4.484375 6.679688 -4.367188 6.765625 -4.140625 C 6.847656 -3.910156 6.890625 -3.632813 6.890625 -3.3125 Z M 6.890625 -3.3125 "/>
</symbol>
<symbol overflow="visible" id="svg05svg05glyph0-12">
<path style="stroke:none;" d="M 3.078125 2.59375 L 1.265625 2.59375 L 1.265625 -7.984375 L 3.078125 -7.984375 L 3.078125 -7.6875 L 2.984375 -7.6875 C 2.785156 -7.664063 2.632813 -7.648438 2.53125 -7.640625 C 2.4375 -7.628906 2.335938 -7.597656 2.234375 -7.546875 C 2.140625 -7.503906 2.074219 -7.457031 2.046875 -7.40625 C 2.015625 -7.363281 1.980469 -7.273438 1.953125 -7.140625 C 1.921875 -7.003906 1.90625 -6.871094 1.90625 -6.75 C 1.90625 -6.625 1.90625 -6.425781 1.90625 -6.15625 L 1.90625 1.09375 C 1.90625 1.621094 1.953125 1.941406 2.046875 2.046875 C 2.136719 2.148438 2.453125 2.226563 2.984375 2.28125 L 3.078125 2.28125 Z M 3.078125 2.59375 "/>
</symbol>
<symbol overflow="visible" id="svg05svg05glyph0-13">
<path style="stroke:none;" d="M 3.84375 0 L 1.09375 0 L 1.09375 -0.265625 C 1.539063 -0.292969 1.8125 -0.359375 1.90625 -0.453125 C 1.996094 -0.542969 2.046875 -0.773438 2.046875 -1.140625 L 2.046875 -4.984375 C 2.046875 -5.242188 2.019531 -5.40625 1.96875 -5.46875 C 1.925781 -5.527344 1.789063 -5.5625 1.5625 -5.5625 L 1.09375 -5.59375 L 1.09375 -5.828125 C 1.652344 -5.929688 2.25 -6.101563 2.875 -6.34375 L 2.875 -1.140625 C 2.875 -0.773438 2.921875 -0.542969 3.015625 -0.453125 C 3.105469 -0.359375 3.382813 -0.292969 3.84375 -0.265625 Z M 3.84375 0 "/>
</symbol>
<symbol overflow="visible" id="svg05svg05glyph0-14">
<path style="stroke:none;" d="M 3.90625 -1.109375 L 4.0625 -0.90625 C 3.84375 -0.601563 3.574219 -0.351563 3.265625 -0.15625 C 2.960938 0.0273438 2.664063 0.125 2.375 0.125 C 1.769531 0.125 1.285156 -0.0820313 0.921875 -0.5 C 0.554688 -0.914063 0.375 -1.40625 0.375 -1.96875 C 0.375 -2.757813 0.707031 -3.410156 1.375 -3.921875 C 1.871094 -4.292969 2.375 -4.484375 2.875 -4.484375 C 3.269531 -4.484375 3.570313 -4.394531 3.78125 -4.21875 C 3.882813 -4.125 3.9375 -4.023438 3.9375 -3.921875 C 3.9375 -3.816406 3.894531 -3.714844 3.8125 -3.625 C 3.738281 -3.53125 3.667969 -3.484375 3.609375 -3.484375 C 3.554688 -3.484375 3.492188 -3.519531 3.421875 -3.59375 C 3.128906 -3.871094 2.789063 -4.015625 2.40625 -4.015625 C 2.0625 -4.015625 1.769531 -3.867188 1.53125 -3.578125 C 1.300781 -3.296875 1.1875 -2.902344 1.1875 -2.40625 C 1.1875 -2.082031 1.234375 -1.789063 1.328125 -1.53125 C 1.429688 -1.28125 1.5625 -1.085938 1.71875 -0.953125 C 1.871094 -0.828125 2.035156 -0.726563 2.203125 -0.65625 C 2.367188 -0.59375 2.53125 -0.5625 2.6875 -0.5625 C 2.902344 -0.5625 3.101563 -0.597656 3.28125 -0.671875 C 3.464844 -0.753906 3.675781 -0.898438 3.90625 -1.109375 Z M 3.90625 -1.109375 "/>
</symbol>
<symbol overflow="visible" id="svg05svg05glyph0-15">
<path style="stroke:none;" d="M 2.5625 -4.484375 C 3.175781 -4.484375 3.691406 -4.261719 4.109375 -3.828125 C 4.523438 -3.398438 4.734375 -2.878906 4.734375 -2.265625 C 4.734375 -1.515625 4.507813 -0.925781 4.0625 -0.5 C 3.613281 -0.0820313 3.113281 0.125 2.5625 0.125 C 1.90625 0.125 1.371094 -0.09375 0.96875 -0.53125 C 0.570313 -0.976563 0.375 -1.5 0.375 -2.09375 C 0.375 -2.488281 0.441406 -2.84375 0.578125 -3.15625 C 0.722656 -3.464844 0.90625 -3.71875 1.125 -3.90625 C 1.339844 -4.089844 1.578125 -4.234375 1.828125 -4.328125 C 2.074219 -4.429688 2.320313 -4.484375 2.5625 -4.484375 Z M 2.4375 -4.15625 C 2.113281 -4.15625 1.839844 -3.996094 1.625 -3.6875 C 1.40625 -3.375 1.296875 -2.945313 1.296875 -2.40625 C 1.296875 -1.769531 1.421875 -1.242188 1.671875 -0.828125 C 1.929688 -0.410156 2.265625 -0.203125 2.671875 -0.203125 C 3.011719 -0.203125 3.285156 -0.347656 3.484375 -0.640625 C 3.691406 -0.929688 3.796875 -1.398438 3.796875 -2.046875 C 3.796875 -2.648438 3.675781 -3.148438 3.4375 -3.546875 C 3.195313 -3.949219 2.863281 -4.15625 2.4375 -4.15625 Z M 2.4375 -4.15625 "/>
</symbol>
<symbol overflow="visible" id="svg05svg05glyph0-16">
<path style="stroke:none;" d="M 3.1875 -3.25 L 2.9375 -3.1875 C 2.71875 -3.839844 2.371094 -4.171875 1.90625 -4.171875 C 1.71875 -4.171875 1.558594 -4.101563 1.4375 -3.96875 C 1.320313 -3.84375 1.265625 -3.679688 1.265625 -3.484375 C 1.265625 -3.285156 1.335938 -3.117188 1.484375 -2.984375 C 1.628906 -2.859375 1.832031 -2.738281 2.09375 -2.625 C 2.519531 -2.445313 2.835938 -2.253906 3.046875 -2.046875 C 3.261719 -1.835938 3.375 -1.574219 3.375 -1.265625 C 3.375 -0.835938 3.207031 -0.496094 2.875 -0.25 C 2.539063 0 2.152344 0.125 1.71875 0.125 C 1.488281 0.125 1.261719 0.0859375 1.046875 0.015625 C 0.828125 -0.0546875 0.667969 -0.132813 0.578125 -0.21875 C 0.546875 -0.289063 0.507813 -0.457031 0.46875 -0.71875 C 0.425781 -0.988281 0.40625 -1.21875 0.40625 -1.40625 L 0.6875 -1.453125 C 0.769531 -1.097656 0.921875 -0.800781 1.140625 -0.5625 C 1.355469 -0.320313 1.613281 -0.203125 1.90625 -0.203125 C 2.089844 -0.203125 2.253906 -0.265625 2.390625 -0.390625 C 2.535156 -0.523438 2.609375 -0.695313 2.609375 -0.90625 C 2.609375 -1.113281 2.539063 -1.285156 2.40625 -1.421875 C 2.28125 -1.554688 2.082031 -1.6875 1.8125 -1.8125 C 1.632813 -1.894531 1.480469 -1.972656 1.359375 -2.046875 C 1.242188 -2.117188 1.113281 -2.207031 0.96875 -2.3125 C 0.832031 -2.425781 0.726563 -2.554688 0.65625 -2.703125 C 0.59375 -2.847656 0.5625 -3.007813 0.5625 -3.1875 C 0.5625 -3.550781 0.703125 -3.859375 0.984375 -4.109375 C 1.273438 -4.355469 1.644531 -4.484375 2.09375 -4.484375 C 2.402344 -4.484375 2.695313 -4.425781 2.96875 -4.3125 C 3.007813 -4.207031 3.050781 -4.035156 3.09375 -3.796875 C 3.144531 -3.566406 3.175781 -3.382813 3.1875 -3.25 Z M 3.1875 -3.25 "/>
</symbol>
<symbol overflow="visible" id="svg05svg05glyph0-17">
<path style="stroke:none;" d="M 3.3125 2.40625 L 3.125 2.65625 C 2.320313 2.082031 1.722656 1.324219 1.328125 0.390625 C 0.929688 -0.535156 0.734375 -1.566406 0.734375 -2.703125 L 0.734375 -2.71875 C 0.734375 -3.851563 0.929688 -4.878906 1.328125 -5.796875 C 1.722656 -6.722656 2.320313 -7.484375 3.125 -8.078125 L 3.3125 -7.828125 C 2.738281 -7.316406 2.289063 -6.601563 1.96875 -5.6875 C 1.644531 -4.769531 1.484375 -3.773438 1.484375 -2.703125 C 1.484375 -1.640625 1.644531 -0.648438 1.96875 0.265625 C 2.289063 1.179688 2.738281 1.894531 3.3125 2.40625 Z M 3.3125 2.40625 "/>
</symbol>
<symbol overflow="visible" id="svg05svg05glyph0-18">
<path style="stroke:none;" d="M 4.953125 -0.859375 C 4.640625 -0.546875 4.347656 -0.300781 4.078125 -0.125 C 3.804688 0.0390625 3.597656 0.125 3.453125 0.125 C 3.160156 0.125 3.109375 -0.234375 3.296875 -0.953125 L 3.78125 -3.046875 C 3.820313 -3.273438 3.847656 -3.441406 3.859375 -3.546875 C 3.867188 -3.660156 3.855469 -3.734375 3.828125 -3.765625 C 3.804688 -3.792969 3.761719 -3.8125 3.703125 -3.8125 C 3.460938 -3.8125 3.089844 -3.566406 2.59375 -3.078125 C 2.101563 -2.597656 1.722656 -2.132813 1.453125 -1.6875 C 1.304688 -1.1875 1.175781 -0.652344 1.0625 -0.09375 C 0.726563 -0.0195313 0.476563 0.0507813 0.3125 0.125 L 0.25 0.046875 L 1.09375 -3.359375 C 1.144531 -3.585938 1.128906 -3.703125 1.046875 -3.703125 C 0.929688 -3.703125 0.707031 -3.550781 0.375 -3.25 L 0.234375 -3.515625 C 0.523438 -3.804688 0.804688 -4.039063 1.078125 -4.21875 C 1.355469 -4.394531 1.578125 -4.484375 1.734375 -4.484375 C 1.960938 -4.484375 1.992188 -4.136719 1.828125 -3.453125 L 1.59375 -2.46875 L 1.609375 -2.46875 C 1.886719 -2.839844 2.210938 -3.1875 2.578125 -3.5 C 2.941406 -3.820313 3.265625 -4.0625 3.546875 -4.21875 C 3.847656 -4.394531 4.09375 -4.484375 4.28125 -4.484375 C 4.339844 -4.484375 4.394531 -4.472656 4.4375 -4.453125 C 4.488281 -4.441406 4.535156 -4.402344 4.578125 -4.34375 C 4.628906 -4.28125 4.660156 -4.195313 4.671875 -4.09375 C 4.691406 -3.988281 4.683594 -3.839844 4.65625 -3.65625 C 4.632813 -3.46875 4.589844 -3.238281 4.53125 -2.96875 C 4.332031 -2.1875 4.175781 -1.519531 4.0625 -0.96875 C 4.03125 -0.84375 4.015625 -0.757813 4.015625 -0.71875 C 4.023438 -0.675781 4.050781 -0.65625 4.09375 -0.65625 C 4.226563 -0.65625 4.460938 -0.816406 4.796875 -1.140625 Z M 4.953125 -0.859375 "/>
</symbol>
<symbol overflow="visible" id="svg05svg05glyph0-19">
<path style="stroke:none;" d="M 5.421875 -2.421875 C 5.421875 -1.710938 5.148438 -1.121094 4.609375 -0.65625 C 4.078125 -0.1875 3.441406 0.0507813 2.703125 0.0625 L 2.15625 2.578125 L 2.09375 2.609375 C 1.96875 2.566406 1.867188 2.441406 1.796875 2.234375 C 1.734375 2.023438 1.738281 1.714844 1.8125 1.3125 L 2.046875 0.078125 C 1.484375 -0.0234375 1.039063 -0.265625 0.71875 -0.640625 C 0.394531 -1.011719 0.234375 -1.472656 0.234375 -2.015625 C 0.234375 -2.648438 0.441406 -3.179688 0.859375 -3.609375 C 1.273438 -4.042969 1.828125 -4.375 2.515625 -4.59375 L 2.65625 -4.28125 C 2.144531 -4.0625 1.757813 -3.785156 1.5 -3.453125 C 1.25 -3.117188 1.125 -2.691406 1.125 -2.171875 C 1.125 -1.753906 1.226563 -1.394531 1.4375 -1.09375 C 1.652344 -0.800781 1.90625 -0.605469 2.1875 -0.515625 L 3.4375 -6.484375 L 4 -6.90625 L 4.15625 -6.8125 L 3.765625 -5.125 C 3.703125 -4.863281 3.710938 -4.714844 3.796875 -4.6875 C 4.304688 -4.457031 4.703125 -4.164063 4.984375 -3.8125 C 5.273438 -3.46875 5.421875 -3.003906 5.421875 -2.421875 Z M 4.6875 -2.3125 C 4.6875 -2.757813 4.558594 -3.144531 4.3125 -3.46875 C 4.070313 -3.789063 3.816406 -4 3.546875 -4.09375 L 2.796875 -0.390625 C 3.386719 -0.359375 3.851563 -0.53125 4.1875 -0.90625 C 4.519531 -1.289063 4.6875 -1.757813 4.6875 -2.3125 Z M 4.6875 -2.3125 "/>
</symbol>
<symbol overflow="visible" id="svg05svg05glyph0-20">
<path style="stroke:none;" d="M 4.9375 -5.140625 L 4.84375 -4.984375 C 4.46875 -5.492188 4.105469 -5.882813 3.765625 -6.15625 C 3.429688 -6.425781 3.066406 -6.5625 2.671875 -6.5625 C 2.367188 -6.5625 2.21875 -6.460938 2.21875 -6.265625 C 2.21875 -6.078125 2.582031 -5.570313 3.3125 -4.75 C 3.707031 -4.289063 3.992188 -3.894531 4.171875 -3.5625 C 4.347656 -3.226563 4.4375 -2.867188 4.4375 -2.484375 C 4.4375 -2.078125 4.335938 -1.679688 4.140625 -1.296875 C 3.941406 -0.910156 3.652344 -0.585938 3.28125 -0.328125 C 2.851563 -0.0234375 2.394531 0.125 1.90625 0.125 C 1.394531 0.125 0.988281 -0.0507813 0.6875 -0.40625 C 0.382813 -0.757813 0.234375 -1.210938 0.234375 -1.765625 C 0.234375 -2.261719 0.367188 -2.71875 0.640625 -3.125 C 0.910156 -3.527344 1.238281 -3.84375 1.625 -4.0625 C 1.902344 -4.238281 2.191406 -4.378906 2.484375 -4.484375 C 2.222656 -4.878906 2.027344 -5.1875 1.90625 -5.40625 C 1.789063 -5.621094 1.734375 -5.832031 1.734375 -6.03125 C 1.734375 -6.332031 1.863281 -6.585938 2.125 -6.796875 C 2.382813 -7.011719 2.6875 -7.125 3.03125 -7.125 C 3.382813 -7.125 3.707031 -7.003906 4 -6.765625 C 4.289063 -6.523438 4.507813 -6.257813 4.65625 -5.96875 C 4.800781 -5.6875 4.894531 -5.410156 4.9375 -5.140625 Z M 3.59375 -2.34375 C 3.59375 -2.902344 3.289063 -3.539063 2.6875 -4.25 C 2.375 -4.132813 2.128906 -3.976563 1.953125 -3.78125 C 1.410156 -3.1875 1.140625 -2.519531 1.140625 -1.78125 C 1.140625 -1.300781 1.25 -0.929688 1.46875 -0.671875 C 1.683594 -0.421875 1.925781 -0.296875 2.1875 -0.296875 C 2.496094 -0.296875 2.765625 -0.40625 2.984375 -0.625 C 3.199219 -0.839844 3.359375 -1.097656 3.453125 -1.390625 C 3.542969 -1.691406 3.59375 -2.007813 3.59375 -2.34375 Z M 3.59375 -2.34375 "/>
</symbol>
<symbol overflow="visible" id="svg05svg05glyph0-21">
<path style="stroke:none;" d="M 3.109375 -2.703125 C 3.109375 -1.566406 2.910156 -0.535156 2.515625 0.390625 C 2.128906 1.324219 1.535156 2.082031 0.734375 2.65625 L 0.53125 2.40625 C 1.101563 1.894531 1.550781 1.179688 1.875 0.265625 C 2.195313 -0.648438 2.359375 -1.640625 2.359375 -2.703125 C 2.359375 -3.773438 2.195313 -4.769531 1.875 -5.6875 C 1.550781 -6.601563 1.101563 -7.316406 0.53125 -7.828125 L 0.734375 -8.078125 C 1.535156 -7.484375 2.128906 -6.722656 2.515625 -5.796875 C 2.910156 -4.878906 3.109375 -3.851563 3.109375 -2.71875 Z M 3.109375 -2.703125 "/>
</symbol>
<symbol overflow="visible" id="svg05svg05glyph0-22">
<path style="stroke:none;" d="M 2.4375 2.59375 L 0.625 2.59375 L 0.625 2.28125 L 0.71875 2.28125 C 1.246094 2.226563 1.5625 2.148438 1.65625 2.046875 C 1.757813 1.941406 1.8125 1.621094 1.8125 1.09375 L 1.8125 -6.15625 C 1.8125 -6.425781 1.804688 -6.625 1.796875 -6.75 C 1.796875 -6.871094 1.777344 -7.003906 1.75 -7.140625 C 1.71875 -7.273438 1.683594 -7.363281 1.65625 -7.40625 C 1.632813 -7.457031 1.570313 -7.503906 1.46875 -7.546875 C 1.363281 -7.597656 1.261719 -7.628906 1.171875 -7.640625 C 1.078125 -7.648438 0.925781 -7.664063 0.71875 -7.6875 L 0.625 -7.6875 L 0.625 -7.984375 L 2.4375 -7.984375 Z M 2.4375 2.59375 "/>
</symbol>
<symbol overflow="visible" id="svg05svg05glyph0-23">
<path style="stroke:none;" d="M 4.90625 8.453125 C 4.707031 8.453125 4.523438 8.441406 4.359375 8.421875 C 4.203125 8.398438 4.023438 8.347656 3.828125 8.265625 C 3.640625 8.191406 3.476563 8.085938 3.34375 7.953125 C 3.21875 7.816406 3.105469 7.617188 3.015625 7.359375 C 2.921875 7.109375 2.875 6.816406 2.875 6.484375 L 2.984375 -1.15625 C 2.984375 -1.332031 2.964844 -1.476563 2.9375 -1.59375 C 2.914063 -1.707031 2.851563 -1.835938 2.75 -1.984375 C 2.65625 -2.128906 2.480469 -2.242188 2.234375 -2.328125 C 1.992188 -2.417969 1.679688 -2.476563 1.296875 -2.5 L 1.296875 -2.90625 C 1.679688 -2.925781 1.992188 -2.976563 2.234375 -3.0625 C 2.480469 -3.152344 2.65625 -3.273438 2.75 -3.421875 C 2.851563 -3.566406 2.914063 -3.695313 2.9375 -3.8125 C 2.964844 -3.925781 2.984375 -4.070313 2.984375 -4.25 L 2.875 -11.8125 C 2.875 -13.164063 3.550781 -13.84375 4.90625 -13.84375 L 4.90625 -13.5 C 4.363281 -13.4375 4.003906 -13.285156 3.828125 -13.046875 C 3.648438 -12.804688 3.5625 -12.476563 3.5625 -12.0625 C 3.5625 -11.25 3.597656 -9.992188 3.671875 -8.296875 C 3.753906 -6.609375 3.796875 -5.339844 3.796875 -4.5 C 3.796875 -4.050781 3.707031 -3.664063 3.53125 -3.34375 C 3.363281 -3.03125 3.097656 -2.824219 2.734375 -2.734375 L 2.734375 -2.6875 C 3.441406 -2.476563 3.796875 -1.878906 3.796875 -0.890625 C 3.796875 0.0976563 3.753906 1.546875 3.671875 3.453125 C 3.597656 5.355469 3.5625 6.410156 3.5625 6.609375 C 3.5625 6.804688 3.578125 6.976563 3.609375 7.125 C 3.636719 7.269531 3.695313 7.410156 3.78125 7.546875 C 3.863281 7.691406 4 7.8125 4.1875 7.90625 C 4.382813 7.996094 4.625 8.0625 4.90625 8.09375 Z M 4.90625 8.453125 "/>
</symbol>
<symbol overflow="visible" id="svg05svg05glyph0-24">
<path style="stroke:none;" d="M 4.5625 -1.78125 L 3.59375 -1.78125 L 3.59375 -1.0625 C 3.59375 -0.71875 3.632813 -0.503906 3.71875 -0.421875 C 3.800781 -0.347656 4.046875 -0.292969 4.453125 -0.265625 L 4.453125 0 L 1.890625 0 L 1.890625 -0.265625 C 2.324219 -0.292969 2.585938 -0.351563 2.671875 -0.4375 C 2.753906 -0.519531 2.796875 -0.726563 2.796875 -1.0625 L 2.796875 -1.78125 L 0.203125 -1.78125 L 0.203125 -2.0625 C 1.410156 -3.863281 2.410156 -5.28125 3.203125 -6.3125 L 3.59375 -6.3125 L 3.59375 -2.25 L 4.5625 -2.25 Z M 2.796875 -2.25 L 2.796875 -5.203125 L 2.78125 -5.203125 C 2.0625 -4.210938 1.402344 -3.226563 0.8125 -2.25 Z M 2.796875 -2.25 "/>
</symbol>
<symbol overflow="visible" id="svg05svg05glyph0-25">
<path style="stroke:none;" d="M 3.875 -3.75 C 3.875 -3.644531 3.816406 -3.539063 3.703125 -3.4375 C 3.585938 -3.34375 3.488281 -3.296875 3.40625 -3.296875 C 3.34375 -3.296875 3.304688 -3.335938 3.296875 -3.421875 C 3.203125 -3.910156 2.929688 -4.15625 2.484375 -4.15625 C 2.242188 -4.15625 2.039063 -4.070313 1.875 -3.90625 C 1.707031 -3.75 1.625 -3.558594 1.625 -3.34375 C 1.625 -3.132813 1.703125 -2.960938 1.859375 -2.828125 C 2.023438 -2.703125 2.253906 -2.640625 2.546875 -2.640625 C 2.761719 -2.640625 2.921875 -2.644531 3.015625 -2.65625 L 3.046875 -2.59375 L 2.71875 -2.171875 C 2.582031 -2.179688 2.402344 -2.1875 2.1875 -2.1875 C 1.882813 -2.1875 1.632813 -2.113281 1.4375 -1.96875 C 1.25 -1.832031 1.15625 -1.632813 1.15625 -1.375 C 1.15625 -1.09375 1.242188 -0.867188 1.421875 -0.703125 C 1.605469 -0.546875 1.851563 -0.46875 2.15625 -0.46875 C 2.675781 -0.46875 3.160156 -0.691406 3.609375 -1.140625 L 3.78125 -0.90625 C 3.5625 -0.59375 3.277344 -0.339844 2.9375 -0.15625 C 2.59375 0.0273438 2.214844 0.125 1.8125 0.125 C 1.351563 0.125 0.972656 0.00390625 0.671875 -0.234375 C 0.378906 -0.472656 0.234375 -0.78125 0.234375 -1.15625 C 0.234375 -1.464844 0.359375 -1.726563 0.609375 -1.9375 C 0.855469 -2.152344 1.175781 -2.304688 1.5625 -2.390625 L 1.5625 -2.40625 C 1.320313 -2.476563 1.132813 -2.585938 1 -2.734375 C 0.875 -2.886719 0.8125 -3.066406 0.8125 -3.265625 C 0.8125 -3.628906 0.988281 -3.921875 1.34375 -4.140625 C 1.695313 -4.367188 2.101563 -4.484375 2.5625 -4.484375 C 3.007813 -4.484375 3.335938 -4.402344 3.546875 -4.25 C 3.761719 -4.09375 3.875 -3.925781 3.875 -3.75 Z M 3.875 -3.75 "/>
</symbol>
<symbol overflow="visible" id="svg05svg05glyph0-26">
<path style="stroke:none;" d="M 4.171875 8.390625 L 1.703125 8.390625 L 1.703125 -13.796875 L 4.171875 -13.796875 L 4.171875 -13.296875 L 3.515625 -13.265625 C 3.367188 -13.265625 3.246094 -13.257813 3.15625 -13.25 C 3.070313 -13.25 2.980469 -13.230469 2.890625 -13.203125 C 2.804688 -13.171875 2.738281 -13.144531 2.6875 -13.125 C 2.644531 -13.101563 2.601563 -13.054688 2.5625 -12.984375 C 2.519531 -12.910156 2.488281 -12.839844 2.46875 -12.78125 C 2.457031 -12.726563 2.445313 -12.628906 2.4375 -12.484375 C 2.425781 -12.335938 2.421875 -12.199219 2.421875 -12.078125 C 2.421875 -11.960938 2.421875 -11.789063 2.421875 -11.5625 L 2.421875 6.6875 C 2.421875 6.882813 2.421875 7.03125 2.421875 7.125 C 2.429688 7.226563 2.445313 7.332031 2.46875 7.4375 C 2.496094 7.550781 2.53125 7.625 2.5625 7.65625 C 2.601563 7.695313 2.664063 7.734375 2.75 7.765625 C 2.839844 7.804688 2.941406 7.832031 3.046875 7.84375 C 3.160156 7.851563 3.316406 7.863281 3.515625 7.875 L 4.171875 7.90625 Z M 4.171875 8.390625 "/>
</symbol>
<symbol overflow="visible" id="svg05svg05glyph0-27">
<path style="stroke:none;" d="M 4.734375 6.71875 L 4.46875 7.015625 C 3.28125 5.960938 2.386719 4.589844 1.796875 2.90625 C 1.203125 1.226563 0.90625 -0.640625 0.90625 -2.703125 L 0.90625 -2.71875 C 0.90625 -4.769531 1.203125 -6.628906 1.796875 -8.296875 C 2.386719 -9.972656 3.28125 -11.351563 4.46875 -12.4375 L 4.734375 -12.140625 C 3.804688 -11.203125 3.082031 -9.886719 2.5625 -8.203125 C 2.039063 -6.515625 1.78125 -4.679688 1.78125 -2.703125 C 1.78125 -0.742188 2.039063 1.078125 2.5625 2.765625 C 3.082031 4.460938 3.804688 5.78125 4.734375 6.71875 Z M 4.734375 6.71875 "/>
</symbol>
<symbol overflow="visible" id="svg05svg05glyph0-28">
<path style="stroke:none;" d="M 5.484375 -4.546875 C 5.265625 -4.035156 5.011719 -3.78125 4.734375 -3.78125 C 4.492188 -3.78125 4.148438 -3.8125 3.703125 -3.875 L 3.6875 -3.859375 C 3.925781 -3.660156 4.085938 -3.449219 4.171875 -3.234375 C 4.253906 -3.023438 4.296875 -2.757813 4.296875 -2.4375 C 4.296875 -1.75 4.042969 -1.148438 3.546875 -0.640625 C 3.046875 -0.128906 2.460938 0.125 1.796875 0.125 C 1.328125 0.125 0.945313 -0.0234375 0.65625 -0.328125 C 0.375 -0.628906 0.234375 -1.054688 0.234375 -1.609375 C 0.234375 -2.378906 0.507813 -3.046875 1.0625 -3.609375 C 1.621094 -4.179688 2.320313 -4.46875 3.15625 -4.46875 C 3.363281 -4.46875 3.625 -4.449219 3.9375 -4.421875 C 4.246094 -4.398438 4.472656 -4.390625 4.609375 -4.390625 C 4.847656 -4.390625 5.054688 -4.488281 5.234375 -4.6875 Z M 3.5 -2.734375 C 3.5 -3.097656 3.441406 -3.382813 3.328125 -3.59375 C 3.203125 -3.832031 3.011719 -3.953125 2.765625 -3.953125 C 2.429688 -3.953125 2.128906 -3.824219 1.859375 -3.578125 C 1.585938 -3.328125 1.386719 -3.019531 1.265625 -2.65625 C 1.140625 -2.300781 1.078125 -1.933594 1.078125 -1.5625 C 1.078125 -1.15625 1.15625 -0.832031 1.3125 -0.59375 C 1.476563 -0.363281 1.703125 -0.25 1.984375 -0.25 C 2.316406 -0.25 2.601563 -0.40625 2.84375 -0.71875 C 3.089844 -1.027344 3.265625 -1.363281 3.359375 -1.71875 C 3.449219 -2.082031 3.5 -2.421875 3.5 -2.734375 Z M 3.5 -2.734375 "/>
</symbol>
<symbol overflow="visible" id="svg05svg05glyph0-29">
<path style="stroke:none;" d="M 3.9375 -3.796875 C 3.875 -3.679688 3.777344 -3.582031 3.65625 -3.5 C 3.550781 -3.4375 3.472656 -3.429688 3.421875 -3.484375 C 3.296875 -3.605469 3.175781 -3.671875 3.0625 -3.671875 C 2.914063 -3.671875 2.742188 -3.542969 2.546875 -3.296875 C 2.160156 -2.804688 1.882813 -2.382813 1.71875 -2.03125 L 1.3125 -0.0625 C 1.164063 -0.0390625 0.914063 0.0195313 0.5625 0.125 L 0.5 0.046875 C 0.820313 -1.253906 1.066406 -2.367188 1.234375 -3.296875 C 1.285156 -3.585938 1.277344 -3.734375 1.21875 -3.734375 C 1.175781 -3.734375 1.074219 -3.679688 0.921875 -3.578125 C 0.765625 -3.484375 0.605469 -3.355469 0.453125 -3.203125 L 0.296875 -3.4375 C 0.535156 -3.714844 0.804688 -3.960938 1.109375 -4.171875 C 1.410156 -4.378906 1.632813 -4.484375 1.78125 -4.484375 C 2.050781 -4.484375 2.101563 -4.101563 1.9375 -3.34375 L 1.8125 -2.84375 L 1.859375 -2.84375 C 2.128906 -3.320313 2.410156 -3.710938 2.703125 -4.015625 C 3.003906 -4.324219 3.265625 -4.484375 3.484375 -4.484375 C 3.667969 -4.484375 3.820313 -4.394531 3.9375 -4.21875 C 4.019531 -4.082031 4.019531 -3.941406 3.9375 -3.796875 Z M 3.9375 -3.796875 "/>
</symbol>
<symbol overflow="visible" id="svg05svg05glyph0-30">
<path style="stroke:none;" d="M 4.6875 -2.703125 C 4.6875 -0.640625 4.386719 1.226563 3.796875 2.90625 C 3.210938 4.589844 2.320313 5.960938 1.125 7.015625 L 0.875 6.71875 C 1.789063 5.78125 2.507813 4.460938 3.03125 2.765625 C 3.550781 1.078125 3.8125 -0.742188 3.8125 -2.703125 C 3.8125 -4.679688 3.550781 -6.515625 3.03125 -8.203125 C 2.519531 -9.886719 1.800781 -11.203125 0.875 -12.140625 L 1.125 -12.4375 C 2.320313 -11.351563 3.210938 -9.972656 3.796875 -8.296875 C 4.386719 -6.628906 4.6875 -4.769531 4.6875 -2.71875 Z M 4.6875 -2.703125 "/>
</symbol>
<symbol overflow="visible" id="svg05svg05glyph0-31">
<path style="stroke:none;" d="M 3.609375 8.390625 L 1.140625 8.390625 L 1.140625 7.90625 L 1.796875 7.875 C 1.992188 7.863281 2.144531 7.851563 2.25 7.84375 C 2.363281 7.832031 2.460938 7.804688 2.546875 7.765625 C 2.636719 7.734375 2.703125 7.695313 2.734375 7.65625 C 2.773438 7.625 2.804688 7.550781 2.828125 7.4375 C 2.855469 7.332031 2.875 7.226563 2.875 7.125 C 2.882813 7.03125 2.890625 6.882813 2.890625 6.6875 L 2.890625 -11.5625 C 2.890625 -11.789063 2.890625 -11.960938 2.890625 -12.078125 C 2.890625 -12.199219 2.878906 -12.335938 2.859375 -12.484375 C 2.847656 -12.628906 2.835938 -12.726563 2.828125 -12.78125 C 2.816406 -12.839844 2.789063 -12.910156 2.75 -12.984375 C 2.707031 -13.054688 2.660156 -13.101563 2.609375 -13.125 C 2.566406 -13.144531 2.496094 -13.171875 2.40625 -13.203125 C 2.320313 -13.230469 2.230469 -13.25 2.140625 -13.25 C 2.054688 -13.257813 1.941406 -13.265625 1.796875 -13.265625 L 1.140625 -13.296875 L 1.140625 -13.796875 L 3.609375 -13.796875 Z M 3.609375 8.390625 "/>
</symbol>
<symbol overflow="visible" id="svg05svg05glyph0-32">
<path style="stroke:none;" d="M 4.734375 -4.296875 C 4.609375 -3.828125 4.449219 -3.082031 4.265625 -2.0625 L 3.625 1.40625 C 3.570313 1.726563 3.570313 1.925781 3.625 2 C 3.675781 2.070313 3.835938 2.125 4.109375 2.15625 L 4.375 2.1875 L 4.328125 2.453125 L 1.875 2.5625 L 1.90625 2.3125 L 2.078125 2.296875 C 2.324219 2.253906 2.492188 2.179688 2.578125 2.078125 C 2.660156 1.984375 2.738281 1.785156 2.8125 1.484375 L 3.484375 -1.734375 L 3.453125 -1.734375 C 3.023438 -1.203125 2.523438 -0.738281 1.953125 -0.34375 C 1.492188 -0.03125 1.148438 0.125 0.921875 0.125 C 0.734375 0.125 0.570313 0.0195313 0.4375 -0.1875 C 0.300781 -0.402344 0.234375 -0.679688 0.234375 -1.015625 C 0.234375 -1.535156 0.347656 -2.023438 0.578125 -2.484375 C 0.816406 -2.949219 1.117188 -3.34375 1.484375 -3.65625 C 1.929688 -4.039063 2.46875 -4.300781 3.09375 -4.4375 C 3.238281 -4.464844 3.429688 -4.484375 3.671875 -4.484375 C 3.949219 -4.484375 4.25 -4.429688 4.5625 -4.328125 Z M 3.875 -3.875 C 3.664063 -3.976563 3.414063 -4.03125 3.125 -4.03125 C 2.738281 -4.03125 2.429688 -3.941406 2.203125 -3.765625 C 1.867188 -3.503906 1.601563 -3.128906 1.40625 -2.640625 C 1.21875 -2.148438 1.125 -1.695313 1.125 -1.28125 C 1.125 -1.050781 1.148438 -0.871094 1.203125 -0.75 C 1.261719 -0.625 1.335938 -0.5625 1.421875 -0.5625 C 1.679688 -0.5625 2.039063 -0.773438 2.5 -1.203125 C 2.964844 -1.628906 3.316406 -2.015625 3.546875 -2.359375 C 3.648438 -2.710938 3.757813 -3.21875 3.875 -3.875 Z M 3.875 -3.875 "/>
</symbol>
<symbol overflow="visible" id="svg05svg05glyph0-33">
<path style="stroke:none;" d="M 4.734375 -2.5 C 4.347656 -2.476563 4.027344 -2.417969 3.78125 -2.328125 C 3.539063 -2.242188 3.367188 -2.128906 3.265625 -1.984375 C 3.171875 -1.835938 3.105469 -1.707031 3.078125 -1.59375 C 3.054688 -1.476563 3.046875 -1.332031 3.046875 -1.15625 L 3.15625 6.484375 C 3.15625 6.816406 3.105469 7.109375 3.015625 7.359375 C 2.921875 7.617188 2.804688 7.816406 2.671875 7.953125 C 2.546875 8.085938 2.382813 8.191406 2.1875 8.265625 C 2 8.347656 1.820313 8.398438 1.65625 8.421875 C 1.5 8.441406 1.320313 8.453125 1.125 8.453125 L 1.125 8.09375 C 1.402344 8.0625 1.640625 7.996094 1.828125 7.90625 C 2.023438 7.8125 2.164063 7.691406 2.25 7.546875 C 2.332031 7.410156 2.390625 7.269531 2.421875 7.125 C 2.449219 6.976563 2.46875 6.804688 2.46875 6.609375 C 2.46875 6.410156 2.425781 5.355469 2.34375 3.453125 C 2.269531 1.546875 2.234375 0.0976563 2.234375 -0.890625 C 2.234375 -1.878906 2.585938 -2.476563 3.296875 -2.6875 L 3.296875 -2.734375 C 2.929688 -2.824219 2.660156 -3.03125 2.484375 -3.34375 C 2.316406 -3.664063 2.234375 -4.050781 2.234375 -4.5 C 2.234375 -5.339844 2.269531 -6.609375 2.34375 -8.296875 C 2.425781 -9.992188 2.46875 -11.25 2.46875 -12.0625 C 2.46875 -12.476563 2.378906 -12.804688 2.203125 -13.046875 C 2.023438 -13.285156 1.664063 -13.4375 1.125 -13.5 L 1.125 -13.84375 C 2.476563 -13.84375 3.15625 -13.164063 3.15625 -11.8125 L 3.046875 -4.25 C 3.046875 -4.070313 3.054688 -3.925781 3.078125 -3.8125 C 3.105469 -3.695313 3.171875 -3.566406 3.265625 -3.421875 C 3.367188 -3.273438 3.539063 -3.152344 3.78125 -3.0625 C 4.027344 -2.976563 4.347656 -2.925781 4.734375 -2.90625 Z M 4.734375 -2.5 "/>
</symbol>
<symbol overflow="visible" id="svg05svg05glyph0-34">
<path style="stroke:none;" d="M 1.125 0.125 C 0.96875 0.125 0.835938 0.0703125 0.734375 -0.03125 C 0.628906 -0.144531 0.578125 -0.285156 0.578125 -0.453125 C 0.578125 -0.617188 0.628906 -0.753906 0.734375 -0.859375 C 0.847656 -0.972656 0.984375 -1.03125 1.140625 -1.03125 C 1.292969 -1.03125 1.425781 -0.972656 1.53125 -0.859375 C 1.644531 -0.753906 1.703125 -0.617188 1.703125 -0.453125 C 1.703125 -0.285156 1.644531 -0.144531 1.53125 -0.03125 C 1.425781 0.0703125 1.289063 0.125 1.125 0.125 Z M 1.125 0.125 "/>
</symbol>
<symbol overflow="visible" id="svg05glyph1-0">
<path style="stroke:none;" d="M 1.0625 -2.828125 L 1.625 -3.078125 C 1.738281 -3.117188 1.835938 -3.140625 1.921875 -3.140625 C 2.292969 -3.140625 2.617188 -2.992188 2.890625 -2.703125 C 3.160156 -2.421875 3.296875 -2.074219 3.296875 -1.671875 C 3.296875 -1.171875 3.117188 -0.753906 2.765625 -0.421875 C 2.421875 -0.0859375 2.011719 0.078125 1.546875 0.078125 C 1.210938 0.078125 0.867188 -0.00390625 0.515625 -0.171875 L 0.515625 -4.046875 C 0.515625 -4.273438 0.488281 -4.414063 0.4375 -4.46875 C 0.394531 -4.519531 0.261719 -4.554688 0.046875 -4.578125 L 0.046875 -4.734375 C 0.417969 -4.785156 0.757813 -4.867188 1.0625 -4.984375 Z M 1.0625 -2.625 L 1.0625 -0.8125 C 1.0625 -0.71875 1.078125 -0.632813 1.109375 -0.5625 C 1.136719 -0.476563 1.207031 -0.394531 1.3125 -0.3125 C 1.425781 -0.226563 1.5625 -0.1875 1.71875 -0.1875 C 2.007813 -0.1875 2.238281 -0.300781 2.40625 -0.53125 C 2.582031 -0.757813 2.671875 -1.078125 2.671875 -1.484375 C 2.671875 -1.867188 2.566406 -2.175781 2.359375 -2.40625 C 2.160156 -2.632813 1.910156 -2.75 1.609375 -2.75 C 1.398438 -2.75 1.214844 -2.707031 1.0625 -2.625 Z M 1.0625 -2.625 "/>
</symbol>
<symbol overflow="visible" id="svg05glyph1-1">
<path style="stroke:none;" d="M 1.796875 -3.140625 C 2.222656 -3.140625 2.582031 -2.988281 2.875 -2.6875 C 3.164063 -2.382813 3.3125 -2.011719 3.3125 -1.578125 C 3.3125 -1.054688 3.152344 -0.648438 2.84375 -0.359375 C 2.53125 -0.0664063 2.179688 0.078125 1.796875 0.078125 C 1.335938 0.078125 0.964844 -0.0703125 0.6875 -0.375 C 0.40625 -0.683594 0.265625 -1.050781 0.265625 -1.46875 C 0.265625 -1.738281 0.3125 -1.984375 0.40625 -2.203125 C 0.496094 -2.429688 0.625 -2.609375 0.78125 -2.734375 C 0.933594 -2.867188 1.101563 -2.96875 1.28125 -3.03125 C 1.457031 -3.101563 1.628906 -3.140625 1.796875 -3.140625 Z M 1.703125 -2.90625 C 1.484375 -2.90625 1.292969 -2.792969 1.140625 -2.578125 C 0.984375 -2.359375 0.90625 -2.058594 0.90625 -1.6875 C 0.90625 -1.238281 0.992188 -0.867188 1.171875 -0.578125 C 1.347656 -0.285156 1.582031 -0.140625 1.875 -0.140625 C 2.101563 -0.140625 2.289063 -0.238281 2.4375 -0.4375 C 2.582031 -0.644531 2.65625 -0.972656 2.65625 -1.421875 C 2.65625 -1.847656 2.570313 -2.203125 2.40625 -2.484375 C 2.238281 -2.761719 2.003906 -2.90625 1.703125 -2.90625 Z M 1.703125 -2.90625 "/>
</symbol>
<symbol overflow="visible" id="svg05glyph1-2">
<path style="stroke:none;" d="M 3.671875 0 L 2.203125 0 L 2.203125 -0.1875 C 2.410156 -0.207031 2.539063 -0.25 2.59375 -0.3125 C 2.644531 -0.371094 2.671875 -0.523438 2.671875 -0.765625 L 2.671875 -1.9375 C 2.671875 -2.464844 2.457031 -2.734375 2.03125 -2.734375 C 1.800781 -2.734375 1.542969 -2.613281 1.265625 -2.375 L 1.265625 -0.734375 C 1.265625 -0.492188 1.285156 -0.347656 1.328125 -0.296875 C 1.378906 -0.242188 1.507813 -0.207031 1.71875 -0.1875 L 1.71875 0 L 0.203125 0 L 0.203125 -0.1875 C 0.441406 -0.207031 0.585938 -0.242188 0.640625 -0.296875 C 0.691406 -0.355469 0.71875 -0.503906 0.71875 -0.734375 L 0.71875 -2.171875 C 0.71875 -2.386719 0.691406 -2.523438 0.640625 -2.578125 C 0.597656 -2.628906 0.480469 -2.675781 0.296875 -2.71875 L 0.296875 -2.875 C 0.679688 -2.945313 1.003906 -3.039063 1.265625 -3.15625 L 1.265625 -2.609375 C 1.355469 -2.667969 1.515625 -2.78125 1.734375 -2.9375 C 1.949219 -3.070313 2.144531 -3.140625 2.3125 -3.140625 C 2.589844 -3.140625 2.8125 -3.042969 2.96875 -2.859375 C 3.132813 -2.671875 3.21875 -2.410156 3.21875 -2.078125 L 3.21875 -0.734375 C 3.21875 -0.492188 3.238281 -0.347656 3.28125 -0.296875 C 3.332031 -0.242188 3.460938 -0.207031 3.671875 -0.1875 Z M 3.671875 0 "/>
</symbol>
<symbol overflow="visible" id="svg05glyph1-3">
<path style="stroke:none;" d="M 3.625 -0.359375 L 3.625 -0.1875 C 3.144531 -0.101563 2.777344 -0.0117188 2.53125 0.078125 L 2.53125 -0.375 L 2.109375 -0.125 C 1.867188 0.0078125 1.683594 0.078125 1.5625 0.078125 C 1.238281 0.078125 0.941406 -0.0546875 0.671875 -0.328125 C 0.398438 -0.597656 0.265625 -0.957031 0.265625 -1.40625 C 0.265625 -1.882813 0.441406 -2.289063 0.796875 -2.625 C 1.160156 -2.964844 1.582031 -3.140625 2.0625 -3.140625 C 2.226563 -3.140625 2.382813 -3.113281 2.53125 -3.0625 L 2.53125 -4.0625 C 2.53125 -4.277344 2.503906 -4.414063 2.453125 -4.46875 C 2.398438 -4.519531 2.246094 -4.554688 2 -4.578125 L 2 -4.75 C 2.363281 -4.789063 2.726563 -4.867188 3.09375 -4.984375 L 3.09375 -0.8125 C 3.09375 -0.625 3.109375 -0.507813 3.140625 -0.46875 C 3.167969 -0.425781 3.253906 -0.394531 3.390625 -0.375 Z M 2.53125 -0.59375 L 2.53125 -2.515625 C 2.363281 -2.753906 2.121094 -2.875 1.8125 -2.875 C 1.71875 -2.875 1.621094 -2.851563 1.53125 -2.8125 C 1.4375 -2.78125 1.335938 -2.714844 1.234375 -2.625 C 1.128906 -2.53125 1.042969 -2.394531 0.984375 -2.21875 C 0.921875 -2.039063 0.890625 -1.832031 0.890625 -1.59375 C 0.890625 -1.207031 0.988281 -0.902344 1.1875 -0.6875 C 1.382813 -0.46875 1.609375 -0.359375 1.859375 -0.359375 C 2.097656 -0.359375 2.320313 -0.4375 2.53125 -0.59375 Z M 2.53125 -0.59375 "/>
</symbol>
<symbol overflow="visible" id="svg05glyph1-4">
<path style="stroke:none;" d="M 2.234375 -2.28125 L 2.0625 -2.21875 C 1.90625 -2.683594 1.664063 -2.921875 1.34375 -2.921875 C 1.207031 -2.921875 1.089844 -2.871094 1 -2.78125 C 0.914063 -2.6875 0.875 -2.566406 0.875 -2.421875 C 0.875 -2.285156 0.925781 -2.167969 1.03125 -2.078125 C 1.132813 -1.992188 1.28125 -1.910156 1.46875 -1.828125 C 1.757813 -1.710938 1.976563 -1.582031 2.125 -1.4375 C 2.277344 -1.289063 2.359375 -1.101563 2.359375 -0.875 C 2.359375 -0.582031 2.238281 -0.347656 2 -0.171875 C 1.769531 -0.00390625 1.503906 0.078125 1.203125 0.078125 C 1.035156 0.078125 0.871094 0.0507813 0.71875 0 C 0.570313 -0.0390625 0.464844 -0.09375 0.40625 -0.15625 C 0.382813 -0.207031 0.355469 -0.328125 0.328125 -0.515625 C 0.296875 -0.699219 0.28125 -0.859375 0.28125 -0.984375 L 0.46875 -1.015625 C 0.539063 -0.765625 0.648438 -0.554688 0.796875 -0.390625 C 0.949219 -0.222656 1.128906 -0.140625 1.328125 -0.140625 C 1.460938 -0.140625 1.578125 -0.1875 1.671875 -0.28125 C 1.773438 -0.371094 1.828125 -0.492188 1.828125 -0.640625 C 1.828125 -0.785156 1.777344 -0.90625 1.6875 -1 C 1.59375 -1.089844 1.457031 -1.1875 1.28125 -1.28125 C 1.144531 -1.332031 1.035156 -1.378906 0.953125 -1.421875 C 0.867188 -1.472656 0.773438 -1.535156 0.671875 -1.609375 C 0.578125 -1.691406 0.507813 -1.785156 0.46875 -1.890625 C 0.425781 -1.992188 0.40625 -2.109375 0.40625 -2.234375 C 0.40625 -2.480469 0.503906 -2.695313 0.703125 -2.875 C 0.898438 -3.050781 1.15625 -3.140625 1.46875 -3.140625 C 1.683594 -3.140625 1.890625 -3.097656 2.078125 -3.015625 C 2.105469 -2.941406 2.140625 -2.820313 2.171875 -2.65625 C 2.199219 -2.5 2.222656 -2.371094 2.234375 -2.28125 Z M 2.234375 -2.28125 "/>
</symbol>
<symbol overflow="visible" id="svg05glyph1-5">
<path style="stroke:none;" d="M 3.15625 -2.328125 C 3.15625 -1.941406 3.042969 -1.554688 2.828125 -1.171875 C 2.617188 -0.796875 2.351563 -0.496094 2.03125 -0.28125 C 1.65625 -0.0390625 1.285156 0.078125 0.921875 0.078125 C 0.796875 0.078125 0.675781 0.0507813 0.5625 0 C 0.445313 -0.0585938 0.363281 -0.140625 0.3125 -0.234375 C 0.1875 -0.417969 0.171875 -0.734375 0.265625 -1.171875 L 0.90625 -4.1875 C 0.933594 -4.371094 0.941406 -4.484375 0.921875 -4.515625 C 0.898438 -4.542969 0.816406 -4.5625 0.671875 -4.5625 L 0.453125 -4.5625 L 0.46875 -4.734375 C 0.632813 -4.753906 0.800781 -4.785156 0.96875 -4.828125 C 1.132813 -4.867188 1.269531 -4.90625 1.375 -4.9375 C 1.476563 -4.964844 1.546875 -4.984375 1.578125 -4.984375 C 1.617188 -4.984375 1.628906 -4.914063 1.609375 -4.78125 L 0.96875 -2.046875 L 0.984375 -2.046875 C 1.285156 -2.398438 1.585938 -2.671875 1.890625 -2.859375 C 2.191406 -3.042969 2.4375 -3.140625 2.625 -3.140625 C 2.789063 -3.140625 2.921875 -3.058594 3.015625 -2.90625 C 3.105469 -2.757813 3.15625 -2.566406 3.15625 -2.328125 Z M 2.5625 -2.21875 C 2.5625 -2.570313 2.476563 -2.75 2.3125 -2.75 C 2.164063 -2.75 1.945313 -2.632813 1.65625 -2.40625 C 1.363281 -2.175781 1.113281 -1.914063 0.90625 -1.625 C 0.84375 -1.457031 0.800781 -1.292969 0.78125 -1.140625 C 0.738281 -0.835938 0.765625 -0.613281 0.859375 -0.46875 C 0.960938 -0.320313 1.101563 -0.25 1.28125 -0.25 C 1.425781 -0.25 1.554688 -0.28125 1.671875 -0.34375 C 1.917969 -0.476563 2.128906 -0.722656 2.296875 -1.078125 C 2.472656 -1.429688 2.5625 -1.8125 2.5625 -2.21875 Z M 2.5625 -2.21875 "/>
</symbol>
<symbol overflow="visible" id="svg05glyph1-6">
<path style="stroke:none;" d="M 2.65625 -0.734375 L 2.765625 -0.59375 C 2.566406 -0.34375 2.363281 -0.164063 2.15625 -0.0625 C 1.945313 0.0273438 1.769531 0.078125 1.625 0.078125 C 1.207031 0.078125 0.871094 -0.0625 0.625 -0.34375 C 0.382813 -0.632813 0.265625 -0.988281 0.265625 -1.40625 C 0.265625 -1.882813 0.414063 -2.289063 0.71875 -2.625 C 1.027344 -2.964844 1.375 -3.140625 1.75 -3.140625 C 2.027344 -3.140625 2.273438 -3.027344 2.484375 -2.8125 C 2.691406 -2.59375 2.796875 -2.347656 2.796875 -2.078125 C 2.796875 -2.003906 2.785156 -1.949219 2.765625 -1.921875 C 2.742188 -1.890625 2.699219 -1.867188 2.640625 -1.859375 C 2.390625 -1.804688 1.777344 -1.761719 0.8125 -1.734375 C 0.8125 -1.296875 0.914063 -0.960938 1.125 -0.734375 C 1.332031 -0.503906 1.578125 -0.390625 1.859375 -0.390625 C 2.136719 -0.390625 2.40625 -0.503906 2.65625 -0.734375 Z M 1.578125 -2.890625 C 1.410156 -2.890625 1.257813 -2.808594 1.125 -2.65625 C 0.988281 -2.5 0.894531 -2.285156 0.84375 -2.015625 C 1.226563 -2.015625 1.625 -2.023438 2.03125 -2.046875 C 2.089844 -2.046875 2.132813 -2.054688 2.15625 -2.078125 C 2.183594 -2.097656 2.203125 -2.132813 2.203125 -2.1875 C 2.203125 -2.371094 2.144531 -2.535156 2.03125 -2.671875 C 1.914063 -2.816406 1.761719 -2.890625 1.578125 -2.890625 Z M 1.578125 -2.890625 "/>
</symbol>
<symbol overflow="visible" id="svg05glyph1-7">
<path style="stroke:none;" d="M 3.609375 1.6875 L 1.921875 1.6875 L 1.921875 1.484375 C 2.191406 1.472656 2.359375 1.433594 2.421875 1.375 C 2.480469 1.3125 2.515625 1.152344 2.515625 0.90625 L 2.515625 -0.203125 L 1.765625 0.078125 C 1.296875 0.078125 0.925781 -0.0664063 0.65625 -0.359375 C 0.394531 -0.660156 0.265625 -1 0.265625 -1.375 C 0.265625 -1.871094 0.453125 -2.296875 0.828125 -2.640625 C 1.210938 -2.980469 1.648438 -3.148438 2.140625 -3.140625 C 2.367188 -3.117188 2.53125 -3.085938 2.625 -3.046875 C 2.707031 -3.023438 2.769531 -3.015625 2.8125 -3.015625 C 2.871094 -3.015625 2.957031 -3.039063 3.0625 -3.09375 L 3.09375 -3.078125 C 3.070313 -2.773438 3.0625 -2.523438 3.0625 -2.328125 L 3.0625 0.921875 C 3.0625 1.160156 3.085938 1.304688 3.140625 1.359375 C 3.199219 1.417969 3.359375 1.460938 3.609375 1.484375 Z M 2.515625 -0.421875 L 2.515625 -2.5625 C 2.429688 -2.644531 2.324219 -2.710938 2.203125 -2.765625 C 2.078125 -2.824219 1.949219 -2.859375 1.828125 -2.859375 C 1.578125 -2.859375 1.355469 -2.746094 1.171875 -2.53125 C 0.984375 -2.3125 0.890625 -2.003906 0.890625 -1.609375 C 0.890625 -1.210938 1 -0.894531 1.21875 -0.65625 C 1.445313 -0.425781 1.707031 -0.3125 2 -0.3125 C 2.183594 -0.3125 2.359375 -0.347656 2.515625 -0.421875 Z M 2.515625 -0.421875 "/>
</symbol>
<symbol overflow="visible" id="svg05glyph1-8">
<path style="stroke:none;" d="M 2.890625 -0.984375 L 3.078125 -0.921875 C 3.078125 -0.910156 2.992188 -0.601563 2.828125 0 L 0.21875 0 L 0.21875 -0.15625 C 0.746094 -0.675781 1.125 -1.070313 1.34375 -1.34375 C 1.621094 -1.675781 1.835938 -1.972656 1.984375 -2.234375 C 2.136719 -2.503906 2.21875 -2.773438 2.21875 -3.046875 C 2.21875 -3.335938 2.144531 -3.5625 2 -3.71875 C 1.863281 -3.882813 1.664063 -3.96875 1.40625 -3.96875 C 1.050781 -3.96875 0.730469 -3.753906 0.453125 -3.328125 L 0.296875 -3.46875 L 0.6875 -4.03125 C 0.945313 -4.300781 1.265625 -4.4375 1.640625 -4.4375 C 1.960938 -4.4375 2.238281 -4.324219 2.46875 -4.109375 C 2.695313 -3.898438 2.8125 -3.617188 2.8125 -3.265625 C 2.8125 -2.972656 2.742188 -2.699219 2.609375 -2.453125 C 2.472656 -2.210938 2.230469 -1.910156 1.890625 -1.546875 L 0.90625 -0.515625 L 2.203125 -0.515625 C 2.398438 -0.515625 2.535156 -0.535156 2.609375 -0.578125 C 2.691406 -0.628906 2.785156 -0.765625 2.890625 -0.984375 Z M 2.890625 -0.984375 "/>
</symbol>
<symbol overflow="visible" id="svg05glyph1-9">
<path style="stroke:none;" d="M 3.03125 -0.265625 L 2.4375 0.078125 C 2.3125 0.078125 2.199219 0.0273438 2.109375 -0.0625 C 2.035156 -0.132813 1.976563 -0.234375 1.9375 -0.359375 C 1.914063 -0.347656 1.855469 -0.308594 1.765625 -0.25 C 1.679688 -0.1875 1.617188 -0.136719 1.578125 -0.109375 C 1.546875 -0.0859375 1.492188 -0.0546875 1.421875 -0.015625 C 1.347656 0.0117188 1.285156 0.0351563 1.234375 0.046875 C 1.191406 0.0664063 1.148438 0.078125 1.109375 0.078125 C 0.867188 0.078125 0.664063 -0.00390625 0.5 -0.171875 C 0.34375 -0.335938 0.265625 -0.535156 0.265625 -0.765625 C 0.265625 -1.097656 0.457031 -1.332031 0.84375 -1.46875 C 1.433594 -1.664063 1.796875 -1.816406 1.921875 -1.921875 L 1.921875 -2.03125 C 1.921875 -2.289063 1.867188 -2.488281 1.765625 -2.625 C 1.660156 -2.757813 1.511719 -2.828125 1.328125 -2.828125 C 1.203125 -2.828125 1.097656 -2.777344 1.015625 -2.6875 C 0.929688 -2.601563 0.863281 -2.449219 0.8125 -2.234375 C 0.78125 -2.128906 0.710938 -2.078125 0.609375 -2.078125 C 0.535156 -2.078125 0.464844 -2.101563 0.40625 -2.15625 C 0.34375 -2.214844 0.3125 -2.285156 0.3125 -2.359375 C 0.3125 -2.441406 0.382813 -2.539063 0.53125 -2.65625 C 0.644531 -2.738281 0.800781 -2.832031 1 -2.9375 C 1.207031 -3.039063 1.398438 -3.109375 1.578125 -3.140625 C 1.804688 -3.140625 2 -3.074219 2.15625 -2.953125 C 2.363281 -2.773438 2.46875 -2.488281 2.46875 -2.09375 L 2.46875 -0.796875 C 2.46875 -0.515625 2.546875 -0.375 2.703125 -0.375 C 2.785156 -0.375 2.875 -0.398438 2.96875 -0.453125 Z M 1.921875 -0.59375 L 1.921875 -1.6875 C 1.867188 -1.65625 1.753906 -1.597656 1.578125 -1.515625 C 1.410156 -1.441406 1.316406 -1.398438 1.296875 -1.390625 C 1.148438 -1.316406 1.039063 -1.238281 0.96875 -1.15625 C 0.90625 -1.082031 0.875 -0.988281 0.875 -0.875 C 0.875 -0.707031 0.925781 -0.574219 1.03125 -0.484375 C 1.132813 -0.390625 1.242188 -0.34375 1.359375 -0.34375 C 1.449219 -0.34375 1.550781 -0.363281 1.65625 -0.40625 C 1.757813 -0.457031 1.847656 -0.519531 1.921875 -0.59375 Z M 1.921875 -0.59375 "/>
</symbol>
<symbol overflow="visible" id="svg05svg05glyph1-10">
<path style="stroke:none;" d="M 3.234375 -3.0625 L 3.28125 -3 C 3.175781 -2.820313 3.070313 -2.699219 2.96875 -2.640625 L 2.5625 -2.671875 C 2.695313 -2.503906 2.765625 -2.292969 2.765625 -2.046875 C 2.765625 -1.691406 2.636719 -1.414063 2.390625 -1.21875 C 2.148438 -1.03125 1.867188 -0.9375 1.546875 -0.9375 C 1.429688 -0.9375 1.308594 -0.945313 1.1875 -0.96875 C 1.050781 -0.863281 0.984375 -0.761719 0.984375 -0.671875 C 0.984375 -0.597656 1.019531 -0.535156 1.09375 -0.484375 C 1.164063 -0.429688 1.273438 -0.40625 1.421875 -0.40625 C 1.503906 -0.40625 1.628906 -0.40625 1.796875 -0.40625 C 1.960938 -0.40625 2.082031 -0.40625 2.15625 -0.40625 C 2.332031 -0.40625 2.488281 -0.382813 2.625 -0.34375 C 2.757813 -0.3125 2.878906 -0.226563 2.984375 -0.09375 C 3.097656 0.0273438 3.15625 0.195313 3.15625 0.40625 C 3.15625 0.769531 2.976563 1.09375 2.625 1.375 C 2.28125 1.652344 1.878906 1.796875 1.421875 1.796875 C 1.054688 1.796875 0.757813 1.707031 0.53125 1.53125 C 0.3125 1.363281 0.203125 1.164063 0.203125 0.9375 C 0.203125 0.789063 0.257813 0.660156 0.375 0.546875 C 0.464844 0.453125 0.660156 0.289063 0.953125 0.0625 C 0.722656 -0.0078125 0.550781 -0.140625 0.4375 -0.328125 C 0.375 -0.417969 0.347656 -0.515625 0.359375 -0.609375 C 0.617188 -0.710938 0.820313 -0.859375 0.96875 -1.046875 C 0.800781 -1.117188 0.652344 -1.234375 0.53125 -1.390625 C 0.414063 -1.554688 0.359375 -1.753906 0.359375 -1.984375 C 0.359375 -2.347656 0.488281 -2.628906 0.75 -2.828125 C 1.007813 -3.035156 1.296875 -3.140625 1.609375 -3.140625 C 1.847656 -3.140625 2.070313 -3.074219 2.28125 -2.953125 C 2.613281 -2.972656 2.929688 -3.007813 3.234375 -3.0625 Z M 1.53125 -2.921875 C 1.375 -2.921875 1.238281 -2.847656 1.125 -2.703125 C 1.007813 -2.554688 0.953125 -2.351563 0.953125 -2.09375 C 0.953125 -1.820313 1.015625 -1.597656 1.140625 -1.421875 C 1.261719 -1.242188 1.421875 -1.15625 1.609375 -1.15625 C 1.773438 -1.15625 1.914063 -1.226563 2.03125 -1.375 C 2.144531 -1.519531 2.203125 -1.722656 2.203125 -1.984375 C 2.203125 -2.261719 2.136719 -2.488281 2.015625 -2.65625 C 1.890625 -2.832031 1.726563 -2.921875 1.53125 -2.921875 Z M 1.6875 0.078125 C 1.394531 0.078125 1.191406 0.125 1.078125 0.21875 C 0.859375 0.402344 0.75 0.585938 0.75 0.765625 C 0.75 0.960938 0.835938 1.125 1.015625 1.25 C 1.191406 1.371094 1.414063 1.4375 1.6875 1.4375 C 1.996094 1.4375 2.242188 1.363281 2.421875 1.21875 C 2.597656 1.082031 2.6875 0.898438 2.6875 0.671875 C 2.6875 0.421875 2.582031 0.253906 2.375 0.171875 C 2.21875 0.109375 1.988281 0.078125 1.6875 0.078125 Z M 1.6875 0.078125 "/>
</symbol>
<symbol overflow="visible" id="svg05svg05glyph1-11">
<path style="stroke:none;" d="M 1.671875 0 L 0.109375 0 L 0.109375 -0.1875 C 0.324219 -0.207031 0.460938 -0.242188 0.515625 -0.296875 C 0.574219 -0.355469 0.609375 -0.503906 0.609375 -0.734375 L 0.609375 -4.03125 C 0.609375 -4.269531 0.582031 -4.410156 0.53125 -4.453125 C 0.488281 -4.503906 0.351563 -4.546875 0.125 -4.578125 L 0.125 -4.734375 C 0.464844 -4.773438 0.8125 -4.859375 1.15625 -4.984375 L 1.15625 -0.734375 C 1.15625 -0.503906 1.179688 -0.355469 1.234375 -0.296875 C 1.292969 -0.242188 1.441406 -0.207031 1.671875 -0.1875 Z M 1.671875 0 "/>
</symbol>
<symbol overflow="visible" id="svg05svg05glyph1-12">
<path style="stroke:none;" d="M 3.328125 -3.546875 C 3.328125 -3.160156 3.277344 -2.757813 3.1875 -2.34375 C 3.09375 -1.925781 2.960938 -1.535156 2.796875 -1.171875 C 2.628906 -0.804688 2.410156 -0.503906 2.140625 -0.265625 C 1.867188 -0.0351563 1.574219 0.078125 1.265625 0.078125 C 0.523438 0.078125 0.15625 -0.445313 0.15625 -1.5 C 0.15625 -1.863281 0.207031 -2.242188 0.3125 -2.640625 C 0.414063 -3.042969 0.550781 -3.425781 0.71875 -3.78125 C 0.894531 -4.132813 1.117188 -4.421875 1.390625 -4.640625 C 1.667969 -4.867188 1.96875 -4.984375 2.28125 -4.984375 C 2.644531 -4.984375 2.910156 -4.847656 3.078125 -4.578125 C 3.242188 -4.304688 3.328125 -3.960938 3.328125 -3.546875 Z M 2.734375 -3.65625 C 2.734375 -4.371094 2.542969 -4.734375 2.171875 -4.734375 C 1.878906 -4.734375 1.617188 -4.539063 1.390625 -4.15625 C 1.160156 -3.769531 0.988281 -3.304688 0.875 -2.765625 L 2.65625 -2.765625 C 2.707031 -3.136719 2.734375 -3.4375 2.734375 -3.65625 Z M 2.609375 -2.421875 L 0.828125 -2.421875 C 0.765625 -1.992188 0.734375 -1.644531 0.734375 -1.375 C 0.734375 -1.039063 0.78125 -0.753906 0.875 -0.515625 C 0.964844 -0.273438 1.117188 -0.15625 1.328125 -0.15625 C 1.480469 -0.15625 1.628906 -0.21875 1.765625 -0.34375 C 1.910156 -0.476563 2.035156 -0.660156 2.140625 -0.890625 C 2.242188 -1.117188 2.332031 -1.359375 2.40625 -1.609375 C 2.488281 -1.867188 2.554688 -2.140625 2.609375 -2.421875 Z M 2.609375 -2.421875 "/>
</symbol>
<symbol overflow="visible" id="svg05svg05glyph1-13">
<path style="stroke:none;" d="M 0.9375 -3.75 C 0.851563 -3.75 0.773438 -3.785156 0.703125 -3.859375 C 0.628906 -3.929688 0.59375 -4.015625 0.59375 -4.109375 C 0.59375 -4.210938 0.628906 -4.296875 0.703125 -4.359375 C 0.773438 -4.429688 0.859375 -4.46875 0.953125 -4.46875 C 1.042969 -4.46875 1.125 -4.429688 1.1875 -4.359375 C 1.257813 -4.296875 1.296875 -4.210938 1.296875 -4.109375 C 1.296875 -4.015625 1.257813 -3.929688 1.1875 -3.859375 C 1.125 -3.785156 1.039063 -3.75 0.9375 -3.75 Z M 1.765625 0 L 0.21875 0 L 0.21875 -0.1875 C 0.445313 -0.207031 0.585938 -0.242188 0.640625 -0.296875 C 0.691406 -0.355469 0.71875 -0.503906 0.71875 -0.734375 L 0.71875 -2.1875 C 0.71875 -2.402344 0.695313 -2.539063 0.65625 -2.59375 C 0.613281 -2.644531 0.480469 -2.6875 0.265625 -2.71875 L 0.265625 -2.890625 C 0.628906 -2.941406 0.960938 -3.03125 1.265625 -3.15625 L 1.265625 -0.734375 C 1.265625 -0.503906 1.289063 -0.355469 1.34375 -0.296875 C 1.394531 -0.242188 1.535156 -0.207031 1.765625 -0.1875 Z M 1.765625 0 "/>
</symbol>
<symbol overflow="visible" id="svg05svg05glyph1-14">
<path style="stroke:none;" d="M 5.578125 0 L 4.078125 0 L 4.078125 -0.1875 C 4.292969 -0.207031 4.429688 -0.242188 4.484375 -0.296875 C 4.542969 -0.355469 4.578125 -0.507813 4.578125 -0.75 L 4.578125 -1.921875 C 4.578125 -2.460938 4.367188 -2.734375 3.953125 -2.734375 C 3.734375 -2.734375 3.472656 -2.605469 3.171875 -2.359375 C 3.179688 -2.273438 3.1875 -2.179688 3.1875 -2.078125 L 3.1875 -0.703125 C 3.1875 -0.492188 3.210938 -0.355469 3.265625 -0.296875 C 3.316406 -0.242188 3.441406 -0.207031 3.640625 -0.1875 L 3.640625 0 L 2.140625 0 L 2.140625 -0.1875 C 2.367188 -0.207031 2.507813 -0.242188 2.5625 -0.296875 C 2.613281 -0.355469 2.640625 -0.5 2.640625 -0.71875 L 2.640625 -1.921875 C 2.640625 -2.460938 2.429688 -2.734375 2.015625 -2.734375 C 1.796875 -2.734375 1.542969 -2.605469 1.265625 -2.359375 L 1.265625 -0.71875 C 1.265625 -0.5 1.285156 -0.355469 1.328125 -0.296875 C 1.378906 -0.242188 1.492188 -0.207031 1.671875 -0.1875 L 1.671875 0 L 0.1875 0 L 0.1875 -0.1875 C 0.414063 -0.207031 0.5625 -0.242188 0.625 -0.296875 C 0.683594 -0.355469 0.71875 -0.5 0.71875 -0.71875 L 0.71875 -2.171875 C 0.71875 -2.386719 0.695313 -2.523438 0.65625 -2.578125 C 0.613281 -2.636719 0.488281 -2.6875 0.28125 -2.71875 L 0.28125 -2.875 C 0.652344 -2.933594 0.984375 -3.03125 1.265625 -3.15625 L 1.265625 -2.59375 C 1.273438 -2.601563 1.335938 -2.648438 1.453125 -2.734375 C 1.574219 -2.824219 1.679688 -2.898438 1.765625 -2.953125 C 1.980469 -3.074219 2.175781 -3.140625 2.34375 -3.140625 C 2.507813 -3.140625 2.660156 -3.085938 2.796875 -2.984375 C 2.941406 -2.878906 3.050781 -2.738281 3.125 -2.5625 C 3.238281 -2.652344 3.429688 -2.789063 3.703125 -2.96875 C 3.878906 -3.082031 4.054688 -3.140625 4.234375 -3.140625 C 4.503906 -3.140625 4.71875 -3.042969 4.875 -2.859375 C 5.039063 -2.671875 5.125 -2.410156 5.125 -2.078125 L 5.125 -0.71875 C 5.125 -0.488281 5.144531 -0.347656 5.1875 -0.296875 C 5.238281 -0.242188 5.367188 -0.207031 5.578125 -0.1875 Z M 5.578125 0 "/>
</symbol>
<symbol overflow="visible" id="svg05svg05glyph1-15">
<path style="stroke:none;" d="M 1.1875 -2.65625 L 1.828125 -3.03125 C 1.949219 -3.101563 2.066406 -3.140625 2.171875 -3.140625 C 2.542969 -3.140625 2.84375 -3.007813 3.0625 -2.75 C 3.289063 -2.488281 3.40625 -2.175781 3.40625 -1.8125 C 3.40625 -1.3125 3.230469 -0.886719 2.890625 -0.546875 C 2.554688 -0.210938 2.148438 -0.00390625 1.671875 0.078125 C 1.492188 0.078125 1.332031 0.0351563 1.1875 -0.046875 L 1.1875 0.875 C 1.1875 1.144531 1.210938 1.304688 1.265625 1.359375 C 1.324219 1.417969 1.492188 1.460938 1.765625 1.484375 L 1.765625 1.6875 L 0.125 1.6875 L 0.125 1.484375 C 0.351563 1.460938 0.492188 1.417969 0.546875 1.359375 C 0.597656 1.304688 0.625 1.164063 0.625 0.9375 L 0.625 -2.21875 C 0.625 -2.445313 0.601563 -2.582031 0.5625 -2.625 C 0.519531 -2.675781 0.386719 -2.71875 0.171875 -2.75 L 0.171875 -2.90625 C 0.472656 -2.957031 0.8125 -3.0625 1.1875 -3.21875 Z M 1.1875 -2.421875 L 1.1875 -0.53125 C 1.351563 -0.351563 1.570313 -0.265625 1.84375 -0.265625 C 2.132813 -0.265625 2.367188 -0.378906 2.546875 -0.609375 C 2.730469 -0.835938 2.828125 -1.148438 2.828125 -1.546875 C 2.828125 -1.910156 2.730469 -2.195313 2.546875 -2.40625 C 2.367188 -2.613281 2.148438 -2.71875 1.890625 -2.71875 C 1.671875 -2.71875 1.433594 -2.617188 1.1875 -2.421875 Z M 1.1875 -2.421875 "/>
</symbol>
<symbol overflow="visible" id="svg05svg05glyph1-16">
<path style="stroke:none;" d="M 1.265625 -2.390625 L 1.28125 -2.390625 C 1.570313 -2.886719 1.851563 -3.140625 2.125 -3.140625 C 2.238281 -3.140625 2.332031 -3.101563 2.40625 -3.03125 C 2.488281 -2.957031 2.53125 -2.878906 2.53125 -2.796875 C 2.53125 -2.640625 2.457031 -2.523438 2.3125 -2.453125 C 2.226563 -2.421875 2.164063 -2.425781 2.125 -2.46875 C 2.03125 -2.558594 1.929688 -2.609375 1.828125 -2.609375 C 1.734375 -2.609375 1.632813 -2.554688 1.53125 -2.453125 C 1.425781 -2.347656 1.335938 -2.199219 1.265625 -2.015625 L 1.265625 -0.734375 C 1.265625 -0.492188 1.289063 -0.339844 1.34375 -0.28125 C 1.402344 -0.226563 1.570313 -0.195313 1.84375 -0.1875 L 1.84375 0 L 0.234375 0 L 0.234375 -0.1875 C 0.449219 -0.207031 0.585938 -0.242188 0.640625 -0.296875 C 0.691406 -0.355469 0.71875 -0.503906 0.71875 -0.734375 L 0.71875 -2.171875 C 0.71875 -2.398438 0.695313 -2.539063 0.65625 -2.59375 C 0.613281 -2.652344 0.488281 -2.695313 0.28125 -2.71875 L 0.28125 -2.875 C 0.621094 -2.933594 0.953125 -3.03125 1.265625 -3.15625 Z M 1.265625 -2.390625 "/>
</symbol>
<symbol overflow="visible" id="svg05svg05glyph1-17">
<path style="stroke:none;" d="M 4.828125 -2.328125 C 4.828125 -1.941406 4.730469 -1.558594 4.546875 -1.1875 C 4.359375 -0.8125 4.113281 -0.503906 3.8125 -0.265625 C 3.519531 -0.0351563 3.222656 0.078125 2.921875 0.078125 C 2.773438 0.078125 2.636719 0.0390625 2.515625 -0.03125 C 2.390625 -0.101563 2.292969 -0.207031 2.234375 -0.34375 C 1.910156 -0.0625 1.585938 0.078125 1.265625 0.078125 C 1.046875 0.078125 0.855469 0.0078125 0.703125 -0.125 C 0.554688 -0.269531 0.484375 -0.472656 0.484375 -0.734375 C 0.484375 -0.761719 0.5 -0.882813 0.53125 -1.09375 C 0.582031 -1.445313 0.691406 -1.882813 0.859375 -2.40625 C 0.878906 -2.488281 0.890625 -2.566406 0.890625 -2.640625 C 0.890625 -2.667969 0.871094 -2.6875 0.84375 -2.6875 C 0.726563 -2.6875 0.542969 -2.535156 0.296875 -2.234375 L 0.15625 -2.390625 C 0.308594 -2.617188 0.484375 -2.800781 0.671875 -2.9375 C 0.855469 -3.070313 1.039063 -3.140625 1.21875 -3.140625 C 1.363281 -3.140625 1.4375 -3.035156 1.4375 -2.828125 C 1.4375 -2.691406 1.410156 -2.523438 1.359375 -2.328125 C 1.234375 -1.878906 1.144531 -1.523438 1.09375 -1.265625 C 1.050781 -1.054688 1.03125 -0.917969 1.03125 -0.859375 C 1.03125 -0.492188 1.191406 -0.3125 1.515625 -0.3125 C 1.660156 -0.3125 1.800781 -0.390625 1.9375 -0.546875 C 2.070313 -0.699219 2.160156 -0.882813 2.203125 -1.09375 L 2.640625 -2.90625 L 3.15625 -3.03125 L 3.203125 -2.984375 L 2.765625 -1.265625 C 2.722656 -1.128906 2.703125 -0.992188 2.703125 -0.859375 C 2.703125 -0.492188 2.859375 -0.3125 3.171875 -0.3125 C 3.480469 -0.3125 3.753906 -0.488281 3.984375 -0.84375 C 4.222656 -1.195313 4.34375 -1.648438 4.34375 -2.203125 C 4.34375 -2.398438 4.308594 -2.535156 4.25 -2.609375 C 4.195313 -2.660156 4.171875 -2.710938 4.171875 -2.765625 C 4.171875 -2.855469 4.207031 -2.941406 4.28125 -3.015625 C 4.351563 -3.097656 4.429688 -3.140625 4.515625 -3.140625 C 4.597656 -3.140625 4.671875 -3.054688 4.734375 -2.890625 C 4.792969 -2.734375 4.828125 -2.542969 4.828125 -2.328125 Z M 4.828125 -2.328125 "/>
</symbol>
<symbol overflow="visible" id="svg05svg05glyph1-18">
<path style="stroke:none;" d="M 2.09375 -0.25 L 1.609375 0 C 1.492188 0.0507813 1.394531 0.078125 1.3125 0.078125 C 0.851563 0.078125 0.625 -0.195313 0.625 -0.75 L 0.625 -2.78125 L 0.140625 -2.78125 L 0.125 -2.859375 L 0.3125 -3.0625 L 0.625 -3.0625 L 0.625 -3.5625 L 1.078125 -4.03125 L 1.1875 -4.015625 L 1.1875 -3.0625 L 1.96875 -3.0625 C 2.007813 -3.019531 2.023438 -2.964844 2.015625 -2.90625 C 2.003906 -2.851563 1.976563 -2.808594 1.9375 -2.78125 L 1.1875 -2.78125 L 1.1875 -0.984375 C 1.1875 -0.535156 1.320313 -0.3125 1.59375 -0.3125 C 1.726563 -0.3125 1.867188 -0.351563 2.015625 -0.4375 Z M 2.09375 -0.25 "/>
</symbol>
<symbol overflow="visible" id="svg05svg05glyph1-19">
<path style="stroke:none;" d="M 3.796875 -1.6875 C 3.796875 -1.195313 3.605469 -0.785156 3.234375 -0.453125 C 2.859375 -0.128906 2.410156 0.0351563 1.890625 0.046875 L 1.5 1.8125 L 1.46875 1.828125 C 1.382813 1.796875 1.316406 1.707031 1.265625 1.5625 C 1.222656 1.414063 1.226563 1.199219 1.28125 0.921875 L 1.4375 0.0625 C 1.039063 -0.0195313 0.726563 -0.191406 0.5 -0.453125 C 0.269531 -0.710938 0.15625 -1.03125 0.15625 -1.40625 C 0.15625 -1.851563 0.300781 -2.226563 0.59375 -2.53125 C 0.882813 -2.832031 1.273438 -3.0625 1.765625 -3.21875 L 1.859375 -3 C 1.503906 -2.84375 1.238281 -2.644531 1.0625 -2.40625 C 0.882813 -2.175781 0.796875 -1.878906 0.796875 -1.515625 C 0.796875 -1.222656 0.867188 -0.972656 1.015625 -0.765625 C 1.160156 -0.566406 1.332031 -0.429688 1.53125 -0.359375 L 2.40625 -4.53125 L 2.796875 -4.84375 L 2.90625 -4.765625 L 2.625 -3.59375 C 2.582031 -3.40625 2.59375 -3.300781 2.65625 -3.28125 C 3.007813 -3.125 3.285156 -2.917969 3.484375 -2.671875 C 3.691406 -2.429688 3.796875 -2.101563 3.796875 -1.6875 Z M 3.28125 -1.625 C 3.28125 -1.933594 3.191406 -2.203125 3.015625 -2.421875 C 2.847656 -2.648438 2.667969 -2.796875 2.484375 -2.859375 L 1.953125 -0.265625 C 2.367188 -0.253906 2.691406 -0.378906 2.921875 -0.640625 C 3.160156 -0.898438 3.28125 -1.226563 3.28125 -1.625 Z M 3.28125 -1.625 "/>
</symbol>
<symbol overflow="visible" id="svg05svg05glyph1-20">
<path style="stroke:none;" d="M 2.6875 0 L 0.765625 0 L 0.765625 -0.1875 C 1.074219 -0.207031 1.265625 -0.25 1.328125 -0.3125 C 1.398438 -0.371094 1.4375 -0.535156 1.4375 -0.796875 L 1.4375 -3.5 C 1.4375 -3.675781 1.414063 -3.785156 1.375 -3.828125 C 1.34375 -3.867188 1.246094 -3.894531 1.09375 -3.90625 L 0.765625 -3.90625 L 0.765625 -4.078125 C 1.160156 -4.148438 1.578125 -4.269531 2.015625 -4.4375 L 2.015625 -0.796875 C 2.015625 -0.535156 2.046875 -0.371094 2.109375 -0.3125 C 2.179688 -0.25 2.375 -0.207031 2.6875 -0.1875 Z M 2.6875 0 "/>
</symbol>
<symbol overflow="visible" id="svg05svg05glyph1-21">
<path style="stroke:none;" d="M 0.953125 -2.40625 L 1.421875 -2.625 C 1.597656 -2.707031 1.75 -2.75 1.875 -2.75 C 2.238281 -2.75 2.535156 -2.621094 2.765625 -2.375 C 3.003906 -2.132813 3.125 -1.832031 3.125 -1.46875 C 3.125 -1.03125 2.988281 -0.660156 2.71875 -0.359375 C 2.445313 -0.0664063 2.101563 0.078125 1.6875 0.078125 C 1.28125 0.078125 0.941406 -0.078125 0.671875 -0.390625 C 0.398438 -0.710938 0.265625 -1.140625 0.265625 -1.671875 C 0.265625 -1.960938 0.300781 -2.238281 0.375 -2.5 C 0.457031 -2.757813 0.554688 -2.976563 0.671875 -3.15625 C 0.792969 -3.339844 0.941406 -3.515625 1.109375 -3.671875 C 1.273438 -3.824219 1.4375 -3.945313 1.59375 -4.03125 C 1.746094 -4.121094 1.90625 -4.195313 2.0625 -4.25 C 2.351563 -4.351563 2.65625 -4.429688 2.96875 -4.484375 L 3 -4.265625 C 2.738281 -4.210938 2.488281 -4.128906 2.25 -4.015625 C 1.550781 -3.679688 1.117188 -3.144531 0.953125 -2.40625 Z M 1.59375 -2.359375 C 1.375 -2.359375 1.148438 -2.292969 0.921875 -2.171875 C 0.890625 -2.066406 0.875 -1.902344 0.875 -1.6875 C 0.875 -1.25 0.957031 -0.882813 1.125 -0.59375 C 1.300781 -0.300781 1.53125 -0.15625 1.8125 -0.15625 C 2.050781 -0.15625 2.226563 -0.257813 2.34375 -0.46875 C 2.464844 -0.683594 2.53125 -0.9375 2.53125 -1.21875 C 2.53125 -1.527344 2.445313 -1.796875 2.28125 -2.015625 C 2.113281 -2.242188 1.882813 -2.359375 1.59375 -2.359375 Z M 1.59375 -2.359375 "/>
</symbol>
<symbol overflow="visible" id="svg05svg05glyph1-22">
<path style="stroke:none;" d="M 1.703125 -4.25 C 1.703125 -4.132813 1.664063 -4.035156 1.59375 -3.953125 C 1.519531 -3.867188 1.433594 -3.828125 1.34375 -3.828125 C 1.25 -3.828125 1.167969 -3.851563 1.109375 -3.90625 C 1.046875 -3.964844 1.015625 -4.050781 1.015625 -4.15625 C 1.015625 -4.257813 1.050781 -4.351563 1.125 -4.4375 C 1.195313 -4.527344 1.289063 -4.578125 1.40625 -4.578125 C 1.496094 -4.578125 1.570313 -4.542969 1.625 -4.484375 C 1.675781 -4.421875 1.703125 -4.339844 1.703125 -4.25 Z M 1.546875 -0.640625 C 1.410156 -0.484375 1.226563 -0.320313 1 -0.15625 C 0.769531 0 0.589844 0.078125 0.46875 0.078125 C 0.414063 0.078125 0.371094 0.0585938 0.34375 0.03125 C 0.3125 0 0.296875 -0.0664063 0.296875 -0.171875 C 0.296875 -0.285156 0.320313 -0.441406 0.375 -0.640625 L 0.8125 -2.421875 C 0.832031 -2.535156 0.824219 -2.59375 0.796875 -2.59375 C 0.703125 -2.59375 0.535156 -2.492188 0.296875 -2.296875 L 0.203125 -2.46875 C 0.398438 -2.652344 0.609375 -2.8125 0.828125 -2.9375 C 1.054688 -3.070313 1.226563 -3.140625 1.34375 -3.140625 C 1.476563 -3.140625 1.496094 -2.957031 1.40625 -2.59375 L 0.90625 -0.671875 C 0.875 -0.535156 0.882813 -0.46875 0.9375 -0.46875 C 1.007813 -0.46875 1.1875 -0.578125 1.46875 -0.796875 Z M 1.546875 -0.640625 "/>
</symbol>
<symbol overflow="visible" id="svg05svg05glyph1-23">
<path style="stroke:none;" d="M 2.765625 -4.25 C 2.765625 -4.132813 2.726563 -4.035156 2.65625 -3.953125 C 2.582031 -3.867188 2.488281 -3.828125 2.375 -3.828125 C 2.28125 -3.828125 2.199219 -3.851563 2.140625 -3.90625 C 2.085938 -3.964844 2.0625 -4.050781 2.0625 -4.15625 C 2.0625 -4.257813 2.097656 -4.351563 2.171875 -4.4375 C 2.242188 -4.527344 2.335938 -4.578125 2.453125 -4.578125 C 2.542969 -4.578125 2.617188 -4.542969 2.671875 -4.484375 C 2.730469 -4.421875 2.765625 -4.339844 2.765625 -4.25 Z M 2.515625 -2.4375 L 2.125 -0.46875 C 1.945313 0.414063 1.660156 1.03125 1.265625 1.375 C 0.929688 1.675781 0.664063 1.828125 0.46875 1.828125 C 0.394531 1.828125 0.320313 1.800781 0.25 1.75 C 0.1875 1.707031 0.15625 1.652344 0.15625 1.59375 C 0.15625 1.476563 0.207031 1.371094 0.3125 1.28125 C 0.371094 1.21875 0.429688 1.203125 0.484375 1.234375 C 0.628906 1.324219 0.757813 1.375 0.875 1.375 C 1.058594 1.375 1.210938 1.152344 1.328125 0.71875 C 1.492188 0.03125 1.691406 -0.9375 1.921875 -2.1875 C 1.949219 -2.339844 1.96875 -2.441406 1.96875 -2.484375 C 1.96875 -2.523438 1.957031 -2.550781 1.9375 -2.5625 C 1.851563 -2.5625 1.664063 -2.433594 1.375 -2.1875 L 1.28125 -2.359375 C 1.496094 -2.585938 1.722656 -2.773438 1.953125 -2.921875 C 2.179688 -3.066406 2.347656 -3.140625 2.453125 -3.140625 C 2.585938 -3.140625 2.605469 -2.902344 2.515625 -2.4375 Z M 2.515625 -2.4375 "/>
</symbol>
</g>
</defs>
<g id="svg05_surface1">
<g style="fill:rgb(0%,0%,0%);fill-opacity:1;">
  <use xlink:href="#svg05glyph0-0" x="1.66" y="12.77"/>
</g>
<g style="fill:rgb(0%,0%,0%);fill-opacity:1;">
  <use xlink:href="#svg05glyph0-1" x="12.02152" y="12.77"/>
</g>
<g style="fill:rgb(0%,0%,0%);fill-opacity:1;">
  <use xlink:href="#svg05glyph0-2" x="24.435418" y="12.77"/>
</g>
<g style="fill:rgb(0%,0%,0%);fill-opacity:1;">
  <use xlink:href="#svg05glyph1-0" x="20.64" y="23.73"/>
  <use xlink:href="#svg05glyph1-1" x="24.283884" y="23.73"/>
  <use xlink:href="#svg05glyph1-2" x="27.942114" y="23.73"/>
  <use xlink:href="#svg05glyph1-3" x="31.865745" y="23.73"/>
  <use xlink:href="#svg05glyph1-4" x="35.653089" y="23.73"/>
</g>
<g style="fill:rgb(0%,0%,0%);fill-opacity:1;">
  <use xlink:href="#svg05glyph0-3" x="38.29" y="12.77"/>
</g>
<g style="fill:rgb(0%,0%,0%);fill-opacity:1;">
  <use xlink:href="#svg05glyph1-5" x="43.3" y="15.16"/>
</g>
<g style="fill:rgb(0%,0%,0%);fill-opacity:1;">
  <use xlink:href="#svg05glyph0-4" x="47.16" y="12.93"/>
</g>
<g style="fill:rgb(0%,0%,0%);fill-opacity:1;">
  <use xlink:href="#svg05glyph0-5" x="51.58" y="12.77"/>
</g>
<g style="fill:rgb(0%,0%,0%);fill-opacity:1;">
  <use xlink:href="#svg05glyph0-6" x="58.45447" y="12.77"/>
</g>
<g style="fill:rgb(0%,0%,0%);fill-opacity:1;">
  <use xlink:href="#svg05glyph0-5" x="66.5245" y="12.77"/>
</g>
<g style="fill:rgb(0%,0%,0%);fill-opacity:1;">
  <use xlink:href="#svg05glyph1-6" x="71.2" y="15.16"/>
  <use xlink:href="#svg05glyph1-7" x="74.248525" y="15.16"/>
</g>
<g style="fill:rgb(0%,0%,0%);fill-opacity:1;">
  <use xlink:href="#svg05glyph0-7" x="78.41" y="12.93"/>
</g>
<g style="fill:rgb(0%,0%,0%);fill-opacity:1;">
  <use xlink:href="#svg05glyph1-8" x="82.82" y="7.02"/>
</g>
<g style="fill:rgb(0%,0%,0%);fill-opacity:1;">
  <use xlink:href="#svg05glyph0-8" x="88.98" y="12.77"/>
</g>
<g style="fill:rgb(0%,0%,0%);fill-opacity:1;">
  <use xlink:href="#svg05glyph0-2" x="100.975452" y="12.77"/>
</g>
<g style="fill:rgb(0%,0%,0%);fill-opacity:1;">
  <use xlink:href="#svg05glyph1-9" x="97.04" y="23.73"/>
  <use xlink:href="#svg05glyph1-2" x="100.188947" y="23.73"/>
  <use xlink:href="#svg05svg05glyph1-10" x="104.112578" y="23.73"/>
  <use xlink:href="#svg05svg05glyph1-11" x="107.469542" y="23.73"/>
  <use xlink:href="#svg05glyph1-6" x="109.284311" y="23.73"/>
  <use xlink:href="#svg05glyph1-4" x="112.332836" y="23.73"/>
</g>
<g style="fill:rgb(0%,0%,0%);fill-opacity:1;">
  <use xlink:href="#svg05glyph0-9" x="114.97" y="12.77"/>
</g>
<g style="fill:rgb(0%,0%,0%);fill-opacity:1;">
  <use xlink:href="#svg05svg05glyph1-12" x="122.7" y="15.16"/>
</g>
<g style="fill:rgb(0%,0%,0%);fill-opacity:1;">
  <use xlink:href="#svg05glyph0-4" x="126.77" y="12.93"/>
</g>
<g style="fill:rgb(0%,0%,0%);fill-opacity:1;">
  <use xlink:href="#svg05svg05glyph0-10" x="131.18" y="12.77"/>
</g>
<g style="fill:rgb(0%,0%,0%);fill-opacity:1;">
  <use xlink:href="#svg05glyph0-6" x="138.35336" y="12.77"/>
</g>
<g style="fill:rgb(0%,0%,0%);fill-opacity:1;">
  <use xlink:href="#svg05svg05glyph0-10" x="146.413427" y="12.77"/>
</g>
<g style="fill:rgb(0%,0%,0%);fill-opacity:1;">
  <use xlink:href="#svg05glyph1-6" x="151.38" y="15.16"/>
  <use xlink:href="#svg05glyph1-7" x="154.428525" y="15.16"/>
</g>
<g style="fill:rgb(0%,0%,0%);fill-opacity:1;">
  <use xlink:href="#svg05glyph0-7" x="158.59" y="12.93"/>
</g>
<g style="fill:rgb(0%,0%,0%);fill-opacity:1;">
  <use xlink:href="#svg05glyph1-8" x="163.01" y="7.02"/>
</g>
<g style="fill:rgb(0%,0%,0%);fill-opacity:1;">
  <use xlink:href="#svg05glyph0-8" x="169.16" y="12.77"/>
</g>
<g style="fill:rgb(0%,0%,0%);fill-opacity:1;">
  <use xlink:href="#svg05glyph0-2" x="187.183067" y="12.77"/>
</g>
<g style="fill:rgb(0%,0%,0%);fill-opacity:1;">
  <use xlink:href="#svg05svg05glyph1-13" x="177.22" y="23.2"/>
  <use xlink:href="#svg05svg05glyph1-14" x="179.142364" y="23.2"/>
  <use xlink:href="#svg05svg05glyph1-15" x="185.017051" y="23.2"/>
  <use xlink:href="#svg05svg05glyph1-16" x="188.775703" y="23.2"/>
  <use xlink:href="#svg05glyph1-1" x="191.436886" y="23.2"/>
  <use xlink:href="#svg05svg05glyph1-15" x="195.095116" y="23.2"/>
  <use xlink:href="#svg05glyph1-6" x="198.853768" y="23.2"/>
  <use xlink:href="#svg05svg05glyph1-16" x="201.902293" y="23.2"/>
  <use xlink:href="#svg05glyph1-4" x="204.563476" y="23.2"/>
</g>
<g style="fill:rgb(0%,0%,0%);fill-opacity:1;">
  <use xlink:href="#svg05glyph0-9" x="207.2" y="12.77"/>
</g>
<g style="fill:rgb(0%,0%,0%);fill-opacity:1;">
  <use xlink:href="#svg05svg05glyph1-17" x="214.93" y="15.16"/>
</g>
<g style="fill:rgb(0%,0%,0%);fill-opacity:1;">
  <use xlink:href="#svg05svg05glyph0-11" x="220.54" y="12.77"/>
</g>
<g style="fill:rgb(0%,0%,0%);fill-opacity:1;">
  <use xlink:href="#svg05glyph1-8" x="227.63" y="7.99"/>
</g>
<g style="fill:rgb(0%,0%,0%);fill-opacity:1;">
  <use xlink:href="#svg05glyph0-8" x="58.85" y="48.8"/>
</g>
<g style="fill:rgb(0%,0%,0%);fill-opacity:1;">
  <use xlink:href="#svg05glyph0-2" x="71.30375" y="48.8"/>
</g>
<g style="fill:rgb(0%,0%,0%);fill-opacity:1;">
  <use xlink:href="#svg05svg05glyph1-18" x="64.69" y="59.24"/>
  <use xlink:href="#svg05glyph1-1" x="66.877765" y="59.24"/>
  <use xlink:href="#svg05svg05glyph1-16" x="70.535995" y="59.24"/>
  <use xlink:href="#svg05glyph1-4" x="73.197178" y="59.24"/>
  <use xlink:href="#svg05svg05glyph1-13" x="75.829669" y="59.24"/>
  <use xlink:href="#svg05glyph1-1" x="77.752033" y="59.24"/>
  <use xlink:href="#svg05glyph1-2" x="81.410263" y="59.24"/>
  <use xlink:href="#svg05glyph1-4" x="85.333894" y="59.24"/>
</g>
<g style="fill:rgb(0%,0%,0%);fill-opacity:1;">
  <use xlink:href="#svg05glyph0-9" x="87.97" y="48.8"/>
</g>
<g style="fill:rgb(0%,0%,0%);fill-opacity:1;">
  <use xlink:href="#svg05svg05glyph1-19" x="95.7" y="51.19"/>
</g>
<g style="fill:rgb(0%,0%,0%);fill-opacity:1;">
  <use xlink:href="#svg05svg05glyph0-12" x="101.91" y="48.95"/>
</g>
<g style="fill:rgb(0%,0%,0%);fill-opacity:1;">
  <use xlink:href="#svg05svg05glyph0-13" x="105.62" y="48.8"/>
</g>
<g style="fill:rgb(0%,0%,0%);fill-opacity:1;">
  <use xlink:href="#svg05glyph0-8" x="112.614026" y="48.8"/>
</g>
<g style="fill:rgb(0%,0%,0%);fill-opacity:1;">
  <use xlink:href="#svg05svg05glyph0-14" x="120.674093" y="48.8"/>
  <use xlink:href="#svg05svg05glyph0-15" x="124.888442" y="48.8"/>
  <use xlink:href="#svg05svg05glyph0-16" x="129.969572" y="48.8"/>
</g>
<g style="fill:rgb(0%,0%,0%);fill-opacity:1;">
  <use xlink:href="#svg05svg05glyph0-17" x="136.95" y="48.96"/>
</g>
<g style="fill:rgb(0%,0%,0%);fill-opacity:1;">
  <use xlink:href="#svg05svg05glyph0-18" x="140.79" y="48.8"/>
  <use xlink:href="#svg05svg05glyph0-19" x="145.791426" y="48.8"/>
</g>
<g style="fill:rgb(0%,0%,0%);fill-opacity:1;">
  <use xlink:href="#svg05glyph0-6" x="153.622344" y="48.8"/>
</g>
<g style="fill:rgb(0%,0%,0%);fill-opacity:1;">
  <use xlink:href="#svg05svg05glyph0-20" x="161.682411" y="48.8"/>
</g>
<g style="fill:rgb(0%,0%,0%);fill-opacity:1;">
  <use xlink:href="#svg05svg05glyph0-21" x="166.84" y="48.96"/>
</g>
<g style="fill:rgb(0%,0%,0%);fill-opacity:1;">
  <use xlink:href="#svg05svg05glyph0-22" x="170.68" y="48.95"/>
</g>
<g style="fill:rgb(0%,0%,0%);fill-opacity:1;">
  <use xlink:href="#svg05glyph0-8" x="26.4" y="83.43"/>
</g>
<g style="fill:rgb(0%,0%,0%);fill-opacity:1;">
  <use xlink:href="#svg05glyph0-2" x="50.948832" y="83.43"/>
</g>
<g style="fill:rgb(0%,0%,0%);fill-opacity:1;">
  <use xlink:href="#svg05glyph1-2" x="32.24" y="94.39"/>
  <use xlink:href="#svg05glyph1-1" x="36.163631" y="94.39"/>
  <use xlink:href="#svg05glyph1-2" x="39.821861" y="94.39"/>
  <use xlink:href="#svg05glyph1-0" x="43.745492" y="94.39"/>
  <use xlink:href="#svg05glyph1-1" x="47.389376" y="94.39"/>
  <use xlink:href="#svg05glyph1-2" x="51.047606" y="94.39"/>
  <use xlink:href="#svg05glyph1-3" x="54.971237" y="94.39"/>
  <use xlink:href="#svg05glyph1-6" x="58.758581" y="94.39"/>
  <use xlink:href="#svg05glyph1-3" x="61.807106" y="94.39"/>
  <use xlink:href="#svg05svg05glyph1-15" x="65.59445" y="94.39"/>
  <use xlink:href="#svg05glyph1-9" x="69.353102" y="94.39"/>
  <use xlink:href="#svg05svg05glyph1-13" x="72.502049" y="94.39"/>
  <use xlink:href="#svg05svg05glyph1-16" x="74.424413" y="94.39"/>
  <use xlink:href="#svg05glyph1-4" x="77.085596" y="94.39"/>
</g>
<g style="fill:rgb(0%,0%,0%);fill-opacity:1;">
  <use xlink:href="#svg05svg05glyph0-23" x="81.38" y="83.58"/>
</g>
<g style="fill:rgb(0%,0%,0%);fill-opacity:1;">
  <use xlink:href="#svg05svg05glyph0-24" x="87.39" y="83.43"/>
  <use xlink:href="#svg05svg05glyph0-25" x="92.17224" y="83.43"/>
</g>
<g style="fill:rgb(0%,0%,0%);fill-opacity:1;">
  <use xlink:href="#svg05svg05glyph0-26" x="97.92" y="83.58"/>
</g>
<g style="fill:rgb(0%,0%,0%);fill-opacity:1;">
  <use xlink:href="#svg05svg05glyph0-27" x="103.21" y="83.59"/>
</g>
<g style="fill:rgb(0%,0%,0%);fill-opacity:1;">
  <use xlink:href="#svg05svg05glyph0-28" x="109.98" y="76.94"/>
</g>
<path style="fill:none;stroke-width:1;stroke-linecap:butt;stroke-linejoin:miter;stroke:rgb(0%,0%,0%);stroke-opacity:1;stroke-miterlimit:10;" d="M 37.5 -8.5 L 43.5 -8.5 " transform="matrix(1,0,0,-1,72,72)"/>
<g style="fill:rgb(0%,0%,0%);fill-opacity:1;">
  <use xlink:href="#svg05svg05glyph0-29" x="110.7" y="90.47"/>
</g>
<g style="fill:rgb(0%,0%,0%);fill-opacity:1;">
  <use xlink:href="#svg05svg05glyph0-30" x="116.81" y="83.59"/>
</g>
<g style="fill:rgb(0%,0%,0%);fill-opacity:1;">
  <use xlink:href="#svg05svg05glyph1-20" x="122.39" y="74.79"/>
  <use xlink:href="#svg05glyph1-8" x="125.83304" y="74.79"/>
</g>
<g style="fill:rgb(0%,0%,0%);fill-opacity:1;">
  <use xlink:href="#svg05glyph0-6" x="131.98" y="83.43"/>
</g>
<g style="fill:rgb(0%,0%,0%);fill-opacity:1;">
  <use xlink:href="#svg05svg05glyph0-27" x="140.05" y="83.59"/>
</g>
<g style="fill:rgb(0%,0%,0%);fill-opacity:1;">
  <use xlink:href="#svg05svg05glyph0-28" x="146.82" y="76.94"/>
</g>
<path style="fill:none;stroke-width:1;stroke-linecap:butt;stroke-linejoin:miter;stroke:rgb(0%,0%,0%);stroke-opacity:1;stroke-miterlimit:10;" d="M 74.5 -8.5 L 80.5 -8.5 " transform="matrix(1,0,0,-1,72,72)"/>
<g style="fill:rgb(0%,0%,0%);fill-opacity:1;">
  <use xlink:href="#svg05svg05glyph0-29" x="147.53" y="90.47"/>
</g>
<g style="fill:rgb(0%,0%,0%);fill-opacity:1;">
  <use xlink:href="#svg05svg05glyph0-30" x="153.65" y="83.59"/>
</g>
<g style="fill:rgb(0%,0%,0%);fill-opacity:1;">
  <use xlink:href="#svg05svg05glyph1-21" x="159.22" y="74.79"/>
</g>
<g style="fill:rgb(0%,0%,0%);fill-opacity:1;">
  <use xlink:href="#svg05svg05glyph0-31" x="163.17" y="83.58"/>
</g>
<g style="fill:rgb(0%,0%,0%);fill-opacity:1;">
  <use xlink:href="#svg05glyph0-8" x="170.67" y="83.43"/>
</g>
<g style="fill:rgb(0%,0%,0%);fill-opacity:1;">
  <use xlink:href="#svg05svg05glyph0-32" x="179.93" y="74.88"/>
</g>
<g style="fill:rgb(0%,0%,0%);fill-opacity:1;">
  <use xlink:href="#svg05svg05glyph1-22" x="184.82" y="77.28"/>
</g>
<g style="fill:rgb(0%,0%,0%);fill-opacity:1;">
  <use xlink:href="#svg05svg05glyph0-32" x="187.28" y="74.88"/>
</g>
<g style="fill:rgb(0%,0%,0%);fill-opacity:1;">
  <use xlink:href="#svg05svg05glyph1-23" x="192.17" y="77.28"/>
</g>
<path style="fill:none;stroke-width:1;stroke-linecap:butt;stroke-linejoin:miter;stroke:rgb(0%,0%,0%);stroke-opacity:1;stroke-miterlimit:10;" d="M 107.5 -8.5 L 123.5 -8.5 " transform="matrix(1,0,0,-1,72,72)"/>
<g style="fill:rgb(0%,0%,0%);fill-opacity:1;">
  <use xlink:href="#svg05svg05glyph0-29" x="185.71" y="90.47"/>
</g>
<g style="fill:rgb(0%,0%,0%);fill-opacity:1;">
  <use xlink:href="#svg05svg05glyph0-33" x="196.89" y="83.58"/>
</g>
<g style="fill:rgb(0%,0%,0%);fill-opacity:1;">
  <use xlink:href="#svg05svg05glyph0-34" x="204.56" y="83.43"/>
</g>
</g>
</svg>