<?xml version="1.0" encoding="UTF-8"?>
<svg xmlns="http://www.w3.org/2000/svg" xmlns:xlink="http://www.w3.org/1999/xlink" width="106.85pt" height="13.15pt" viewBox="0 0 106.85 13.15" version="1.1">
<defs>
<g>
<symbol overflow="visible" id="svg77glyph0-0">
<path style="stroke:none;" d="M 6.734375 0 L 4.28125 0 L 4.28125 -0.28125 C 4.589844 -0.320313 4.785156 -0.375 4.859375 -0.4375 C 4.929688 -0.507813 4.933594 -0.640625 4.875 -0.828125 C 4.820313 -0.960938 4.632813 -1.476563 4.3125 -2.375 L 2.1875 -2.375 C 1.976563 -1.789063 1.855469 -1.355469 1.828125 -1.078125 C 1.722656 -0.765625 1.707031 -0.558594 1.78125 -0.46875 C 1.851563 -0.375 2.078125 -0.308594 2.453125 -0.28125 L 2.453125 0 L 0.203125 0 L 0.203125 -0.28125 C 0.535156 -0.320313 0.757813 -0.398438 0.875 -0.515625 C 0.996094 -0.628906 1.144531 -0.894531 1.3125 -1.3125 L 3.453125 -6.5625 L 3.703125 -6.65625 L 5.625 -1.296875 C 5.777344 -0.867188 5.921875 -0.597656 6.046875 -0.484375 C 6.167969 -0.378906 6.398438 -0.308594 6.734375 -0.28125 Z M 4.1875 -2.796875 L 3.375 -5.34375 L 3.34375 -5.34375 C 2.851563 -4.03125 2.519531 -3.179688 2.34375 -2.796875 Z M 4.1875 -2.796875 "/>
</symbol>
<symbol overflow="visible" id="svg77glyph0-1">
<path style="stroke:none;" d="M 4.625 -4.375 L 4.6875 -4.296875 C 4.539063 -4.035156 4.386719 -3.863281 4.234375 -3.78125 L 3.65625 -3.8125 C 3.851563 -3.570313 3.953125 -3.277344 3.953125 -2.9375 C 3.953125 -2.425781 3.773438 -2.027344 3.421875 -1.75 C 3.078125 -1.46875 2.667969 -1.328125 2.203125 -1.328125 C 2.046875 -1.328125 1.878906 -1.34375 1.703125 -1.375 C 1.503906 -1.238281 1.40625 -1.097656 1.40625 -0.953125 C 1.40625 -0.847656 1.457031 -0.757813 1.5625 -0.6875 C 1.664063 -0.613281 1.820313 -0.578125 2.03125 -0.578125 C 2.152344 -0.578125 2.332031 -0.578125 2.5625 -0.578125 C 2.800781 -0.585938 2.976563 -0.59375 3.09375 -0.59375 C 3.332031 -0.59375 3.550781 -0.566406 3.75 -0.515625 C 3.945313 -0.460938 4.125 -0.339844 4.28125 -0.15625 C 4.433594 0.0273438 4.515625 0.28125 4.515625 0.59375 C 4.515625 1.101563 4.261719 1.554688 3.765625 1.953125 C 3.265625 2.355469 2.683594 2.5625 2.03125 2.5625 C 1.5 2.5625 1.074219 2.433594 0.765625 2.1875 C 0.453125 1.9375 0.296875 1.652344 0.296875 1.34375 C 0.296875 1.132813 0.375 0.949219 0.53125 0.796875 C 0.664063 0.648438 0.941406 0.414063 1.359375 0.09375 C 1.035156 -0.0078125 0.789063 -0.191406 0.625 -0.453125 C 0.53125 -0.585938 0.492188 -0.726563 0.515625 -0.875 C 0.878906 -1.019531 1.171875 -1.222656 1.390625 -1.484375 C 1.140625 -1.597656 0.929688 -1.769531 0.765625 -2 C 0.597656 -2.226563 0.515625 -2.503906 0.515625 -2.828125 C 0.515625 -3.347656 0.703125 -3.753906 1.078125 -4.046875 C 1.449219 -4.335938 1.859375 -4.484375 2.296875 -4.484375 L 2.3125 -4.484375 C 2.644531 -4.484375 2.960938 -4.394531 3.265625 -4.21875 C 3.742188 -4.246094 4.195313 -4.300781 4.625 -4.375 Z M 2.1875 -4.1875 C 1.957031 -4.1875 1.761719 -4.074219 1.609375 -3.859375 C 1.453125 -3.648438 1.375 -3.355469 1.375 -2.984375 C 1.375 -2.597656 1.460938 -2.277344 1.640625 -2.03125 C 1.816406 -1.78125 2.039063 -1.65625 2.3125 -1.65625 C 2.539063 -1.65625 2.734375 -1.757813 2.890625 -1.96875 C 3.054688 -2.175781 3.140625 -2.46875 3.140625 -2.84375 C 3.140625 -3.238281 3.050781 -3.5625 2.875 -3.8125 C 2.707031 -4.058594 2.476563 -4.1875 2.1875 -4.1875 Z M 2.40625 0.109375 C 2 0.109375 1.710938 0.175781 1.546875 0.3125 C 1.234375 0.570313 1.078125 0.832031 1.078125 1.09375 C 1.078125 1.371094 1.203125 1.601563 1.453125 1.78125 C 1.710938 1.964844 2.03125 2.0625 2.40625 2.0625 C 2.863281 2.0625 3.21875 1.957031 3.46875 1.75 C 3.714844 1.539063 3.84375 1.273438 3.84375 0.953125 C 3.84375 0.609375 3.691406 0.367188 3.390625 0.234375 C 3.171875 0.148438 2.839844 0.109375 2.40625 0.109375 Z M 2.40625 0.109375 "/>
</symbol>
<symbol overflow="visible" id="svg77glyph0-2">
<path style="stroke:none;" d="M 5.34375 -2.296875 L 3.234375 -2.296875 L 3.234375 0.03125 L 2.65625 0.03125 L 2.65625 -2.296875 L 0.515625 -2.296875 L 0.515625 -2.796875 L 2.65625 -2.796875 L 2.65625 -4.90625 L 3.234375 -4.90625 L 3.234375 -2.796875 L 5.34375 -2.796875 Z M 5.34375 -2.296875 "/>
</symbol>
<symbol overflow="visible" id="svg77glyph0-3">
<path style="stroke:none;" d="M 6.140625 -1.75 L 6.4375 -1.65625 C 6.207031 -0.925781 6.011719 -0.410156 5.859375 -0.109375 C 5.054688 0.0664063 4.441406 0.15625 4.015625 0.15625 C 3.421875 0.15625 2.882813 0.0546875 2.40625 -0.140625 C 1.9375 -0.335938 1.558594 -0.59375 1.28125 -0.90625 C 1.007813 -1.226563 0.800781 -1.582031 0.65625 -1.96875 C 0.507813 -2.351563 0.4375 -2.75 0.4375 -3.15625 C 0.4375 -4.207031 0.796875 -5.050781 1.515625 -5.6875 C 2.230469 -6.332031 3.160156 -6.65625 4.296875 -6.65625 C 4.535156 -6.65625 4.769531 -6.632813 5 -6.59375 C 5.238281 -6.5625 5.46875 -6.511719 5.6875 -6.453125 C 5.914063 -6.398438 6.039063 -6.375 6.0625 -6.375 C 6.152344 -5.695313 6.222656 -5.195313 6.265625 -4.875 L 5.96875 -4.796875 C 5.832031 -5.324219 5.605469 -5.707031 5.296875 -5.9375 C 4.992188 -6.175781 4.566406 -6.296875 4.015625 -6.296875 C 3.222656 -6.296875 2.597656 -6.003906 2.140625 -5.421875 C 1.679688 -4.847656 1.453125 -4.160156 1.453125 -3.359375 C 1.453125 -2.421875 1.695313 -1.660156 2.1875 -1.078125 C 2.683594 -0.492188 3.316406 -0.203125 4.078125 -0.203125 C 4.566406 -0.203125 4.960938 -0.328125 5.265625 -0.578125 C 5.574219 -0.824219 5.867188 -1.21875 6.140625 -1.75 Z M 6.140625 -1.75 "/>
</symbol>
<symbol overflow="visible" id="svg77glyph0-4">
<path style="stroke:none;" d="M 2.375 0 L 0.15625 0 L 0.15625 -0.265625 C 0.464844 -0.292969 0.664063 -0.347656 0.75 -0.421875 C 0.832031 -0.503906 0.875 -0.710938 0.875 -1.046875 L 0.875 -5.765625 C 0.875 -6.097656 0.835938 -6.300781 0.765625 -6.375 C 0.691406 -6.445313 0.496094 -6.5 0.1875 -6.53125 L 0.1875 -6.765625 C 0.664063 -6.816406 1.15625 -6.9375 1.65625 -7.125 L 1.65625 -1.046875 C 1.65625 -0.710938 1.691406 -0.503906 1.765625 -0.421875 C 1.847656 -0.347656 2.050781 -0.292969 2.375 -0.265625 Z M 2.375 0 "/>
</symbol>
<symbol overflow="visible" id="svg77glyph0-5">
<path style="stroke:none;" d="M 15.375 -2.546875 C 14.894531 -2.140625 14.273438 -1.519531 13.515625 -0.6875 L 13.296875 -0.828125 L 14.3125 -2.296875 L 0.6875 -2.296875 L 0.6875 -2.796875 L 14.3125 -2.796875 L 13.296875 -4.265625 L 13.515625 -4.421875 C 14.273438 -3.585938 14.894531 -2.960938 15.375 -2.546875 Z M 15.375 -2.546875 "/>
</symbol>
<symbol overflow="visible" id="svg77glyph0-6">
<path style="stroke:none;" d="M 0.953125 -1.296875 C 1.160156 -1.296875 1.363281 -1.195313 1.5625 -1 C 1.757813 -0.800781 1.859375 -0.539063 1.859375 -0.21875 C 1.859375 0.132813 1.726563 0.425781 1.46875 0.65625 C 1.21875 0.882813 0.910156 1.054688 0.546875 1.171875 L 0.4375 0.875 C 0.945313 0.664063 1.203125 0.382813 1.203125 0.03125 C 1.203125 -0.144531 1.144531 -0.285156 1.03125 -0.390625 C 0.914063 -0.503906 0.769531 -0.585938 0.59375 -0.640625 C 0.5625 -0.640625 0.527344 -0.660156 0.5 -0.703125 C 0.46875 -0.742188 0.453125 -0.800781 0.453125 -0.875 C 0.453125 -0.996094 0.503906 -1.097656 0.609375 -1.171875 C 0.710938 -1.253906 0.828125 -1.296875 0.953125 -1.296875 Z M 0.953125 -1.296875 "/>
</symbol>
<symbol overflow="visible" id="svg77glyph1-0">
<path style="stroke:none;" d="M 3.75 -1.609375 L 2.265625 -1.609375 L 2.265625 0.015625 L 1.859375 0.015625 L 1.859375 -1.609375 L 0.359375 -1.609375 L 0.359375 -1.953125 L 1.859375 -1.953125 L 1.859375 -3.4375 L 2.265625 -3.4375 L 2.265625 -1.953125 L 3.75 -1.953125 Z M 3.75 -1.609375 "/>
</symbol>
<symbol overflow="visible" id="svg77glyph1-1">
<path style="stroke:none;" d="M 2.09375 1.03125 L 1.96875 1.1875 C 1.476563 0.851563 1.105469 0.417969 0.859375 -0.109375 C 0.609375 -0.636719 0.484375 -1.234375 0.484375 -1.890625 C 0.484375 -2.542969 0.609375 -3.132813 0.859375 -3.65625 C 1.105469 -4.183594 1.476563 -4.625 1.96875 -4.96875 L 2.09375 -4.796875 C 1.75 -4.515625 1.476563 -4.113281 1.28125 -3.59375 C 1.09375 -3.070313 1 -2.503906 1 -1.890625 C 1 -1.285156 1.09375 -0.714844 1.28125 -0.1875 C 1.476563 0.332031 1.75 0.738281 2.09375 1.03125 Z M 2.09375 1.03125 "/>
</symbol>
<symbol overflow="visible" id="svg77glyph1-2">
<path style="stroke:none;" d="M 3.03125 -0.265625 L 2.4375 0.078125 C 2.3125 0.078125 2.199219 0.0273438 2.109375 -0.0625 C 2.035156 -0.132813 1.976563 -0.234375 1.9375 -0.359375 C 1.914063 -0.347656 1.855469 -0.308594 1.765625 -0.25 C 1.679688 -0.1875 1.617188 -0.136719 1.578125 -0.109375 C 1.546875 -0.0859375 1.492188 -0.0546875 1.421875 -0.015625 C 1.347656 0.0117188 1.285156 0.0351563 1.234375 0.046875 C 1.191406 0.0664063 1.148438 0.078125 1.109375 0.078125 C 0.867188 0.078125 0.664063 -0.00390625 0.5 -0.171875 C 0.34375 -0.335938 0.265625 -0.535156 0.265625 -0.765625 C 0.265625 -1.097656 0.457031 -1.332031 0.84375 -1.46875 C 1.433594 -1.664063 1.796875 -1.816406 1.921875 -1.921875 L 1.921875 -2.03125 C 1.921875 -2.289063 1.867188 -2.488281 1.765625 -2.625 C 1.660156 -2.757813 1.511719 -2.828125 1.328125 -2.828125 C 1.203125 -2.828125 1.097656 -2.777344 1.015625 -2.6875 C 0.929688 -2.601563 0.863281 -2.449219 0.8125 -2.234375 C 0.78125 -2.128906 0.710938 -2.078125 0.609375 -2.078125 C 0.535156 -2.078125 0.464844 -2.101563 0.40625 -2.15625 C 0.34375 -2.214844 0.3125 -2.285156 0.3125 -2.359375 C 0.3125 -2.441406 0.382813 -2.539063 0.53125 -2.65625 C 0.644531 -2.738281 0.800781 -2.832031 1 -2.9375 C 1.207031 -3.039063 1.398438 -3.109375 1.578125 -3.140625 C 1.804688 -3.140625 2 -3.074219 2.15625 -2.953125 C 2.363281 -2.773438 2.46875 -2.488281 2.46875 -2.09375 L 2.46875 -0.796875 C 2.46875 -0.515625 2.546875 -0.375 2.703125 -0.375 C 2.785156 -0.375 2.875 -0.398438 2.96875 -0.453125 Z M 1.921875 -0.59375 L 1.921875 -1.6875 C 1.867188 -1.65625 1.753906 -1.597656 1.578125 -1.515625 C 1.410156 -1.441406 1.316406 -1.398438 1.296875 -1.390625 C 1.148438 -1.316406 1.039063 -1.238281 0.96875 -1.15625 C 0.90625 -1.082031 0.875 -0.988281 0.875 -0.875 C 0.875 -0.707031 0.925781 -0.574219 1.03125 -0.484375 C 1.132813 -0.390625 1.242188 -0.34375 1.359375 -0.34375 C 1.449219 -0.34375 1.550781 -0.363281 1.65625 -0.40625 C 1.757813 -0.457031 1.847656 -0.519531 1.921875 -0.59375 Z M 1.921875 -0.59375 "/>
</symbol>
<symbol overflow="visible" id="svg77glyph1-3">
<path style="stroke:none;" d="M 3.609375 1.6875 L 1.921875 1.6875 L 1.921875 1.484375 C 2.191406 1.472656 2.359375 1.433594 2.421875 1.375 C 2.480469 1.3125 2.515625 1.152344 2.515625 0.90625 L 2.515625 -0.203125 L 1.765625 0.078125 C 1.296875 0.078125 0.925781 -0.0664063 0.65625 -0.359375 C 0.394531 -0.660156 0.265625 -1 0.265625 -1.375 C 0.265625 -1.871094 0.453125 -2.296875 0.828125 -2.640625 C 1.210938 -2.980469 1.648438 -3.148438 2.140625 -3.140625 C 2.367188 -3.117188 2.53125 -3.085938 2.625 -3.046875 C 2.707031 -3.023438 2.769531 -3.015625 2.8125 -3.015625 C 2.871094 -3.015625 2.957031 -3.039063 3.0625 -3.09375 L 3.09375 -3.078125 C 3.070313 -2.773438 3.0625 -2.523438 3.0625 -2.328125 L 3.0625 0.921875 C 3.0625 1.160156 3.085938 1.304688 3.140625 1.359375 C 3.199219 1.417969 3.359375 1.460938 3.609375 1.484375 Z M 2.515625 -0.421875 L 2.515625 -2.5625 C 2.429688 -2.644531 2.324219 -2.710938 2.203125 -2.765625 C 2.078125 -2.824219 1.949219 -2.859375 1.828125 -2.859375 C 1.578125 -2.859375 1.355469 -2.746094 1.171875 -2.53125 C 0.984375 -2.3125 0.890625 -2.003906 0.890625 -1.609375 C 0.890625 -1.210938 1 -0.894531 1.21875 -0.65625 C 1.445313 -0.425781 1.707031 -0.3125 2 -0.3125 C 2.183594 -0.3125 2.359375 -0.347656 2.515625 -0.421875 Z M 2.515625 -0.421875 "/>
</symbol>
<symbol overflow="visible" id="svg77glyph1-4">
<path style="stroke:none;" d="M 0.453125 -4.96875 C 1.429688 -4.300781 1.921875 -3.273438 1.921875 -1.890625 C 1.921875 -0.503906 1.429688 0.519531 0.453125 1.1875 L 0.3125 1.03125 C 0.664063 0.738281 0.9375 0.332031 1.125 -0.1875 C 1.320313 -0.707031 1.421875 -1.273438 1.421875 -1.890625 C 1.421875 -2.503906 1.320313 -3.070313 1.125 -3.59375 C 0.925781 -4.113281 0.652344 -4.515625 0.3125 -4.796875 Z M 0.453125 -4.96875 "/>
</symbol>
<symbol overflow="visible" id="svg77glyph1-5">
<path style="stroke:none;" d="M 3.75 -1.609375 L 0.359375 -1.609375 L 0.359375 -1.953125 L 3.75 -1.953125 Z M 3.75 -1.609375 "/>
</symbol>
<symbol overflow="visible" id="svg77glyph1-6">
<path style="stroke:none;" d="M 2.234375 -2.28125 L 2.0625 -2.21875 C 1.90625 -2.683594 1.664063 -2.921875 1.34375 -2.921875 C 1.207031 -2.921875 1.089844 -2.871094 1 -2.78125 C 0.914063 -2.6875 0.875 -2.566406 0.875 -2.421875 C 0.875 -2.285156 0.925781 -2.167969 1.03125 -2.078125 C 1.132813 -1.992188 1.28125 -1.910156 1.46875 -1.828125 C 1.757813 -1.710938 1.976563 -1.582031 2.125 -1.4375 C 2.277344 -1.289063 2.359375 -1.101563 2.359375 -0.875 C 2.359375 -0.582031 2.238281 -0.347656 2 -0.171875 C 1.769531 -0.00390625 1.503906 0.078125 1.203125 0.078125 C 1.035156 0.078125 0.871094 0.0507813 0.71875 0 C 0.570313 -0.0390625 0.464844 -0.09375 0.40625 -0.15625 C 0.382813 -0.207031 0.355469 -0.328125 0.328125 -0.515625 C 0.296875 -0.699219 0.28125 -0.859375 0.28125 -0.984375 L 0.46875 -1.015625 C 0.539063 -0.765625 0.648438 -0.554688 0.796875 -0.390625 C 0.949219 -0.222656 1.128906 -0.140625 1.328125 -0.140625 C 1.460938 -0.140625 1.578125 -0.1875 1.671875 -0.28125 C 1.773438 -0.371094 1.828125 -0.492188 1.828125 -0.640625 C 1.828125 -0.785156 1.777344 -0.90625 1.6875 -1 C 1.59375 -1.089844 1.457031 -1.1875 1.28125 -1.28125 C 1.144531 -1.332031 1.035156 -1.378906 0.953125 -1.421875 C 0.867188 -1.472656 0.773438 -1.535156 0.671875 -1.609375 C 0.578125 -1.691406 0.507813 -1.785156 0.46875 -1.890625 C 0.425781 -1.992188 0.40625 -2.109375 0.40625 -2.234375 C 0.40625 -2.480469 0.503906 -2.695313 0.703125 -2.875 C 0.898438 -3.050781 1.15625 -3.140625 1.46875 -3.140625 C 1.683594 -3.140625 1.890625 -3.097656 2.078125 -3.015625 C 2.105469 -2.941406 2.140625 -2.820313 2.171875 -2.65625 C 2.199219 -2.5 2.222656 -2.371094 2.234375 -2.28125 Z M 2.234375 -2.28125 "/>
</symbol>
</g>
</defs>
<g id="svg77_surface1">
<g style="fill:rgb(0%,0%,0%);fill-opacity:1;">
  <use xlink:href="#svg77glyph0-0" x="1.66" y="8.37"/>
  <use xlink:href="#svg77glyph0-1" x="8.544433" y="8.37"/>
</g>
<g style="fill:rgb(0%,0%,0%);fill-opacity:1;">
  <use xlink:href="#svg77glyph1-0" x="13.21" y="3.59"/>
</g>
<g style="fill:rgb(0%,0%,0%);fill-opacity:1;">
  <use xlink:href="#svg77glyph1-1" x="13.21" y="11.43"/>
  <use xlink:href="#svg77glyph1-2" x="15.691858" y="11.43"/>
  <use xlink:href="#svg77glyph1-3" x="18.840805" y="11.43"/>
  <use xlink:href="#svg77glyph1-4" x="22.506208" y="11.43"/>
</g>
<g style="fill:rgb(0%,0%,0%);fill-opacity:1;">
  <use xlink:href="#svg77glyph0-2" x="27.7" y="8.37"/>
</g>
<g style="fill:rgb(0%,0%,0%);fill-opacity:1;">
  <use xlink:href="#svg77glyph0-3" x="35.750104" y="8.37"/>
  <use xlink:href="#svg77glyph0-4" x="42.375499" y="8.37"/>
</g>
<g style="fill:rgb(0%,0%,0%);fill-opacity:1;">
  <use xlink:href="#svg77glyph1-5" x="44.9" y="3.59"/>
</g>
<g style="fill:rgb(0%,0%,0%);fill-opacity:1;">
  <use xlink:href="#svg77glyph1-1" x="44.91" y="10.76"/>
  <use xlink:href="#svg77glyph1-2" x="47.391858" y="10.76"/>
  <use xlink:href="#svg77glyph1-3" x="50.540805" y="10.76"/>
  <use xlink:href="#svg77glyph1-4" x="54.206208" y="10.76"/>
</g>
<g style="fill:rgb(0%,0%,0%);fill-opacity:1;">
  <use xlink:href="#svg77glyph0-5" x="57.18" y="8.37"/>
</g>
<g style="fill:rgb(0%,0%,0%);fill-opacity:1;">
  <use xlink:href="#svg77glyph0-0" x="75.780921" y="8.37"/>
  <use xlink:href="#svg77glyph0-1" x="82.665354" y="8.37"/>
  <use xlink:href="#svg77glyph0-3" x="87.328038" y="8.37"/>
  <use xlink:href="#svg77glyph0-4" x="93.953433" y="8.37"/>
</g>
<g style="fill:rgb(0%,0%,0%);fill-opacity:1;">
  <use xlink:href="#svg77glyph1-1" x="96.48" y="11.43"/>
  <use xlink:href="#svg77glyph1-6" x="98.961858" y="11.43"/>
  <use xlink:href="#svg77glyph1-4" x="101.594349" y="11.43"/>
</g>
<g style="fill:rgb(0%,0%,0%);fill-opacity:1;">
  <use xlink:href="#svg77glyph0-6" x="104.58" y="8.37"/>
</g>
</g>
</svg>