<?xml version="1.0" encoding="UTF-8"?>
<svg xmlns="http://www.w3.org/2000/svg" xmlns:xlink="http://www.w3.org/1999/xlink" width="158.82pt" height="11.96pt" viewBox="0 0 158.82 11.96" version="1.1">
<defs>
<g>
<symbol overflow="visible" id="svg46glyph0-0">
<path style="stroke:none;" d="M 7.296875 -6.5 L 7.296875 -6.21875 C 6.878906 -6.1875 6.621094 -6.117188 6.53125 -6.015625 C 6.4375 -5.921875 6.390625 -5.667969 6.390625 -5.265625 L 6.390625 -1.234375 C 6.390625 -0.816406 6.429688 -0.558594 6.515625 -0.46875 C 6.605469 -0.375 6.863281 -0.308594 7.28125 -0.28125 L 7.28125 0 L 4.59375 0 L 4.59375 -0.28125 C 5.027344 -0.308594 5.296875 -0.375 5.390625 -0.46875 C 5.492188 -0.558594 5.546875 -0.816406 5.546875 -1.234375 L 5.546875 -3.21875 L 2.125 -3.21875 L 2.125 -1.234375 C 2.125 -0.816406 2.171875 -0.558594 2.265625 -0.46875 C 2.355469 -0.375 2.613281 -0.308594 3.03125 -0.28125 L 3.03125 0 L 0.40625 0 L 0.40625 -0.28125 C 0.808594 -0.308594 1.054688 -0.375 1.140625 -0.46875 C 1.230469 -0.558594 1.28125 -0.816406 1.28125 -1.234375 L 1.28125 -5.265625 C 1.28125 -5.679688 1.230469 -5.9375 1.140625 -6.03125 C 1.046875 -6.121094 0.789063 -6.1875 0.375 -6.21875 L 0.375 -6.5 L 2.96875 -6.5 L 2.96875 -6.21875 C 2.582031 -6.1875 2.339844 -6.121094 2.25 -6.03125 C 2.164063 -5.9375 2.125 -5.679688 2.125 -5.265625 L 2.125 -3.65625 L 5.546875 -3.65625 L 5.546875 -5.265625 C 5.546875 -5.667969 5.496094 -5.921875 5.40625 -6.015625 C 5.3125 -6.117188 5.070313 -6.1875 4.6875 -6.21875 L 4.6875 -6.5 Z M 7.296875 -6.5 "/>
</symbol>
<symbol overflow="visible" id="svg46glyph0-1">
<path style="stroke:none;" d="M 6.140625 -1.75 L 6.4375 -1.65625 C 6.207031 -0.925781 6.011719 -0.410156 5.859375 -0.109375 C 5.054688 0.0664063 4.441406 0.15625 4.015625 0.15625 C 3.421875 0.15625 2.882813 0.0546875 2.40625 -0.140625 C 1.9375 -0.335938 1.558594 -0.59375 1.28125 -0.90625 C 1.007813 -1.226563 0.800781 -1.582031 0.65625 -1.96875 C 0.507813 -2.351563 0.4375 -2.75 0.4375 -3.15625 C 0.4375 -4.207031 0.796875 -5.050781 1.515625 -5.6875 C 2.230469 -6.332031 3.160156 -6.65625 4.296875 -6.65625 C 4.535156 -6.65625 4.769531 -6.632813 5 -6.59375 C 5.238281 -6.5625 5.46875 -6.511719 5.6875 -6.453125 C 5.914063 -6.398438 6.039063 -6.375 6.0625 -6.375 C 6.152344 -5.695313 6.222656 -5.195313 6.265625 -4.875 L 5.96875 -4.796875 C 5.832031 -5.324219 5.605469 -5.707031 5.296875 -5.9375 C 4.992188 -6.175781 4.566406 -6.296875 4.015625 -6.296875 C 3.222656 -6.296875 2.597656 -6.003906 2.140625 -5.421875 C 1.679688 -4.847656 1.453125 -4.160156 1.453125 -3.359375 C 1.453125 -2.421875 1.695313 -1.660156 2.1875 -1.078125 C 2.683594 -0.492188 3.316406 -0.203125 4.078125 -0.203125 C 4.566406 -0.203125 4.960938 -0.328125 5.265625 -0.578125 C 5.574219 -0.824219 5.867188 -1.21875 6.140625 -1.75 Z M 6.140625 -1.75 "/>
</symbol>
<symbol overflow="visible" id="svg46glyph0-2">
<path style="stroke:none;" d="M 3.8125 -6.65625 C 4.683594 -6.65625 5.441406 -6.339844 6.078125 -5.71875 C 6.710938 -5.101563 7.03125 -4.304688 7.03125 -3.328125 C 7.03125 -2.273438 6.707031 -1.429688 6.0625 -0.796875 C 5.425781 -0.160156 4.632813 0.15625 3.6875 0.15625 C 2.769531 0.15625 1.996094 -0.160156 1.375 -0.796875 C 0.75 -1.429688 0.4375 -2.226563 0.4375 -3.1875 C 0.4375 -4.121094 0.742188 -4.9375 1.359375 -5.625 C 1.980469 -6.308594 2.800781 -6.65625 3.8125 -6.65625 Z M 3.59375 -6.296875 C 3 -6.296875 2.492188 -6.042969 2.078125 -5.546875 C 1.660156 -5.046875 1.453125 -4.347656 1.453125 -3.453125 C 1.453125 -2.515625 1.679688 -1.738281 2.140625 -1.125 C 2.605469 -0.507813 3.195313 -0.203125 3.90625 -0.203125 C 4.496094 -0.203125 5 -0.445313 5.40625 -0.9375 C 5.808594 -1.433594 6.015625 -2.144531 6.015625 -3.0625 C 6.015625 -4.070313 5.777344 -4.863281 5.3125 -5.4375 C 4.851563 -6.007813 4.277344 -6.296875 3.59375 -6.296875 Z M 3.59375 -6.296875 "/>
</symbol>
<symbol overflow="visible" id="svg46glyph0-3">
<path style="stroke:none;" d="M 5.34375 -2.296875 L 3.234375 -2.296875 L 3.234375 0.03125 L 2.65625 0.03125 L 2.65625 -2.296875 L 0.515625 -2.296875 L 0.515625 -2.796875 L 2.65625 -2.796875 L 2.65625 -4.90625 L 3.234375 -4.90625 L 3.234375 -2.796875 L 5.34375 -2.796875 Z M 5.34375 -2.296875 "/>
</symbol>
<symbol overflow="visible" id="svg46glyph0-4">
<path style="stroke:none;" d="M 4.328125 -0.390625 L 3.484375 0.125 C 3.296875 0.125 3.136719 0.0546875 3.015625 -0.078125 C 2.898438 -0.179688 2.816406 -0.328125 2.765625 -0.515625 C 2.734375 -0.492188 2.652344 -0.433594 2.53125 -0.34375 C 2.40625 -0.257813 2.316406 -0.199219 2.265625 -0.171875 C 2.210938 -0.140625 2.132813 -0.0898438 2.03125 -0.03125 C 1.925781 0.0195313 1.839844 0.0546875 1.78125 0.078125 C 1.71875 0.105469 1.652344 0.125 1.59375 0.125 C 1.238281 0.125 0.945313 0.00390625 0.71875 -0.234375 C 0.5 -0.480469 0.390625 -0.769531 0.390625 -1.09375 C 0.390625 -1.570313 0.660156 -1.90625 1.203125 -2.09375 C 2.054688 -2.371094 2.570313 -2.585938 2.75 -2.734375 L 2.75 -2.90625 C 2.75 -3.269531 2.667969 -3.550781 2.515625 -3.75 C 2.367188 -3.945313 2.164063 -4.046875 1.90625 -4.046875 C 1.71875 -4.046875 1.566406 -3.976563 1.453125 -3.84375 C 1.335938 -3.71875 1.238281 -3.496094 1.15625 -3.1875 C 1.113281 -3.03125 1.019531 -2.953125 0.875 -2.953125 C 0.769531 -2.953125 0.667969 -2.992188 0.578125 -3.078125 C 0.484375 -3.167969 0.4375 -3.273438 0.4375 -3.390625 C 0.4375 -3.503906 0.539063 -3.640625 0.75 -3.796875 C 0.914063 -3.917969 1.144531 -4.050781 1.4375 -4.1875 C 1.726563 -4.332031 2 -4.429688 2.25 -4.484375 C 2.570313 -4.484375 2.84375 -4.394531 3.0625 -4.21875 C 3.363281 -3.957031 3.515625 -3.542969 3.515625 -2.984375 L 3.515625 -1.140625 C 3.515625 -0.742188 3.632813 -0.546875 3.875 -0.546875 C 3.988281 -0.546875 4.109375 -0.582031 4.234375 -0.65625 Z M 2.75 -0.84375 L 2.75 -2.40625 C 2.664063 -2.363281 2.496094 -2.285156 2.25 -2.171875 C 2.007813 -2.054688 1.871094 -1.992188 1.84375 -1.984375 C 1.644531 -1.890625 1.492188 -1.785156 1.390625 -1.671875 C 1.285156 -1.554688 1.234375 -1.410156 1.234375 -1.234375 C 1.234375 -1.003906 1.304688 -0.820313 1.453125 -0.6875 C 1.605469 -0.550781 1.773438 -0.484375 1.953125 -0.484375 C 2.074219 -0.484375 2.210938 -0.515625 2.359375 -0.578125 C 2.511719 -0.648438 2.644531 -0.738281 2.75 -0.84375 Z M 2.75 -0.84375 "/>
</symbol>
<symbol overflow="visible" id="svg46glyph0-5">
<path style="stroke:none;" d="M 3 1.46875 L 2.8125 1.703125 C 2.113281 1.222656 1.585938 0.601563 1.234375 -0.15625 C 0.878906 -0.914063 0.703125 -1.765625 0.703125 -2.703125 C 0.703125 -3.628906 0.878906 -4.472656 1.234375 -5.234375 C 1.585938 -5.992188 2.113281 -6.613281 2.8125 -7.09375 L 3 -6.859375 C 2.507813 -6.441406 2.121094 -5.863281 1.84375 -5.125 C 1.570313 -4.382813 1.4375 -3.574219 1.4375 -2.703125 C 1.4375 -1.835938 1.570313 -1.027344 1.84375 -0.28125 C 2.121094 0.464844 2.507813 1.050781 3 1.46875 Z M 3 1.46875 "/>
</symbol>
<symbol overflow="visible" id="svg46glyph0-6">
<path style="stroke:none;" d="M 0.640625 -7.09375 C 2.042969 -6.132813 2.75 -4.664063 2.75 -2.6875 C 2.75 -0.71875 2.042969 0.742188 0.640625 1.703125 L 0.453125 1.46875 C 0.949219 1.050781 1.335938 0.472656 1.609375 -0.265625 C 1.886719 -1.011719 2.03125 -1.828125 2.03125 -2.703125 C 2.03125 -3.574219 1.886719 -4.382813 1.609375 -5.125 C 1.328125 -5.871094 0.941406 -6.453125 0.453125 -6.859375 Z M 0.640625 -7.09375 "/>
</symbol>
<symbol overflow="visible" id="svg46glyph0-7">
<path style="stroke:none;" d="M 9.015625 -3.875 C 8.640625 -3.570313 8.113281 -3.082031 7.4375 -2.40625 L 7.21875 -2.546875 L 8.015625 -3.625 L 0.6875 -3.625 L 0.6875 -4.125 L 8.015625 -4.125 L 7.21875 -5.1875 L 7.4375 -5.34375 C 8.113281 -4.65625 8.640625 -4.164063 9.015625 -3.875 Z M 8.84375 -0.984375 L 1.515625 -0.984375 L 2.3125 0.09375 L 2.09375 0.234375 C 1.425781 -0.441406 0.902344 -0.929688 0.53125 -1.234375 C 0.902344 -1.535156 1.425781 -2.023438 2.09375 -2.703125 L 2.3125 -2.546875 L 1.515625 -1.484375 L 8.84375 -1.484375 Z M 8.84375 -0.984375 "/>
</symbol>
<symbol overflow="visible" id="svg46glyph0-8">
<path style="stroke:none;" d="M 4.125 -1.40625 L 4.40625 -1.3125 C 4.40625 -1.300781 4.285156 -0.863281 4.046875 0 L 0.3125 0 L 0.3125 -0.234375 C 1.058594 -0.972656 1.601563 -1.539063 1.9375 -1.9375 C 2.320313 -2.394531 2.625 -2.8125 2.84375 -3.1875 C 3.070313 -3.570313 3.1875 -3.957031 3.1875 -4.34375 C 3.1875 -4.769531 3.082031 -5.097656 2.875 -5.328125 C 2.664063 -5.566406 2.378906 -5.6875 2.015625 -5.6875 C 1.515625 -5.6875 1.054688 -5.371094 0.640625 -4.75 L 0.421875 -4.953125 L 0.984375 -5.765625 C 1.355469 -6.148438 1.8125 -6.34375 2.34375 -6.34375 C 2.800781 -6.34375 3.191406 -6.183594 3.515625 -5.875 C 3.847656 -5.570313 4.015625 -5.164063 4.015625 -4.65625 C 4.015625 -4.25 3.914063 -3.867188 3.71875 -3.515625 C 3.53125 -3.171875 3.191406 -2.738281 2.703125 -2.21875 L 1.296875 -0.734375 L 3.15625 -0.734375 C 3.425781 -0.734375 3.617188 -0.765625 3.734375 -0.828125 C 3.847656 -0.898438 3.976563 -1.09375 4.125 -1.40625 Z M 4.125 -1.40625 "/>
</symbol>
<symbol overflow="visible" id="svg46glyph0-9">
<path style="stroke:none;" d="M 1.125 0.125 C 0.96875 0.125 0.835938 0.0703125 0.734375 -0.03125 C 0.628906 -0.144531 0.578125 -0.285156 0.578125 -0.453125 C 0.578125 -0.617188 0.628906 -0.753906 0.734375 -0.859375 C 0.847656 -0.972656 0.984375 -1.03125 1.140625 -1.03125 C 1.292969 -1.03125 1.425781 -0.972656 1.53125 -0.859375 C 1.644531 -0.753906 1.703125 -0.617188 1.703125 -0.453125 C 1.703125 -0.285156 1.644531 -0.144531 1.53125 -0.03125 C 1.425781 0.0703125 1.289063 0.125 1.125 0.125 Z M 1.125 0.125 "/>
</symbol>
<symbol overflow="visible" id="svg46glyph1-0">
<path style="stroke:none;" d="M 2.890625 -0.984375 L 3.078125 -0.921875 C 3.078125 -0.910156 2.992188 -0.601563 2.828125 0 L 0.21875 0 L 0.21875 -0.15625 C 0.746094 -0.675781 1.125 -1.070313 1.34375 -1.34375 C 1.621094 -1.675781 1.835938 -1.972656 1.984375 -2.234375 C 2.136719 -2.503906 2.21875 -2.773438 2.21875 -3.046875 C 2.21875 -3.335938 2.144531 -3.5625 2 -3.71875 C 1.863281 -3.882813 1.664063 -3.96875 1.40625 -3.96875 C 1.050781 -3.96875 0.730469 -3.753906 0.453125 -3.328125 L 0.296875 -3.46875 L 0.6875 -4.03125 C 0.945313 -4.300781 1.265625 -4.4375 1.640625 -4.4375 C 1.960938 -4.4375 2.238281 -4.324219 2.46875 -4.109375 C 2.695313 -3.898438 2.8125 -3.617188 2.8125 -3.265625 C 2.8125 -2.972656 2.742188 -2.699219 2.609375 -2.453125 C 2.472656 -2.210938 2.230469 -1.910156 1.890625 -1.546875 L 0.90625 -0.515625 L 2.203125 -0.515625 C 2.398438 -0.515625 2.535156 -0.535156 2.609375 -0.578125 C 2.691406 -0.628906 2.785156 -0.765625 2.890625 -0.984375 Z M 2.890625 -0.984375 "/>
</symbol>
<symbol overflow="visible" id="svg46glyph1-1">
<path style="stroke:none;" d="M 2 -2.640625 L 2 -2.625 C 2.300781 -2.570313 2.535156 -2.445313 2.703125 -2.25 C 2.878906 -2.050781 2.96875 -1.820313 2.96875 -1.5625 C 2.96875 -1.300781 2.894531 -1.054688 2.75 -0.828125 C 2.613281 -0.609375 2.441406 -0.433594 2.234375 -0.3125 C 2.035156 -0.1875 1.835938 -0.0859375 1.640625 -0.015625 C 1.441406 0.0429688 1.273438 0.078125 1.140625 0.078125 C 0.992188 0.078125 0.851563 0.0507813 0.71875 0 C 0.582031 -0.0390625 0.488281 -0.09375 0.4375 -0.15625 C 0.34375 -0.238281 0.304688 -0.320313 0.328125 -0.40625 C 0.328125 -0.476563 0.378906 -0.554688 0.484375 -0.640625 C 0.542969 -0.679688 0.601563 -0.679688 0.65625 -0.640625 C 0.925781 -0.398438 1.210938 -0.28125 1.515625 -0.28125 C 1.773438 -0.28125 1.976563 -0.375 2.125 -0.5625 C 2.277344 -0.746094 2.359375 -1.007813 2.359375 -1.34375 C 2.359375 -1.644531 2.261719 -1.867188 2.078125 -2.015625 C 1.898438 -2.167969 1.699219 -2.25 1.484375 -2.25 C 1.347656 -2.25 1.195313 -2.222656 1.03125 -2.171875 L 0.984375 -2.375 C 1.347656 -2.488281 1.625 -2.617188 1.8125 -2.765625 C 1.996094 -2.917969 2.09375 -3.117188 2.09375 -3.359375 C 2.09375 -3.574219 2.027344 -3.742188 1.90625 -3.859375 C 1.789063 -3.972656 1.632813 -4.03125 1.4375 -4.03125 C 1.125 -4.03125 0.839844 -3.839844 0.59375 -3.46875 L 0.453125 -3.609375 L 0.75 -4.046875 C 0.988281 -4.304688 1.285156 -4.4375 1.640625 -4.4375 L 1.65625 -4.4375 C 1.957031 -4.4375 2.203125 -4.347656 2.390625 -4.171875 C 2.585938 -4.003906 2.6875 -3.785156 2.6875 -3.515625 C 2.6875 -3.328125 2.613281 -3.164063 2.46875 -3.03125 C 2.363281 -2.914063 2.207031 -2.785156 2 -2.640625 Z M 2 -2.640625 "/>
</symbol>
</g>
</defs>
<g id="svg46_surface1">
<g style="fill:rgb(0%,0%,0%);fill-opacity:1;">
  <use xlink:href="#svg46glyph0-0" x="1.66" y="8.37"/>
</g>
<g style="fill:rgb(0%,0%,0%);fill-opacity:1;">
  <use xlink:href="#svg46glyph1-0" x="9.29" y="10.76"/>
</g>
<g style="fill:rgb(0%,0%,0%);fill-opacity:1;">
  <use xlink:href="#svg46glyph0-1" x="13.23" y="8.37"/>
  <use xlink:href="#svg46glyph0-2" x="19.855395" y="8.37"/>
</g>
<g style="fill:rgb(0%,0%,0%);fill-opacity:1;">
  <use xlink:href="#svg46glyph1-1" x="27.3" y="10.76"/>
</g>
<g style="fill:rgb(0%,0%,0%);fill-opacity:1;">
  <use xlink:href="#svg46glyph0-3" x="33.46" y="8.37"/>
</g>
<g style="fill:rgb(0%,0%,0%);fill-opacity:1;">
  <use xlink:href="#svg46glyph0-1" x="41.510104" y="8.37"/>
  <use xlink:href="#svg46glyph0-4" x="48.135499" y="8.37"/>
  <use xlink:href="#svg46glyph0-5" x="52.509256" y="8.37"/>
  <use xlink:href="#svg46glyph0-2" x="55.956454" y="8.37"/>
  <use xlink:href="#svg46glyph0-0" x="63.398815" y="8.37"/>
  <use xlink:href="#svg46glyph0-6" x="71.030473" y="8.37"/>
</g>
<g style="fill:rgb(0%,0%,0%);fill-opacity:1;">
  <use xlink:href="#svg46glyph1-0" x="74.48" y="10.76"/>
</g>
<g style="fill:rgb(0%,0%,0%);fill-opacity:1;">
  <use xlink:href="#svg46glyph0-7" x="81.19" y="8.37"/>
</g>
<g style="fill:rgb(0%,0%,0%);fill-opacity:1;">
  <use xlink:href="#svg46glyph0-1" x="93.454453" y="8.37"/>
  <use xlink:href="#svg46glyph0-4" x="100.079848" y="8.37"/>
  <use xlink:href="#svg46glyph0-1" x="104.453605" y="8.37"/>
  <use xlink:href="#svg46glyph0-2" x="111.079" y="8.37"/>
</g>
<g style="fill:rgb(0%,0%,0%);fill-opacity:1;">
  <use xlink:href="#svg46glyph1-1" x="118.53" y="10.76"/>
</g>
<g style="fill:rgb(0%,0%,0%);fill-opacity:1;">
  <use xlink:href="#svg46glyph0-3" x="124.69" y="8.37"/>
</g>
<g style="fill:rgb(0%,0%,0%);fill-opacity:1;">
  <use xlink:href="#svg46glyph0-8" x="132.740104" y="8.37"/>
  <use xlink:href="#svg46glyph0-0" x="137.522344" y="8.37"/>
</g>
<g style="fill:rgb(0%,0%,0%);fill-opacity:1;">
  <use xlink:href="#svg46glyph1-0" x="145.16" y="10.76"/>
</g>
<g style="fill:rgb(0%,0%,0%);fill-opacity:1;">
  <use xlink:href="#svg46glyph0-2" x="149.1" y="8.37"/>
  <use xlink:href="#svg46glyph0-9" x="156.542361" y="8.37"/>
</g>
</g>
</svg>