<?xml version="1.0" encoding="UTF-8"?>
<svg xmlns="http://www.w3.org/2000/svg" xmlns:xlink="http://www.w3.org/1999/xlink" width="82.75pt" height="23.45pt" viewBox="0 0 82.75 23.45" version="1.1">
<defs>
<g>
<symbol overflow="visible" id="svg11glyph0-0">
<path style="stroke:none;" d="M 6 0 L 0.4375 0 L 0.4375 -0.234375 L 3.109375 -6.5625 L 3.390625 -6.65625 L 6 -0.234375 Z M 4.96875 -0.5 L 3.03125 -5.390625 L 1.0625 -0.5 Z M 4.96875 -0.5 "/>
</symbol>
<symbol overflow="visible" id="svg11glyph0-1">
<path style="stroke:none;" d="M 7.125 -2.953125 L 7.078125 -2.703125 C 6.765625 -2.660156 6.566406 -2.589844 6.484375 -2.5 C 6.410156 -2.414063 6.335938 -2.179688 6.265625 -1.796875 L 6.109375 -1 C 6.046875 -0.675781 6.035156 -0.429688 6.078125 -0.265625 C 5.984375 -0.242188 5.800781 -0.195313 5.53125 -0.125 C 5.257813 -0.0625 5.042969 -0.0117188 4.890625 0.015625 C 4.742188 0.0429688 4.542969 0.078125 4.296875 0.109375 C 4.054688 0.148438 3.820313 0.171875 3.59375 0.171875 C 2.601563 0.171875 1.792969 -0.09375 1.171875 -0.625 C 0.546875 -1.164063 0.234375 -1.898438 0.234375 -2.828125 C 0.234375 -3.949219 0.65625 -4.875 1.5 -5.59375 C 2.351563 -6.308594 3.476563 -6.671875 4.875 -6.671875 C 5.476563 -6.671875 6.164063 -6.550781 6.9375 -6.3125 L 6.828125 -4.65625 L 6.546875 -4.65625 C 6.546875 -5.214844 6.382813 -5.632813 6.0625 -5.90625 C 5.738281 -6.175781 5.246094 -6.3125 4.59375 -6.3125 C 3.570313 -6.3125 2.757813 -5.988281 2.15625 -5.34375 C 1.5625 -4.695313 1.265625 -3.894531 1.265625 -2.9375 C 1.265625 -2.113281 1.488281 -1.445313 1.9375 -0.9375 C 2.394531 -0.4375 3.023438 -0.1875 3.828125 -0.1875 C 4.636719 -0.1875 5.101563 -0.4375 5.21875 -0.9375 L 5.421875 -1.796875 C 5.503906 -2.179688 5.496094 -2.414063 5.40625 -2.5 C 5.3125 -2.582031 4.976563 -2.648438 4.40625 -2.703125 L 4.453125 -2.953125 Z M 7.125 -2.953125 "/>
</symbol>
<symbol overflow="visible" id="svg11glyph0-2">
<path style="stroke:none;" d="M 5.34375 -3.234375 L 0.515625 -3.234375 L 0.515625 -3.734375 L 5.34375 -3.734375 Z M 5.34375 -1.375 L 0.515625 -1.375 L 0.515625 -1.875 L 5.34375 -1.875 Z M 5.34375 -1.375 "/>
</symbol>
<symbol overflow="visible" id="svg11glyph0-3">
<path style="stroke:none;" d="M 5.34375 -2.296875 L 0.515625 -2.296875 L 0.515625 -2.796875 L 5.34375 -2.796875 Z M 5.34375 -2.296875 "/>
</symbol>
<symbol overflow="visible" id="svg11glyph0-4">
<path style="stroke:none;" d="M 4.796875 -4.15625 C 4.796875 -4.019531 4.738281 -3.882813 4.625 -3.75 C 4.5625 -3.675781 4.503906 -3.65625 4.453125 -3.6875 C 4.316406 -3.738281 4.175781 -3.765625 4.03125 -3.765625 C 3.613281 -3.765625 3.144531 -3.503906 2.625 -2.984375 C 2.777344 -2.523438 3.078125 -1.882813 3.515625 -1.0625 C 3.628906 -0.863281 3.71875 -0.726563 3.78125 -0.65625 C 3.839844 -0.582031 3.910156 -0.546875 3.984375 -0.546875 C 4.085938 -0.546875 4.289063 -0.695313 4.59375 -1 L 4.765625 -0.796875 C 4.335938 -0.179688 3.941406 0.125 3.578125 0.125 C 3.347656 0.125 3.113281 -0.0976563 2.875 -0.546875 C 2.601563 -1.023438 2.324219 -1.644531 2.046875 -2.40625 C 1.804688 -2.207031 1.597656 -2.003906 1.421875 -1.796875 C 1.242188 -1.035156 1.121094 -0.460938 1.0625 -0.078125 C 0.789063 -0.0234375 0.535156 0.0390625 0.296875 0.125 L 0.234375 0.0625 L 1.625 -6.0625 C 1.675781 -6.246094 1.675781 -6.359375 1.625 -6.390625 C 1.582031 -6.429688 1.460938 -6.457031 1.265625 -6.46875 L 0.921875 -6.484375 L 0.96875 -6.734375 C 1.214844 -6.761719 1.460938 -6.8125 1.703125 -6.875 C 1.941406 -6.933594 2.128906 -6.992188 2.265625 -7.046875 C 2.410156 -7.097656 2.5 -7.125 2.53125 -7.125 C 2.613281 -7.125 2.621094 -7.011719 2.5625 -6.796875 L 1.53125 -2.375 L 1.546875 -2.375 C 1.785156 -2.621094 2.109375 -2.929688 2.515625 -3.296875 C 2.773438 -3.535156 2.992188 -3.722656 3.171875 -3.859375 C 3.347656 -3.992188 3.554688 -4.128906 3.796875 -4.265625 C 4.035156 -4.410156 4.226563 -4.484375 4.375 -4.484375 C 4.496094 -4.484375 4.597656 -4.445313 4.671875 -4.375 C 4.753906 -4.3125 4.796875 -4.238281 4.796875 -4.15625 Z M 4.796875 -4.15625 "/>
</symbol>
<symbol overflow="visible" id="svg11glyph0-5">
<path style="stroke:none;" d="M 6.484375 -6.765625 L 6.265625 -4.890625 L 5.9375 -4.875 C 5.957031 -5.246094 5.914063 -5.5625 5.8125 -5.8125 C 5.757813 -5.945313 5.652344 -6.035156 5.5 -6.078125 C 5.34375 -6.117188 5.054688 -6.140625 4.640625 -6.140625 L 3.90625 -6.140625 L 3 -1.234375 C 2.96875 -1.078125 2.945313 -0.949219 2.9375 -0.859375 C 2.925781 -0.773438 2.929688 -0.691406 2.953125 -0.609375 C 2.972656 -0.535156 2.992188 -0.480469 3.015625 -0.453125 C 3.042969 -0.421875 3.109375 -0.386719 3.203125 -0.359375 C 3.292969 -0.328125 3.382813 -0.304688 3.46875 -0.296875 C 3.550781 -0.296875 3.6875 -0.289063 3.875 -0.28125 L 3.8125 0 L 0.953125 0 L 1 -0.28125 C 1.457031 -0.308594 1.738281 -0.367188 1.84375 -0.453125 C 1.945313 -0.542969 2.039063 -0.804688 2.125 -1.234375 L 3.0625 -6.140625 L 2.515625 -6.140625 C 2.015625 -6.140625 1.675781 -6.117188 1.5 -6.078125 C 1.320313 -6.035156 1.183594 -5.957031 1.09375 -5.84375 C 0.925781 -5.65625 0.742188 -5.332031 0.546875 -4.875 L 0.234375 -4.875 C 0.441406 -5.527344 0.617188 -6.160156 0.765625 -6.765625 L 0.984375 -6.765625 C 1.023438 -6.640625 1.070313 -6.558594 1.125 -6.53125 C 1.175781 -6.507813 1.300781 -6.5 1.5 -6.5 L 5.671875 -6.5 C 5.824219 -6.5 5.9375 -6.515625 6 -6.546875 C 6.070313 -6.574219 6.160156 -6.648438 6.265625 -6.765625 Z M 6.484375 -6.765625 "/>
</symbol>
<symbol overflow="visible" id="svg11glyph0-6">
<path style="stroke:none;" d="M 2.375 0 L 0.15625 0 L 0.15625 -0.265625 C 0.464844 -0.292969 0.664063 -0.347656 0.75 -0.421875 C 0.832031 -0.503906 0.875 -0.710938 0.875 -1.046875 L 0.875 -5.765625 C 0.875 -6.097656 0.835938 -6.300781 0.765625 -6.375 C 0.691406 -6.445313 0.496094 -6.5 0.1875 -6.53125 L 0.1875 -6.765625 C 0.664063 -6.816406 1.15625 -6.9375 1.65625 -7.125 L 1.65625 -1.046875 C 1.65625 -0.710938 1.691406 -0.503906 1.765625 -0.421875 C 1.847656 -0.347656 2.050781 -0.292969 2.375 -0.265625 Z M 2.375 0 "/>
</symbol>
<symbol overflow="visible" id="svg11glyph0-7">
<path style="stroke:none;" d="M 5.234375 0 L 3.15625 0 L 3.15625 -0.265625 C 3.445313 -0.292969 3.628906 -0.351563 3.703125 -0.4375 C 3.773438 -0.519531 3.8125 -0.738281 3.8125 -1.09375 L 3.8125 -2.765625 C 3.8125 -3.523438 3.507813 -3.90625 2.90625 -3.90625 C 2.570313 -3.90625 2.207031 -3.730469 1.8125 -3.390625 L 1.8125 -1.046875 C 1.8125 -0.710938 1.84375 -0.503906 1.90625 -0.421875 C 1.976563 -0.347656 2.160156 -0.292969 2.453125 -0.265625 L 2.453125 0 L 0.296875 0 L 0.296875 -0.265625 C 0.628906 -0.292969 0.832031 -0.347656 0.90625 -0.421875 C 0.976563 -0.503906 1.015625 -0.710938 1.015625 -1.046875 L 1.015625 -3.09375 C 1.015625 -3.402344 0.980469 -3.597656 0.921875 -3.671875 C 0.859375 -3.753906 0.691406 -3.820313 0.421875 -3.875 L 0.421875 -4.109375 C 0.960938 -4.210938 1.425781 -4.347656 1.8125 -4.515625 L 1.8125 -3.71875 C 1.945313 -3.820313 2.171875 -3.976563 2.484375 -4.1875 C 2.792969 -4.382813 3.070313 -4.484375 3.3125 -4.484375 C 3.707031 -4.484375 4.019531 -4.347656 4.25 -4.078125 C 4.476563 -3.816406 4.59375 -3.445313 4.59375 -2.96875 L 4.59375 -1.046875 C 4.59375 -0.710938 4.625 -0.503906 4.6875 -0.421875 C 4.757813 -0.347656 4.941406 -0.292969 5.234375 -0.265625 Z M 5.234375 0 "/>
</symbol>
<symbol overflow="visible" id="svg11glyph0-8">
<path style="stroke:none;" d="M 5.15625 -2.765625 C 5.15625 -1.929688 4.691406 -1.160156 3.765625 -0.453125 C 3.523438 -0.273438 3.269531 -0.132813 3 -0.03125 C 2.738281 0.0703125 2.527344 0.125 2.375 0.125 C 2.113281 0.125 1.867188 -0.0195313 1.640625 -0.3125 C 1.578125 -0.0195313 1.511719 0.332031 1.453125 0.75 C 1.335938 1.644531 1.230469 2.148438 1.140625 2.265625 C 1.054688 2.367188 0.917969 2.445313 0.734375 2.5 C 0.546875 2.558594 0.394531 2.597656 0.28125 2.609375 L 0.234375 2.46875 C 0.378906 2.21875 0.65625 0.863281 1.0625 -1.59375 C 1.175781 -2.207031 1.328125 -2.691406 1.515625 -3.046875 C 1.699219 -3.410156 2 -3.734375 2.40625 -4.015625 C 2.851563 -4.324219 3.304688 -4.484375 3.765625 -4.484375 C 4.179688 -4.484375 4.515625 -4.320313 4.765625 -4 C 5.023438 -3.6875 5.15625 -3.273438 5.15625 -2.765625 Z M 4.3125 -2.59375 C 4.3125 -2.996094 4.222656 -3.332031 4.046875 -3.59375 C 3.867188 -3.863281 3.601563 -4 3.25 -4 C 2.90625 -4 2.632813 -3.832031 2.4375 -3.5 C 2.238281 -3.175781 2.074219 -2.683594 1.953125 -2.03125 L 1.703125 -0.765625 C 1.980469 -0.523438 2.28125 -0.40625 2.59375 -0.40625 C 3.113281 -0.40625 3.53125 -0.609375 3.84375 -1.015625 C 4.152344 -1.417969 4.3125 -1.945313 4.3125 -2.59375 Z M 4.3125 -2.59375 "/>
</symbol>
<symbol overflow="visible" id="svg11glyph0-9">
<path style="stroke:none;" d="M 3 1.46875 L 2.8125 1.703125 C 2.113281 1.222656 1.585938 0.601563 1.234375 -0.15625 C 0.878906 -0.914063 0.703125 -1.765625 0.703125 -2.703125 C 0.703125 -3.628906 0.878906 -4.472656 1.234375 -5.234375 C 1.585938 -5.992188 2.113281 -6.613281 2.8125 -7.09375 L 3 -6.859375 C 2.507813 -6.441406 2.121094 -5.863281 1.84375 -5.125 C 1.570313 -4.382813 1.4375 -3.574219 1.4375 -2.703125 C 1.4375 -1.835938 1.570313 -1.027344 1.84375 -0.28125 C 2.121094 0.464844 2.507813 1.050781 3 1.46875 Z M 3 1.46875 "/>
</symbol>
<symbol overflow="visible" id="svg11svg11glyph0-10">
<path style="stroke:none;" d="M 5.9375 -5.109375 C 5.9375 -4.296875 5.367188 -3.773438 4.234375 -3.546875 L 4.234375 -3.515625 C 5.285156 -3.296875 5.8125 -2.769531 5.8125 -1.9375 C 5.8125 -1.582031 5.695313 -1.257813 5.46875 -0.96875 C 5.238281 -0.6875 4.933594 -0.472656 4.5625 -0.328125 C 4.0625 -0.109375 3.339844 0 2.40625 0 L 0.171875 0 L 0.25 -0.28125 C 0.664063 -0.308594 0.925781 -0.375 1.03125 -0.46875 C 1.144531 -0.558594 1.238281 -0.800781 1.3125 -1.1875 L 2.140625 -5.453125 C 2.199219 -5.773438 2.191406 -5.972656 2.109375 -6.046875 C 2.035156 -6.128906 1.777344 -6.1875 1.34375 -6.21875 L 1.40625 -6.5 L 3.984375 -6.5 C 5.285156 -6.5 5.9375 -6.035156 5.9375 -5.109375 Z M 4.984375 -5.09375 C 4.984375 -5.488281 4.855469 -5.765625 4.609375 -5.921875 C 4.367188 -6.074219 4.066406 -6.15625 3.703125 -6.15625 C 3.460938 -6.15625 3.292969 -6.121094 3.203125 -6.0625 C 3.085938 -6.007813 3.011719 -5.863281 2.984375 -5.625 L 2.625 -3.6875 L 3.25 -3.6875 C 3.789063 -3.6875 4.210938 -3.804688 4.515625 -4.046875 C 4.824219 -4.292969 4.984375 -4.644531 4.984375 -5.09375 Z M 4.8125 -1.984375 C 4.8125 -2.460938 4.648438 -2.804688 4.328125 -3.015625 C 4.003906 -3.222656 3.601563 -3.328125 3.125 -3.328125 L 2.5625 -3.328125 L 2.1875 -1.3125 C 2.113281 -0.925781 2.140625 -0.667969 2.265625 -0.546875 C 2.386719 -0.421875 2.65625 -0.359375 3.0625 -0.359375 C 3.570313 -0.359375 3.988281 -0.503906 4.3125 -0.796875 C 4.644531 -1.097656 4.8125 -1.492188 4.8125 -1.984375 Z M 4.8125 -1.984375 "/>
</symbol>
<symbol overflow="visible" id="svg11svg11glyph0-11">
<path style="stroke:none;" d="M 0.640625 -7.09375 C 2.042969 -6.132813 2.75 -4.664063 2.75 -2.6875 C 2.75 -0.71875 2.042969 0.742188 0.640625 1.703125 L 0.453125 1.46875 C 0.949219 1.050781 1.335938 0.472656 1.609375 -0.265625 C 1.886719 -1.011719 2.03125 -1.828125 2.03125 -2.703125 C 2.03125 -3.574219 1.886719 -4.382813 1.609375 -5.125 C 1.328125 -5.871094 0.941406 -6.453125 0.453125 -6.859375 Z M 0.640625 -7.09375 "/>
</symbol>
<symbol overflow="visible" id="svg11svg11glyph0-12">
<path style="stroke:none;" d="M 7.15625 -0.28125 L 7.078125 0 L 4.546875 0 L 4.625 -0.28125 C 4.988281 -0.308594 5.207031 -0.367188 5.28125 -0.453125 C 5.351563 -0.535156 5.367188 -0.695313 5.328125 -0.9375 L 5.03125 -2.375 L 2.703125 -2.375 L 1.96875 -1 C 1.832031 -0.707031 1.796875 -0.523438 1.859375 -0.453125 C 1.917969 -0.378906 2.160156 -0.320313 2.578125 -0.28125 L 2.515625 0 L 0.171875 0 L 0.25 -0.28125 C 0.601563 -0.320313 0.847656 -0.390625 0.984375 -0.484375 C 1.117188 -0.574219 1.296875 -0.8125 1.515625 -1.1875 L 4.703125 -6.59375 L 5.046875 -6.671875 C 5.074219 -6.378906 5.1875 -5.789063 5.375 -4.90625 L 6.171875 -1.09375 C 6.230469 -0.769531 6.316406 -0.558594 6.421875 -0.46875 C 6.535156 -0.375 6.78125 -0.308594 7.15625 -0.28125 Z M 4.953125 -2.8125 L 4.453125 -5.453125 L 4.4375 -5.453125 L 2.953125 -2.8125 Z M 4.953125 -2.8125 "/>
</symbol>
<symbol overflow="visible" id="svg11svg11glyph0-13">
<path style="stroke:none;" d="M 0.953125 -1.296875 C 1.160156 -1.296875 1.363281 -1.195313 1.5625 -1 C 1.757813 -0.800781 1.859375 -0.539063 1.859375 -0.21875 C 1.859375 0.132813 1.726563 0.425781 1.46875 0.65625 C 1.21875 0.882813 0.910156 1.054688 0.546875 1.171875 L 0.4375 0.875 C 0.945313 0.664063 1.203125 0.382813 1.203125 0.03125 C 1.203125 -0.144531 1.144531 -0.285156 1.03125 -0.390625 C 0.914063 -0.503906 0.769531 -0.585938 0.59375 -0.640625 C 0.5625 -0.640625 0.527344 -0.660156 0.5 -0.703125 C 0.46875 -0.742188 0.453125 -0.800781 0.453125 -0.875 C 0.453125 -0.996094 0.503906 -1.097656 0.609375 -1.171875 C 0.710938 -1.253906 0.828125 -1.296875 0.953125 -1.296875 Z M 0.953125 -1.296875 "/>
</symbol>
<symbol overflow="visible" id="svg11glyph1-0">
<path style="stroke:none;" d="M 2.609375 -2.46875 L 2.609375 -2.453125 C 3.429688 -2.328125 3.84375 -1.957031 3.84375 -1.34375 C 3.84375 -0.875 3.617188 -0.519531 3.171875 -0.28125 C 2.828125 -0.09375 2.367188 0 1.796875 0 L 0.25 0 L 0.25 -0.203125 C 0.550781 -0.222656 0.734375 -0.265625 0.796875 -0.328125 C 0.855469 -0.386719 0.890625 -0.566406 0.890625 -0.859375 L 0.890625 -3.6875 C 0.890625 -3.976563 0.863281 -4.15625 0.8125 -4.21875 C 0.757813 -4.289063 0.589844 -4.335938 0.3125 -4.359375 L 0.3125 -4.546875 L 2.109375 -4.546875 C 2.585938 -4.546875 2.9375 -4.464844 3.15625 -4.3125 C 3.277344 -4.226563 3.375 -4.113281 3.4375 -3.96875 C 3.507813 -3.832031 3.546875 -3.679688 3.546875 -3.515625 C 3.546875 -2.992188 3.230469 -2.644531 2.609375 -2.46875 Z M 1.484375 -2.53125 L 1.8125 -2.53125 C 2.183594 -2.53125 2.460938 -2.601563 2.640625 -2.75 C 2.816406 -2.902344 2.90625 -3.132813 2.90625 -3.4375 C 2.90625 -3.695313 2.824219 -3.910156 2.671875 -4.078125 C 2.515625 -4.242188 2.277344 -4.328125 1.96875 -4.328125 C 1.78125 -4.328125 1.648438 -4.300781 1.578125 -4.25 C 1.515625 -4.21875 1.484375 -4.101563 1.484375 -3.90625 Z M 1.484375 -2.296875 L 1.484375 -0.875 C 1.484375 -0.625 1.523438 -0.449219 1.609375 -0.359375 C 1.691406 -0.273438 1.847656 -0.234375 2.078125 -0.234375 C 2.386719 -0.242188 2.644531 -0.332031 2.84375 -0.5 C 3.050781 -0.664063 3.15625 -0.921875 3.15625 -1.265625 C 3.15625 -1.949219 2.707031 -2.296875 1.8125 -2.296875 Z M 1.484375 -2.296875 "/>
</symbol>
</g>
</defs>
<g id="svg11_surface1">
<g style="fill:rgb(0%,0%,0%);fill-opacity:1;">
  <use xlink:href="#svg11glyph0-0" x="1.66" y="13.81"/>
  <use xlink:href="#svg11glyph0-1" x="8.046283" y="13.81"/>
</g>
<g style="fill:rgb(0%,0%,0%);fill-opacity:1;">
  <use xlink:href="#svg11glyph0-2" x="18.019246" y="13.81"/>
</g>
<g style="fill:rgb(0%,0%,0%);fill-opacity:1;">
  <use xlink:href="#svg11glyph0-3" x="26.637241" y="13.81"/>
  <use xlink:href="#svg11glyph0-4" x="32.485522" y="13.81"/>
</g>
<g style="fill:rgb(0%,0%,0%);fill-opacity:1;">
  <use xlink:href="#svg11glyph1-0" x="37.5" y="16.2"/>
</g>
<g style="fill:rgb(0%,0%,0%);fill-opacity:1;">
  <use xlink:href="#svg11glyph0-5" x="42.22" y="13.81"/>
</g>
<g style="fill:rgb(0%,0%,0%);fill-opacity:1;">
  <use xlink:href="#svg11glyph0-6" x="50.040955" y="13.81"/>
  <use xlink:href="#svg11glyph0-7" x="52.561594" y="13.81"/>
</g>
<g style="fill:rgb(0%,0%,0%);fill-opacity:1;">
  <use xlink:href="#svg11glyph0-8" x="59.21" y="6.92"/>
</g>
<g style="fill:rgb(0%,0%,0%);fill-opacity:1;">
  <use xlink:href="#svg11glyph0-9" x="66.24" y="7.07"/>
</g>
<g style="fill:rgb(0%,0%,0%);fill-opacity:1;">
  <use xlink:href="#svg11svg11glyph0-10" x="69.69" y="6.92"/>
</g>
<g style="fill:rgb(0%,0%,0%);fill-opacity:1;">
  <use xlink:href="#svg11svg11glyph0-11" x="75.84" y="7.07"/>
</g>
<path style="fill:none;stroke-width:1;stroke-linecap:butt;stroke-linejoin:miter;stroke:rgb(0%,0%,0%);stroke-opacity:1;stroke-miterlimit:10;" d="M -12.5 60.5 L 7.5 60.5 " transform="matrix(1,0,0,-1,72,72)"/>
<g style="fill:rgb(0%,0%,0%);fill-opacity:1;">
  <use xlink:href="#svg11glyph0-8" x="59.47" y="20.85"/>
  <use xlink:href="#svg11glyph0-9" x="64.840057" y="20.85"/>
  <use xlink:href="#svg11svg11glyph0-12" x="68.287255" y="20.85"/>
  <use xlink:href="#svg11svg11glyph0-11" x="75.590134" y="20.85"/>
</g>
<g style="fill:rgb(0%,0%,0%);fill-opacity:1;">
  <use xlink:href="#svg11svg11glyph0-13" x="80.48" y="13.81"/>
</g>
</g>
</svg>